<?xml version="1.0" encoding="UTF-8" standalone="no"?>
<svg xmlns="http://www.w3.org/2000/svg" fill="none" height="48" viewBox="0 0 40 48" width="40">
<path d="M20.6369 28.3568L19.5846 28.0337C18.9569 27.8676 18.6984 27.7384 18.44 27.4891C18.1815 27.2399 18.0984 27.046 18.0892 26.6953C18.0707 26.2522 18.1723 25.9753 18.44 25.6799C18.7723 25.3476 19.0953 25.1445 19.6953 25.1261C20.4984 25.0891 20.7107 25.2738 21.4215 25.7722L21.523 25.8461C21.7815 26.0307 22.1415 25.9661 22.3261 25.7076C22.5107 25.4491 22.4461 25.0891 22.1876 24.9045L22.0861 24.8307C21.5599 24.4614 21.1353 24.1753 20.5538 24.0461V22.6984C20.5538 22.3753 20.2861 22.1261 19.9723 22.1261C19.6584 22.1261 19.4 22.3845 19.4 22.7076V24.0184C18.5323 24.1199 17.9877 24.5168 17.6 24.8953C17.1015 25.4491 16.8984 26.003 16.9261 26.7507C16.9538 27.3876 17.1569 27.8584 17.6277 28.3291C18.0984 28.7814 18.5784 28.966 19.2523 29.1507L20.3415 29.483C20.8953 29.6307 21.3015 29.7322 21.6153 30.1106C21.8092 30.3506 21.8923 30.6091 21.9015 30.9691C21.883 31.4491 21.7261 31.7537 21.32 32.1045C20.9692 32.3999 20.5723 32.5568 20.0092 32.6029C20.0092 32.6029 20 32.6029 19.9907 32.6029C19.9815 32.6029 19.963 32.6029 19.9538 32.6029C19.88 32.6029 19.8061 32.6214 19.723 32.6214C19.1138 32.6399 18.4492 32.4829 17.9046 32.1876C17.6277 32.0399 17.2769 32.1414 17.12 32.4183C16.963 32.6953 17.0738 33.046 17.3507 33.2029C17.9692 33.5353 18.7077 33.7291 19.4184 33.766V35.0214C19.4184 35.3445 19.6861 35.5937 20 35.5937C20.3138 35.5937 20.5723 35.3352 20.5723 35.0122V33.6737C21.1446 33.5537 21.6338 33.3322 22.0584 32.9722C22.7138 32.4091 23.0184 31.7999 23.0461 30.9599C23.0276 30.323 22.8522 29.8153 22.5015 29.3722C21.9476 28.6984 21.2738 28.523 20.6276 28.3568H20.6369ZM25.3722 16.7907C25.8338 16.4861 26.1384 15.96 26.1384 15.3692C26.1384 15.0553 26.0553 14.7692 25.9076 14.52C25.6861 14.1415 25.2799 13.9107 24.8461 13.8184L24.6707 13.7815C24.3384 13.7077 24.0061 13.68 23.6646 13.68L16.3815 13.6984C15.9569 13.6984 15.5231 13.7538 15.1077 13.8738C14.6 14.0123 14.1477 14.3538 13.9815 14.8523C13.9261 15.0276 13.8892 15.2123 13.8892 15.4061C13.8892 15.9784 14.1754 16.4769 14.6092 16.7815C9.60616 20.0399 6.58771 27.166 6.59694 32.3353C6.61541 38.7783 11.1292 42.0275 20.0276 41.9998C28.9168 41.9721 33.4214 38.6952 33.403 32.2614C33.3845 27.1199 30.3476 20.0399 25.3722 16.7907ZM15.5877 14.8523L24.4307 14.8246H24.4492C24.4861 14.8246 24.5138 14.8338 24.5507 14.8338C24.7907 14.8892 24.9753 15.1015 24.9753 15.36C24.9753 15.6553 24.7353 15.9046 24.4307 15.9046L15.5877 15.9323C15.2923 15.9323 15.0431 15.6923 15.0431 15.3876C15.0431 15.083 15.2831 14.843 15.5877 14.843V14.8523ZM20.0276 40.846C11.7846 40.8644 7.77848 38.086 7.76002 32.326C7.74155 27.0553 11.2031 19.6245 16.4 17.0861L23.5353 17.0676C28.7414 19.5876 32.2399 26.9999 32.2584 32.2614C32.2768 38.0121 28.2799 40.8183 20.0369 40.846H20.0276ZM13.8892 8.73229H15.4031L16.1046 11.4277C16.1692 11.6769 16.3907 11.8523 16.6492 11.8523H16.6769C17.0461 11.8523 17.3138 11.5015 17.2215 11.1507L16.2061 7.16307L23.6553 7.14461L22.6584 11.1323C22.5661 11.4923 22.843 11.8338 23.203 11.8338H23.2307C23.4892 11.8338 23.7107 11.6584 23.7753 11.4092L24.4584 8.7046H25.9722C25.7599 9.31383 25.4461 10.1354 25.0953 11.0677C24.9569 11.4369 25.2338 11.8338 25.6215 11.8338C25.8615 11.8338 26.0738 11.6861 26.1476 11.4646C26.7845 9.70152 27.3199 8.31691 27.3199 8.31691C27.3845 8.14153 27.3568 7.94768 27.2461 7.79076C27.1353 7.64307 26.9599 7.55076 26.7753 7.55076H24.7261L24.9292 6.71077C24.9661 6.53538 24.9292 6.36 24.8184 6.22154C24.7076 6.08308 24.5415 6 24.3661 6L15.4584 6.02769C15.2831 6.02769 15.1169 6.11077 15.0061 6.24923C14.8954 6.38769 14.8584 6.57231 14.9046 6.73846L15.1077 7.58768H13.0585C12.8738 7.58768 12.6985 7.68922 12.5877 7.83691C12.4769 7.99384 12.4492 8.18768 12.5138 8.36307C12.5138 8.36307 13.0585 9.73844 13.7046 11.5015C13.7877 11.723 14 11.8707 14.24 11.8707C14.6369 11.8707 14.9046 11.4738 14.7661 11.1046C14.4154 10.1723 14.0923 9.35075 13.88 8.74153L13.8892 8.73229Z" fill="black"/>
</svg>
