<?xml version="1.0" encoding="UTF-8" standalone="no"?>
<svg xmlns="http://www.w3.org/2000/svg" fill="none" height="48" viewBox="0 0 40 48" width="40">
<path d="M37.4182 36.4356H34.5921V17.7707C34.5921 17.4474 34.3335 17.1981 34.0195 17.1981H26.9451C26.6311 17.1981 26.3725 17.4566 26.3725 17.7707V36.3802H24.0913V24.4849C24.0913 24.1616 23.8327 23.9123 23.5187 23.9123H16.4443C16.1211 23.9123 15.8717 24.1709 15.8717 24.4849V36.3802H13.5906V31.4115C13.5906 31.0883 13.332 30.8389 13.018 30.8389H5.94356C5.62032 30.8389 5.37096 31.0975 5.37096 31.4115V36.4356H3.1452V8.90457C3.1452 8.58133 2.88661 8.33197 2.5726 8.33197C2.25859 8.33197 2 8.59056 2 8.90457V37.0082C2 37.3315 2.25859 37.5808 2.5726 37.5808H5.37096V39.0954C5.37096 39.4187 5.62955 39.668 5.9528 39.668H13.0272C13.3504 39.668 13.5998 39.4094 13.5998 39.0954V37.5254H15.881V39.0954C15.881 39.4187 16.1396 39.668 16.4536 39.668H23.528C23.842 39.668 24.1006 39.4094 24.1006 39.0954V37.5254H26.3817V39.0954C26.3817 39.4187 26.6403 39.668 26.9543 39.668H34.0287C34.3427 39.668 34.6013 39.4094 34.6013 39.0954V37.5808H37.4274C37.7414 37.5808 38 37.3222 38 37.0082C38 36.6942 37.7414 36.4356 37.4274 36.4356H37.4182ZM12.4269 38.5228H6.5254V31.9841H12.4269V38.5228ZM22.9369 38.5228H17.0354V25.0575H22.9369V38.5228ZM33.4192 38.5228H27.5177V18.334H33.4192V38.5228Z" fill="black"/>
</svg>
