<?xml version="1.0" encoding="UTF-8" standalone="no"?>
<svg xmlns="http://www.w3.org/2000/svg" data-name="Layer 37" id="Layer_37" viewBox="0 0 40 48">
  <path d="M37.41,35.92h-2.85v-4.45c0-.33-.26-.58-.58-.58h-7.14c-.32,0-.58.26-.58.58v4.39h-2.3v-12.38c0-.33-.26-.58-.58-.58h-7.14c-.33,0-.58.26-.58.58v12.38h-2.3V15.94c0-.33-.26-.58-.58-.58h-7.14c-.33,0-.58.26-.58.58v19.98h-2.25V8.12c0-.33-.26-.58-.58-.58s-.58.26-.58.58v28.38c0,.33.26.58.58.58h2.83v1.53c0,.33.26.58.59.58h7.14c.33,0,.58-.26.58-.58v-1.59h2.3v1.59c0,.33.26.58.58.58h7.14c.32,0,.58-.26.58-.58v-1.59h2.3v1.59c0,.33.26.58.58.58h7.14c.32,0,.58-.26.58-.58v-1.53h2.85c.32,0,.58-.26.58-.58s-.26-.58-.58-.58h0ZM12.17,38.03h-5.96v-21.51h5.96v21.51ZM22.78,38.03h-5.96v-13.97h5.96v13.97ZM33.37,38.03h-5.96v-5.98h5.96v5.98Z"/>
</svg>
