<?xml version="1.0" encoding="UTF-8" standalone="no"?>
<svg xmlns="http://www.w3.org/2000/svg" fill="none" height="48" viewBox="0 0 40 48" width="40">
<path d="M4.24953 23.3486C4.24953 23.0835 4.4616 22.879 4.71912 22.879H22.7532C23.0183 22.879 23.2228 23.0911 23.2228 23.3486C23.2228 23.6062 23.0107 23.8182 22.7532 23.8182H4.7267C4.4616 23.8182 4.2571 23.6062 4.2571 23.3486H4.24953ZM12.778 27.1357H4.7267C4.4616 27.1357 4.2571 27.3478 4.2571 27.6053C4.2571 27.8628 4.46918 28.0749 4.7267 28.0749H12.778C13.0431 28.0749 13.2476 27.8628 13.2476 27.6053C13.2476 27.3478 13.0356 27.1357 12.778 27.1357ZM33.2283 20.3796V23.3486C33.2283 23.6137 33.0162 23.8258 32.7587 23.8258H25.1163C24.8513 23.8258 24.6467 23.6137 24.6467 23.3562V20.3871C24.6467 20.122 24.8588 19.91 25.1163 19.91H32.7587C33.0238 19.91 33.2283 20.122 33.2283 20.3796ZM32.2815 20.8567H25.5859V22.879H32.2815V20.8567ZM32.7511 27.1357H15.1942C14.9291 27.1357 14.7246 27.3478 14.7246 27.6053C14.7246 27.8628 14.9367 28.0749 15.1942 28.0749H32.7511C33.0162 28.0749 33.2207 27.8628 33.2207 27.6053C33.2207 27.3478 33.0086 27.1357 32.7511 27.1357ZM37.5304 16.0699C37.2653 16.0699 37.0608 16.2819 37.0608 16.5395V33.551H4.94635C4.68125 33.551 4.47675 33.7631 4.47675 34.0206C4.47675 34.2857 4.68883 34.4902 4.94635 34.4902H37.5304C37.7955 34.4902 38 34.2782 38 34.0206V16.5319C38 16.2668 37.7879 16.0623 37.5304 16.0623V16.0699ZM2.4696 32.0362C2.2045 32.0362 2 31.8241 2 31.5666V13.9794C2 13.7143 2.21208 13.5098 2.4696 13.5098H35.0688C35.3339 13.5098 35.5384 13.7219 35.5384 13.9794V31.5666C35.5384 31.8317 35.3263 32.0362 35.0688 32.0362H2.4696ZM2.94677 16.1986H34.5916V14.449H2.94677V16.1986ZM34.5841 31.0894V17.1454H2.94677V31.0894H34.5916H34.5841Z" fill="black"/>
</svg>
