<?xml version="1.0" encoding="UTF-8" standalone="no"?>
<svg xmlns="http://www.w3.org/2000/svg" fill="none" height="48" viewBox="0 0 40 48" width="40">
<path d="M33.2428 27.3258C32.4295 27.0576 32.5506 27.1095 32.2046 26.9971C31.7027 29.0649 31.0884 30.406 30.154 32.3009C30.4741 32.4826 30.4049 32.4393 31.1317 32.7681C31.4432 32.8633 31.7633 32.9152 32.0921 32.9152C33.7533 32.9152 35.103 31.6087 35.103 30.008C35.103 28.8227 34.3417 27.7671 33.2428 27.3258ZM32.0921 31.8423C31.9363 31.8423 31.7806 31.825 31.6335 31.7904C32.144 30.7089 32.5852 29.5668 32.9486 28.3814C33.5889 28.6842 34.0302 29.3158 34.0302 30.0167C34.0302 31.0203 33.1649 31.8423 32.1007 31.8423H32.0921ZM33.6927 25.2407C33.7793 24.7388 33.8571 24.2283 33.909 23.7092C33.9696 23.2074 33.8052 22.6969 33.4678 22.3162C33.139 21.9442 32.6631 21.7279 32.1613 21.7279H4.46554C3.96371 21.7279 3.49649 21.9442 3.15906 22.3162C2.82162 22.6969 2.66588 23.1987 2.71779 23.7092C3.45323 30.1205 6.60264 35.8223 10.8768 38.9631C11.1104 39.1361 11.2229 39.413 11.1451 39.7158C11.0153 40.2436 11.1451 40.9098 11.4738 41.3338C11.8113 41.7577 12.3131 42 12.8495 42H23.933C24.4781 42 24.9799 41.7577 25.3087 41.3338C25.6462 40.9098 25.7586 40.2436 25.6375 39.7245V39.6812C25.5683 39.4216 25.6721 39.1448 25.9057 38.9717C27.4545 37.8296 28.8388 36.3501 30.0069 34.6197C30.6558 34.8879 31.3653 35.035 32.0748 35.035C34.956 35.035 37.2921 32.7854 37.2921 30.0253C37.2921 27.7931 35.8298 25.8982 33.6754 25.2493L33.6927 25.2407ZM32.0921 33.9448C31.5816 33.9448 31.0798 33.8583 30.6125 33.6852L29.531 33.3478C28.0255 35.5887 27.143 36.7221 25.2741 38.0979C24.6944 38.5305 24.4176 39.3697 24.5819 40.0532V40.0965C24.6425 40.2955 24.5906 40.5032 24.4695 40.6589C24.3397 40.8233 24.1493 40.9185 23.9417 40.9185H12.8582C12.6505 40.9185 12.4602 40.8233 12.3304 40.6589C12.2006 40.4945 12.1574 40.2869 12.2093 40.0532C12.3737 39.3697 12.1055 38.5218 11.5171 38.0892C7.48517 35.1215 4.4915 29.6965 3.79067 23.5794C3.76471 23.3804 3.83393 23.1814 3.96371 23.0343C4.0935 22.8873 4.26654 22.8094 4.45689 22.8094H32.1613C32.3516 22.8094 32.5333 22.8873 32.6545 23.0257C32.7843 23.1728 32.8448 23.3718 32.8275 23.5708C32.7237 24.5052 32.6199 25.1541 32.4122 26.0453L33.4678 26.2876C35.103 26.824 36.2105 28.2862 36.2105 29.9907C36.2105 32.1538 34.359 33.9188 32.0748 33.9188L32.0921 33.9448ZM22.3843 18.3794C22.2285 18.3794 22.0815 18.3102 21.9863 18.1804C21.8219 17.9555 21.8652 17.644 22.0815 17.471C22.7909 16.9259 23.1889 16.2164 23.1889 15.4723C23.1889 14.7282 22.7996 14.0187 22.0815 13.4736C21.1124 12.7382 20.576 11.7432 20.576 10.6703C20.576 9.59744 21.1124 8.60244 22.0815 7.867C22.2978 7.70261 22.6179 7.74587 22.7909 7.96217C22.9553 8.18713 22.9121 8.49861 22.6958 8.67166C21.9863 9.21675 21.5883 9.92623 21.5883 10.6703C21.5883 11.4144 21.9776 12.1325 22.6958 12.669C23.6648 13.4044 24.2013 14.3994 24.2013 15.4723C24.2013 16.5452 23.6648 17.5402 22.6958 18.2756C22.6092 18.3448 22.4968 18.3794 22.3929 18.3794H22.3843ZM18.4648 20.0666C19.8146 19.1235 20.5846 17.8257 20.6106 16.4154C20.6365 15.0051 19.9357 13.6726 18.6206 12.6776C17.5737 11.8816 17.0026 10.8434 17.0286 9.76184C17.0545 8.68031 17.6602 7.668 18.7417 6.91526C18.9667 6.75952 19.0272 6.43939 18.8628 6.21443C18.7071 5.98947 18.387 5.9289 18.162 6.0933C16.8123 7.03639 16.0509 8.33422 16.0163 9.74453C15.9903 11.1548 16.6911 12.4873 18.0063 13.4823C19.0532 14.2783 19.6242 15.3166 19.5983 16.3981C19.5723 17.4796 18.9667 18.4919 17.8851 19.2447C17.6602 19.4004 17.5996 19.7205 17.764 19.9455C17.8592 20.0839 18.0149 20.1618 18.1793 20.1618C18.2831 20.1618 18.3783 20.1358 18.4648 20.0753V20.0666ZM14.5194 18.2756C15.4885 17.5402 16.0249 16.5452 16.0249 15.4723C16.0249 14.3994 15.4885 13.4044 14.5194 12.669C13.8099 12.1239 13.4119 11.4144 13.4119 10.6703C13.4119 9.92623 13.8013 9.21675 14.5194 8.67166C14.7444 8.50726 14.7876 8.18713 14.6146 7.96217C14.4502 7.73722 14.1301 7.69396 13.9051 7.867C12.9361 8.60244 12.3996 9.59744 12.3996 10.6703C12.3996 11.7432 12.9361 12.7382 13.9051 13.4736C14.6146 14.0187 15.0126 14.7282 15.0126 15.4723C15.0126 16.2164 14.6232 16.9259 13.9051 17.471C13.6802 17.6354 13.6369 17.9555 13.8099 18.1804C13.9051 18.3102 14.0609 18.3794 14.2079 18.3794C14.3118 18.3794 14.4242 18.3448 14.5108 18.2756H14.5194Z" fill="black"/>
</svg>
