<?xml version="1.0" encoding="UTF-8"?><svg xmlns="http://www.w3.org/2000/svg" data-name="Object Layer" id="Object_Layer" viewBox="0 0 29.03 39.01">
  <title>Cash4</title>
  <path d="M37.36,23.7a1.82,1.82,0,0,0,.83-1.53,1.85,1.85,0,0,0-.89-1.58c1-3,2.22-6.07,2.22-6.07a.61.61,0,0,0-.08-.57.62.62,0,0,0-.51-.26H36.71l.22-.92a.61.61,0,0,0-.6-.77H26.67a.61.61,0,0,0-.6.77l.22.92H24.07a.62.62,0,0,0-.51.26.61.61,0,0,0-.08.57s1.22,3.13,2.24,6.14a1.83,1.83,0,0,0,0,3C20.28,27.18,17,34.89,17,40.49,17,47.47,21.87,51,31.5,51S46,47.47,46,40.49C46,34.92,42.75,27.24,37.36,23.7Zm-1-8.76h1.64c-.43,1.23-1.26,3.26-2,5.39H35Zm.53,7.23a.58.58,0,0,1-.59.58H26.77a.59.59,0,1,1,0-1.17h9.72A.59.59,0,0,1,36.94,22.17Zm-1.41-8.92-1.78,7.08h-4.5l-1.78-7.08ZM25,14.94h1.64L28,20.33h-1C26.21,18.2,25.38,16.17,25,14.94ZM31.5,49.75c-8.93,0-13.27-3-13.27-9.26,0-5.71,3.78-13.74,9.4-16.49h7.74c5.62,2.74,9.4,10.79,9.4,16.49C44.77,46.72,40.43,49.75,31.5,49.75Z" transform="translate(-16.98 -12)"/>
  <path d="M42.89,39.86a.63.63,0,0,0-.62.63c0,2.35-.58,4.92-4.87,6.11a.62.62,0,0,0,.17,1.22.52.52,0,0,0,.17,0c5.18-1.44,5.78-4.86,5.78-7.31A.63.63,0,0,0,42.89,39.86Z" transform="translate(-16.98 -12)"/>
  <path d="M32.2,36.22l-1.14-.35a2.54,2.54,0,0,1-1.25-.59,1.09,1.09,0,0,1-.37-.86,1.37,1.37,0,0,1,.38-1.1,1.82,1.82,0,0,1,1.37-.6,2.42,2.42,0,0,1,1.87.7l.11.08a.62.62,0,1,0,.72-1l-.11-.08a4.56,4.56,0,0,0-1.65-.85V30.09a.63.63,0,0,0-.63-.63.63.63,0,0,0-.62.63v1.42a3.15,3.15,0,0,0-2,.94,2.62,2.62,0,0,0-.73,2,2.3,2.3,0,0,0,.75,1.71,3.7,3.7,0,0,0,1.76.9l1.18.36a2.38,2.38,0,0,1,1.38.68,1.48,1.48,0,0,1,.31.94,1.51,1.51,0,0,1-.64,1.22,2.42,2.42,0,0,1-1.41.54h-.06l-.24,0a3.92,3.92,0,0,1-2-.48.63.63,0,1,0-.6,1.1,5.14,5.14,0,0,0,2.24.61v1.36a.63.63,0,0,0,.62.63.63.63,0,0,0,.63-.63V42a3.35,3.35,0,0,0,1.61-.76,2.73,2.73,0,0,0,1.08-2.17,2.77,2.77,0,0,0-.59-1.72A3.51,3.51,0,0,0,32.2,36.22Z" transform="translate(-16.98 -12)"/>
</svg>
