<?xml version="1.0" encoding="UTF-8" standalone="no"?>
<svg xmlns="http://www.w3.org/2000/svg" fill="none" height="14" viewBox="0 0 30 14" width="30">
<g clip-path="url(#clip0_1041_2452)">
<path clip-rule="evenodd" d="M7.39998 12.8H14.2L17.3 1.20001H7.39998C4.19998 1.20001 1.59998 3.80001 1.59998 7.00001C1.59998 10.2 4.19998 12.8 7.39998 12.8Z" fill="white" fill-rule="evenodd"/>
<path clip-rule="evenodd" d="M22.6 0H7.40002C3.50002 0 0.400024 3.1 0.400024 7C0.400024 10.9 3.50002 14 7.40002 14H22.6C26.5 14 29.6 10.9 29.6 7C29.6 3.1 26.4 0 22.6 0ZM1.60002 7C1.60002 3.8 4.20002 1.2 7.40002 1.2H17.3L14.2 12.8H7.40002C4.20002 12.8 1.60002 10.2 1.60002 7Z" fill="#6E6E6E" fill-rule="evenodd"/>
<path d="M24.6 4.00001C24.8 4.20001 24.8 4.60001 24.6 4.80001L22.5 7.00001L24.7 9.20001C24.9 9.40001 24.9 9.80001 24.7 10C24.5 10.2 24.1 10.2 23.9 10L21.7 7.80001L19.5 10C19.3 10.2 18.9 10.2 18.7 10C18.5 9.80001 18.5 9.40001 18.7 9.20001L20.8 7.00001L18.6 4.80001C18.4 4.60001 18.4 4.20001 18.6 4.00001C18.8 3.80001 19.2 3.80001 19.4 4.00001L21.6 6.20001L23.8 4.00001C24 3.80001 24.4 3.80001 24.6 4.00001Z" fill="white"/>
<path d="M12.7 4.10001C12.9 4.30001 13 4.70001 12.8 4.90001L8.60003 9.80001C8.50003 9.90001 8.40002 10 8.30002 10C8.10002 10.1 7.80002 10.1 7.60002 9.90001L5.40002 7.70001C5.20002 7.50001 5.20002 7.10001 5.40002 6.90001C5.60002 6.70001 6.00002 6.70001 6.20002 6.90001L8.00002 8.60001L11.8 4.10001C12 3.90001 12.4 3.90001 12.7 4.10001Z" fill="#6E6E6E"/>
</g>
<defs>
<clipPath id="clip0_1041_2452">
<rect fill="white" height="14" width="30"/>
</clipPath>
</defs>
</svg>
