<?xml version="1.0" encoding="UTF-8" standalone="no"?>
<svg xmlns="http://www.w3.org/2000/svg" fill="none" height="48" viewBox="0 0 40 48" width="40">
<path d="M15.7863 30.7894L23.0311 16.6193C23.1909 16.289 23.5958 16.1612 23.9261 16.3316C24.2457 16.4914 24.3842 16.8963 24.2137 17.2266L16.9689 31.3967C16.8517 31.6311 16.6173 31.7589 16.3722 31.7589C16.2764 31.7589 16.1698 31.7376 16.0739 31.6843C15.7436 31.5245 15.6158 31.1197 15.7863 30.7894ZM15.7756 24.5247C14.1455 24.5247 12.8244 22.8414 12.8244 20.7638C12.8244 18.6862 14.1455 17.0028 15.7756 17.0028C17.4057 17.0028 18.7162 18.6862 18.7162 20.7638C18.7162 22.8414 17.395 24.5247 15.7756 24.5247ZM17.3844 20.7638C17.3844 19.4427 16.6493 18.3346 15.7756 18.3346C14.902 18.3346 14.1562 19.4427 14.1562 20.7638C14.1562 22.0849 14.8913 23.1929 15.7756 23.1929C16.6493 23.1929 17.3844 22.0849 17.3844 20.7638ZM21.2625 27.2415C21.2625 25.1746 22.5836 23.4913 24.2137 23.4913C25.8438 23.4913 27.165 25.1746 27.165 27.2415C27.165 29.3085 25.8438 31.0025 24.2137 31.0025C22.5836 31.0025 21.2625 29.3191 21.2625 27.2415ZM22.5943 27.2415C22.5943 28.5627 23.3401 29.6707 24.2137 29.6707C25.0874 29.6707 25.8332 28.5627 25.8332 27.2415C25.8332 25.9204 25.0874 24.823 24.2137 24.823C23.3401 24.823 22.5943 25.9311 22.5943 27.2415ZM4.22644 23.3421C4.57803 23.3528 4.887 23.0864 4.91896 22.7348C4.98289 21.8718 5.13205 21.0195 5.34513 20.1778C7.41205 12.0699 15.701 7.15835 23.7982 9.21462C29.136 10.5784 33.2272 14.6483 34.6655 19.8475L32.9822 18.2387C32.7158 17.983 32.3003 17.9937 32.0446 18.26C31.7889 18.5264 31.7995 18.9419 32.0659 19.1976L35.3048 22.3086C35.4007 22.3939 35.5179 22.4578 35.6351 22.4791C35.7203 22.5004 35.8162 22.5004 35.9121 22.4791C36.1358 22.4258 36.3063 22.2767 36.3915 22.0636L37.9577 17.8765C38.0855 17.5356 37.9151 17.152 37.5635 17.0242C37.2119 16.8963 36.839 17.0668 36.7111 17.4184L35.944 19.4746C34.3672 13.8385 29.9244 9.41705 24.1285 7.94676C19.8455 6.86004 15.4134 7.49929 11.6205 9.74733C7.82756 11.9954 5.1427 15.5965 4.05597 19.8688C3.82158 20.7744 3.67242 21.7014 3.59784 22.6283C3.56588 23.0118 3.85354 23.3314 4.23709 23.3528L4.22644 23.3421ZM35.7629 24.6632C35.4113 24.6526 35.1023 24.9189 35.081 25.2705C35.0171 26.1335 34.8679 26.9858 34.6549 27.8275C32.5879 35.9354 24.299 40.8576 16.2018 38.7907C10.864 37.427 6.7728 33.3571 5.33448 28.1578L7.01784 29.7666C7.29485 30.0436 7.75298 30.0116 8.00869 29.692C8.22177 29.415 8.1685 29.0208 7.9128 28.7757L4.69523 25.6967C4.53541 25.5369 4.30102 25.4729 4.08794 25.5262C3.87485 25.5795 3.69373 25.7286 3.6085 25.9417L2.04233 30.1288C1.91448 30.4698 2.08495 30.8533 2.43653 30.9812C2.4685 30.9918 2.51111 31.0025 2.54308 31.0131C2.85205 31.0771 3.18233 30.8959 3.28887 30.587L4.05597 28.5307C5.6328 34.1668 10.0756 38.5776 15.8715 40.0586C16.1911 40.1438 16.5107 40.2077 16.8304 40.2716C25.3324 41.9124 33.7812 36.6386 35.9547 28.1365C36.1891 27.2309 36.3382 26.304 36.4128 25.3664C36.4448 24.9828 36.1571 24.6632 35.7736 24.6419L35.7629 24.6632Z" fill="black"/>
</svg>
