<?xml version="1.0" encoding="UTF-8" standalone="no"?>
<svg xmlns="http://www.w3.org/2000/svg" fill="none" height="48" viewBox="0 0 40 48" width="40">
<path d="M6.79323 35.9092C6.79323 36.2232 6.53463 36.4818 6.22986 36.4818H3.69933C3.38533 36.4818 3.13597 36.2232 3.13597 35.9092V30.0908L3.82863 32.7045C4.01334 33.3971 4.65059 33.8774 5.37096 33.8774H6.80246V35.9092H6.79323ZM32.0431 33.8774V35.9092C32.0431 36.8604 32.8096 37.6362 33.7517 37.6362H36.2822C37.2242 37.6362 38 36.8604 38 35.9092V25.7039C38 25.7039 38 25.6947 38 25.6855C37.9076 23.4412 36.4484 21.9913 35.2293 21.2709L36.2545 20.6521C36.6424 20.4305 36.9564 20.0426 37.1134 19.5623C37.2981 18.9897 37.2057 18.371 36.8456 17.8907C36.5131 17.4566 36.0328 17.198 35.5064 17.198H32.7635L30.7409 11.8876C30.3899 10.9641 29.5495 10.3638 28.6167 10.3638H11.3833C10.4413 10.3638 9.61006 10.9641 9.25911 11.8876L7.23653 17.198H4.49359C3.96716 17.198 3.47768 17.4566 3.15444 17.8907C2.79425 18.3617 2.71113 18.9897 2.88661 19.5623C3.04361 20.0426 3.35762 20.4397 3.74551 20.6521L4.77065 21.2709C3.55156 21.9913 2.09236 23.4412 2 25.6855C2 25.6855 2 25.6947 2 25.7039V35.9092C2 36.8604 2.76655 37.6362 3.7178 37.6362H6.24833C7.19035 37.6362 7.9569 36.8604 7.9569 35.9092V33.8774H32.0523H32.0431ZM33.1791 33.8774H34.6106C35.3309 33.8774 35.9682 33.3971 36.1529 32.7045L36.8456 30.0908V35.9092C36.8456 36.2232 36.587 36.4818 36.2822 36.4818H33.7517C33.4377 36.4818 33.1883 36.2232 33.1883 35.9092V33.8774H33.1791ZM5.36172 32.7229C5.14931 32.7229 4.97383 32.5936 4.92765 32.3997L3.13597 25.6485C3.31144 22.804 6.00821 21.9451 6.12827 21.9082C6.34069 21.8343 6.50693 21.6496 6.53463 21.4187C6.56234 21.1878 6.45151 20.9661 6.24833 20.8461L4.33658 19.6547C4.17034 19.5623 4.04105 19.3961 3.9764 19.1929C3.90251 18.9713 3.93946 18.7311 4.07799 18.5557C4.14264 18.4725 4.27193 18.334 4.49359 18.334H7.63366C7.87378 18.334 8.0862 18.1862 8.16932 17.9646L10.3304 12.2848C10.5151 11.8045 10.9307 11.4997 11.3925 11.4997H28.626C29.0877 11.4997 29.5033 11.8045 29.688 12.2848L31.8492 17.9646C31.9323 18.1862 32.1447 18.334 32.3848 18.334H35.5249C35.7373 18.334 35.8758 18.4725 35.9405 18.5557C36.0698 18.7311 36.1067 18.9713 36.0421 19.1929C35.9774 19.3961 35.8481 19.5623 35.6819 19.6547L33.7701 20.8461C33.567 20.9569 33.4561 21.1878 33.4838 21.4187C33.5115 21.6496 33.6778 21.8343 33.8902 21.9082C34.001 21.9451 36.707 22.7948 36.8825 25.6485L35.0908 32.3997C35.0354 32.5936 34.8599 32.7229 34.6567 32.7229H5.36172ZM9.5177 20.8091L10.4874 20.6429C13.4705 20.1811 16.666 19.941 20 19.941C23.334 19.941 26.5203 20.1719 29.5033 20.6429L30.4823 20.8091C30.4823 20.8091 30.5469 20.8091 30.5839 20.8091C30.7501 20.8091 30.9164 20.7352 31.0272 20.5967C31.1565 20.4397 31.1934 20.2181 31.1288 20.0241L28.9215 14.0026C28.589 13.116 27.7948 12.5433 26.8897 12.5433H13.0272C12.1868 12.5433 11.4572 13.0698 11.1524 13.8917C10.746 14.9908 8.88045 20.0149 8.88045 20.0149C8.80657 20.2088 8.84351 20.4212 8.97281 20.5875C9.1021 20.7445 9.30528 20.8184 9.5177 20.7907V20.8091ZM12.2329 14.3166C12.3622 13.9564 12.6762 13.7255 13.018 13.7255H26.8805C27.296 13.7255 27.6655 14.0026 27.8225 14.4274L29.688 19.5069C26.6496 19.0359 23.3894 18.7958 20.0092 18.7958C16.629 18.7958 13.3689 19.0359 10.3212 19.5069C10.8846 18.0015 11.9466 15.1201 12.2422 14.3166H12.2329ZM10.6537 25.1591H7.42124C6.40534 25.1591 5.57414 25.9902 5.57414 27.0061V27.0985C5.57414 28.1144 6.40534 28.9456 7.42124 28.9456H10.6537C11.6696 28.9456 12.5008 28.1144 12.5008 27.0985V27.0061C12.5008 25.9902 11.6696 25.1591 10.6537 25.1591ZM11.3463 27.0985C11.3463 27.4772 11.0416 27.7912 10.6537 27.7912H7.42124C7.04258 27.7912 6.72858 27.4864 6.72858 27.0985V27.0061C6.72858 26.6275 7.03335 26.3135 7.42124 26.3135H10.6537C11.0323 26.3135 11.3463 26.6183 11.3463 27.0061V27.0985ZM32.5788 25.1591H29.3463C28.3304 25.1591 27.4992 25.9902 27.4992 27.0061V27.0985C27.4992 28.1144 28.3304 28.9456 29.3463 28.9456H32.5788C33.5947 28.9456 34.4259 28.1144 34.4259 27.0985V27.0061C34.4259 25.9902 33.6039 25.1591 32.5788 25.1591ZM33.2622 27.0985C33.2622 27.4772 32.9574 27.7912 32.5695 27.7912H29.3371C28.9584 27.7912 28.6444 27.4864 28.6444 27.0985V27.0061C28.6444 26.6275 28.9492 26.3135 29.3371 26.3135H32.5695C32.9482 26.3135 33.2622 26.6183 33.2622 27.0061V27.0985Z" fill="black"/>
</svg>
