<?xml version="1.0" encoding="UTF-8" standalone="no"?>
<svg xmlns="http://www.w3.org/2000/svg" fill="none" height="48" viewBox="0 0 40 48" width="40">
<path d="M13.5249 18.4625C12.5227 18.4625 11.709 19.2762 11.709 20.2784C11.709 21.2805 12.5227 22.0942 13.5249 22.0942C14.527 22.0942 15.3407 21.2805 15.3407 20.2784C15.3407 19.2762 14.527 18.4625 13.5249 18.4625ZM13.5249 21.0321C13.1137 21.0321 12.7711 20.6981 12.7711 20.2784C12.7711 19.8587 13.1052 19.5246 13.5249 19.5246C13.9446 19.5246 14.2786 19.8587 14.2786 20.2784C14.2786 20.6981 13.9446 21.0321 13.5249 21.0321ZM26.3728 18.4625C25.3707 18.4625 24.557 19.2762 24.557 20.2784C24.557 21.2805 25.3707 22.0942 26.3728 22.0942C27.375 22.0942 28.1887 21.2805 28.1887 20.2784C28.1887 19.2762 27.375 18.4625 26.3728 18.4625ZM26.3728 21.0321C25.9617 21.0321 25.6191 20.6981 25.6191 20.2784C25.6191 19.8587 25.9531 19.5246 26.3728 19.5246C26.7925 19.5246 27.1266 19.8587 27.1266 20.2784C27.1266 20.6981 26.7925 21.0321 26.3728 21.0321ZM32.0345 33.7088L34.664 15.1906H5.33643L7.88889 33.7088L5.91887 39.6103C5.73043 40.1756 5.82465 40.7666 6.16726 41.2463C6.50987 41.7259 7.04949 42 7.64049 42H32.3257C32.9167 42 33.4649 41.7173 33.8075 41.2377C34.1501 40.758 34.2358 40.1413 34.0473 39.5932L32.0259 33.7088H32.0345ZM32.9424 40.621C32.7968 40.818 32.5741 40.9379 32.3343 40.9379H7.64906C7.40923 40.9379 7.18653 40.8266 7.04092 40.6296C6.89531 40.4325 6.86105 40.1842 6.93814 39.9529L8.98525 33.8201L6.56983 16.2698H33.4392L30.9638 33.6917L30.9467 33.8201L33.0538 39.9529C33.1309 40.1842 33.0966 40.4325 32.951 40.6296L32.9424 40.621ZM26.9039 12.9379C26.9039 13.2377 26.664 13.469 26.3728 13.469C26.0816 13.469 25.8418 13.2291 25.8418 12.9379V12.955C25.8418 9.70878 23.2037 7.0621 19.9488 7.0621C16.694 7.0621 14.0559 9.70022 14.0559 12.955V12.9379C14.0559 13.2377 13.8161 13.469 13.5249 13.469C13.2336 13.469 12.9938 13.2291 12.9938 12.9379V12.955C12.9938 9.11777 16.1116 6 19.9488 6C23.7861 6 26.9039 9.11777 26.9039 12.955V12.9379Z" fill="black"/>
</svg>
