<?xml version="1.0" encoding="UTF-8"?><svg xmlns="http://www.w3.org/2000/svg" fill="none" height="40" viewBox="0 0 42 40" width="42">
<path clip-rule="evenodd" d="M17.5542 7.8789C17.5542 7.5269 17.8382 7.2429 18.1892 7.2429H29.9372C30.2872 7.2429 30.5722 7.5269 30.5722 7.8789C30.5722 8.2299 30.2872 8.5139 29.9372 8.5139H18.1892C17.8382 8.5139 17.5542 8.2299 17.5542 7.8789ZM14.9722 12.2729C14.9722 11.9219 15.2572 11.6379 15.6072 11.6379H29.9372C30.2872 11.6379 30.5722 11.9219 30.5722 12.2729C30.5722 12.6229 30.2872 12.9069 29.9372 12.9069H15.6072C15.2572 12.9069 14.9722 12.6229 14.9722 12.2729ZM14.9722 16.6669C14.9722 16.3169 15.2572 16.0319 15.6072 16.0319H29.9372C30.2872 16.0319 30.5722 16.3169 30.5722 16.6669C30.5722 17.0179 30.2872 17.3019 29.9372 17.3019H15.6072C15.2572 17.3019 14.9722 17.0179 14.9722 16.6669ZM14.9722 21.0609C14.9722 20.7099 15.2572 20.4259 15.6072 20.4259H29.9372C30.2872 20.4259 30.5722 20.7099 30.5722 21.0609C30.5722 21.4119 30.2872 21.6959 29.9372 21.6959H15.6072C15.2572 21.6959 14.9722 21.4119 14.9722 21.0609ZM14.9722 25.4549C14.9722 25.1059 15.2572 24.8199 15.6072 24.8199H29.9372C30.2872 24.8199 30.5722 25.1059 30.5722 25.4549C30.5722 25.8059 30.2872 26.0899 29.9372 26.0899H15.6072C15.2572 26.0899 14.9722 25.8059 14.9722 25.4549ZM21.4062 33.3769C21.4062 33.7279 21.1212 34.0119 20.7712 34.0119H15.6072C15.2572 34.0119 14.9722 33.7279 14.9722 33.3769C14.9722 33.0259 15.2572 32.7419 15.6072 32.7419H20.7712C21.1212 32.7419 21.4062 33.0259 21.4062 33.3769ZM14.9722 29.8499C14.9722 29.4989 15.2572 29.2139 15.6072 29.2139H29.9372C30.2872 29.2139 30.5722 29.4989 30.5722 29.8499C30.5722 30.1989 30.2872 30.4839 29.9372 30.4839H15.6072C15.2572 30.4839 14.9722 30.1989 14.9722 29.8499ZM29.9022 37.8549H32.3782V34.0119H29.9022V37.8549ZM25.2362 37.8549H28.6332V34.0119H25.2362V37.8549ZM13.1532 5.2219L32.3782 2.5899V32.7419H24.6012C24.2512 32.7419 23.9662 33.0259 23.9662 33.3769V37.8549H13.1532V5.2219ZM7.04117 7.4419C6.55117 7.4419 6.15217 7.0439 6.15217 6.5539C6.15217 6.0639 6.55117 5.6649 7.04117 5.6649H7.36117C7.36817 5.6649 7.37517 5.6609 7.38217 5.6599C7.38917 5.6609 7.39617 5.6649 7.40317 5.6649C7.75417 5.6649 8.03817 5.3809 8.03817 5.0289C8.03817 4.4279 8.69517 3.9849 9.25117 4.2009C9.50117 4.3009 9.77417 4.2259 9.94617 4.0389C10.0642 3.9669 10.1642 3.8649 10.2152 3.7259C10.5632 2.7799 11.4742 2.1459 12.4812 2.1459C13.5162 2.1459 14.3942 2.8049 14.7362 3.7239L12.4322 4.0389C12.1172 4.0819 11.8842 4.3509 11.8842 4.6679V7.4419H7.04117ZM6.15217 34.2389C6.15217 32.6489 6.90217 29.7109 7.97117 29.7109C9.02217 29.7109 9.79017 32.6899 9.79017 34.2389C9.79017 34.4969 9.78517 35.2109 8.60617 35.3989V33.6659C8.60617 33.3159 8.32217 33.0299 7.97117 33.0299C7.62017 33.0299 7.33617 33.3159 7.33617 33.6659V35.3989C6.15817 35.2109 6.15217 34.4969 6.15217 34.2389ZM40.8022 37.8549H33.6472V34.0119H35.2512C35.6012 34.0119 35.8862 33.7279 35.8862 33.3769C35.8862 33.0259 35.6012 32.7419 35.2512 32.7419H33.6472V1.8619C33.6472 1.6789 33.5682 1.5049 33.4302 1.3839C33.2912 1.2639 33.1102 1.2099 32.9262 1.2329L15.9992 3.5509C15.5592 2.0119 14.1592 0.8759 12.4812 0.8759C11.0892 0.8759 9.82517 1.6749 9.20317 2.8969C9.11217 2.8849 9.02017 2.8709 8.92717 2.8709C7.95217 2.8709 7.13717 3.5239 6.86917 4.4119C5.76117 4.5019 4.88317 5.4219 4.88317 6.5539C4.88317 7.7439 5.85117 8.7119 7.04117 8.7119H11.8842V37.8549H8.60617V36.6769C10.1542 36.4909 11.0602 35.6109 11.0602 34.2389C11.0602 33.2859 10.5232 28.4409 7.97117 28.4409C5.43217 28.4409 4.88317 33.0879 4.88317 34.2389C4.88317 35.6109 5.78917 36.4909 7.33617 36.6769V37.8549H1.19817C0.847171 37.8549 0.563171 38.1389 0.563171 38.4889C0.563171 38.8389 0.847171 39.1239 1.19817 39.1239H12.5182H33.0122H40.8022C41.1522 39.1239 41.4372 38.8389 41.4372 38.4889C41.4372 38.1389 41.1522 37.8549 40.8022 37.8549Z" fill="#141414" fill-rule="evenodd"/>
</svg>
