<?xml version="1.0" encoding="UTF-8" standalone="no"?>
<svg xmlns="http://www.w3.org/2000/svg" fill="none" height="48" viewBox="0 0 40 48" width="40">
<path d="M36.7796 7.23439C35.9932 6.44727 34.9473 6.01404 33.8346 6.01404C32.7223 6.01404 31.6763 6.44727 30.8895 7.23344L12.6034 25.5192C12.5763 25.5468 12.5518 25.577 12.5304 25.609L10.0164 29.423C9.95132 29.5218 9.93148 29.6328 9.93292 29.7426L4.64492 27.8692C4.4399 27.7953 4.20769 27.8479 4.05248 28.0026L2.16686 29.8883C2.049 30.0066 1.98852 30.1703 2.00181 30.3366C2.0152 30.5029 2.10098 30.655 2.23613 30.7528L8.62551 35.3609L13.2336 41.7493C13.331 41.8854 13.4831 41.9708 13.6494 41.9842C13.665 41.985 13.6801 41.9859 13.6952 41.9859C13.8455 41.9859 13.9905 41.9263 14.0977 41.8187L15.9829 39.933C16.1381 39.7783 16.1901 39.548 16.1172 39.3407L14.2341 34.0246C14.2702 34.0318 14.3035 34.051 14.3405 34.051C14.4481 34.051 14.5567 34.0207 14.6531 33.9567L18.3974 31.4893C18.4298 31.4688 18.4596 31.444 18.4867 31.4173L36.7796 13.1245C37.5663 12.3381 38 11.2921 38 10.1794C38 9.06664 37.5663 8.02068 36.7796 7.23439ZM9.44056 34.5449L3.44497 30.2209L4.60356 29.062L12.2242 31.7617L14.924 39.3825L13.7654 40.5414L9.44056 34.5449ZM35.9746 12.3185L17.7228 30.5705L14.0269 33.0068C13.9805 33.0372 13.9476 33.079 13.9134 33.1193L13.2073 31.1264C13.2042 31.1175 13.1955 31.1124 13.192 31.1037C13.1599 31.0247 13.1148 30.9519 13.0506 30.8938C13.0443 30.8883 13.0359 30.8864 13.0294 30.8811C12.9792 30.8397 12.9244 30.8025 12.8596 30.7795L10.9233 30.0935C10.9368 30.0772 10.9553 30.0673 10.9672 30.0492L13.4493 26.2842L31.6945 8.03936C32.8384 6.89461 34.8316 6.89545 35.9746 8.03936C36.5462 8.61046 36.8615 9.3709 36.8615 10.1794C36.8615 10.9879 36.5466 11.7476 35.9746 12.3185ZM3.7341 13.3344L15.0915 19.859C15.3146 19.9871 15.5958 19.9498 15.7777 19.7679C16.0428 19.5028 15.9838 19.0584 15.6587 18.8716L4.94684 12.7179L6.97305 10.6979L20.1003 15.0036C20.3043 15.0705 20.5286 15.017 20.6804 14.8652C20.9806 14.565 20.8586 14.0538 20.4552 13.9215L19.7393 13.6867C20.2839 12.8298 20.1857 11.6796 19.4388 10.9323C18.5751 10.0695 17.1688 10.0685 16.3051 10.9332L15.1049 12.1667L14.0826 11.8313C14.5519 10.988 14.4382 9.90524 13.7228 9.18944C12.8591 8.3266 11.4529 8.32582 10.5891 9.19033L9.89095 9.89029L9.50653 10.3305L6.99573 9.50693C6.7916 9.43844 6.56834 9.49181 6.41624 9.64485L3.61575 12.4378C3.49033 12.5632 3.43029 12.7393 3.45348 12.9154C3.4766 13.0907 3.58061 13.2463 3.7341 13.3344ZM17.1101 11.7381C17.53 11.3165 18.2139 11.3165 18.6338 11.7381C19.0536 12.158 19.0536 12.8411 18.6338 13.2609L18.5861 13.3085L16.3092 12.5617L17.1101 11.7381ZM10.7337 10.6553L11.3942 9.9953C11.814 9.57369 12.498 9.57369 12.9179 9.9953C13.3211 10.3986 13.3264 11.0392 12.9552 11.4616L10.6811 10.7157L10.7337 10.6553ZM31.0465 40.508C31.2226 40.5312 31.3987 40.4712 31.5241 40.3458L34.317 37.5453C34.4701 37.3932 34.5234 37.1699 34.455 36.9658L33.6314 34.455L34.0716 34.0706L34.7715 33.3724C35.6361 32.5086 35.6353 31.1024 34.7724 30.2387C34.0566 29.5233 32.9739 29.4096 32.1305 29.8789L31.7952 28.8566L33.0287 27.6564C33.8933 26.7927 33.8924 25.3864 33.0296 24.5227C32.2823 23.7758 31.1321 23.6776 30.2752 24.2222L30.0404 23.5063C29.9081 23.1029 29.3969 22.9809 29.0967 23.2811C28.9449 23.4329 28.8914 23.6572 28.9583 23.8612L33.264 36.9885L31.244 39.0147L25.0903 28.3028C24.9035 27.9777 24.4591 27.9187 24.194 28.1838C24.0121 28.3657 23.9748 28.6469 24.1029 28.87L30.6275 40.2274C30.7156 40.3809 30.8712 40.4849 31.0465 40.508ZM31.4002 27.6523L30.6534 25.3754L30.701 25.3277C31.1208 24.9079 31.8039 24.9079 32.2238 25.3277C32.6454 25.7476 32.6454 26.4315 32.2238 26.8514L31.4002 27.6523ZM33.2462 33.2804L32.5002 31.0063C32.9227 30.6351 33.5633 30.6404 33.9666 31.0436C34.3882 31.4635 34.3882 32.1475 33.9666 32.5674L33.3066 33.2278L33.2462 33.2804Z" fill="black"/>
</svg>
