<svg width="24" height="24" viewBox="0 0 24 24" xmlns="http://www.w3.org/2000/svg" fill="currentColor" data-omni-part="icon-svg" data-omni-icon-size="medium">
  <path fill-rule="evenodd" clip-rule="evenodd" d="M17.5 7.5c0 3.03-2.47 5.5-5.5 5.5a5.51 5.51 0 0 1-5.5-5.5C6.5 4.47 8.97 2 12 2s5.5 2.47 5.5 5.5Zm-2 0C15.5 5.57 13.93 4 12 4S8.5 5.57 8.5 7.5 10.07 11 12 11s3.5-1.57 3.5-3.5Z"></path>
  <path d="M4 20c0-2.54 3.49-5.5 8-5.5s8 2.96 8 5.5c0 .55-.45 1-1 1s-1-.45-1-1c0-1.23-2.47-3.5-6-3.5S6 18.77 6 20c0 .55-.45 1-1 1s-1-.45-1-1Z"></path>
</svg>