<svg width="16" height="16" viewBox="0 0 16 16" xmlns="http://www.w3.org/2000/svg" fill="currentColor" data-omni-part="icon-svg" data-omni-icon-size="small">
  <path d="M8 5.5V8l1.77-1.77c.98.98.98 2.56 0 3.54s-2.56.98-3.54 0A2.499 2.499 0 0 1 8 5.5Z"></path>
  <path fill-rule="evenodd" clip-rule="evenodd" d="M8 2c5.61 0 7.84 5.4 7.93 5.63.09.24.09.5 0 .74C15.84 8.6 13.61 14 8 14 2.39 14 .16 8.6.07 8.37c-.09-.24-.09-.5 0-.74C.16 7.4 2.39 2 8 2ZM2.1 8c.54 1.06 2.35 4 5.9 4 3.55 0 5.36-2.94 5.9-4-.54-1.06-2.35-4-5.9-4-3.55 0-5.36 2.94-5.9 4Z"></path>
</svg>