<svg xmlns="http://www.w3.org/2000/svg" viewBox="0 0 72 72" width="72" height="72" preserveAspectRatio="xMidYMid meet" style="width: 100%; height: 100%; transform: translate3d(0px, 0px, 0px);"><defs><clipPath id="__lottie_element_23"><rect width="72" height="72" x="0" y="0"></rect></clipPath><filter id="__lottie_element_28" filterUnits="objectBoundingBox" x="0%" y="0%" width="100%" height="100%"><feComponentTransfer in="SourceGraphic"><feFuncA type="table" tableValues="1.0 0.0"></feFuncA></feComponentTransfer></filter><mask id="__lottie_element_27" mask-type="alpha"><g filter="url(#__lottie_element_28)"><rect width="72" height="72" x="0" y="0" fill="#ffffff" opacity="0"></rect><g transform="matrix(1.1969999074935913,0,0,1.1969999074935913,31.810100555419922,-192.92140197753906)" opacity="1" style="display: block;"><path fill="rgb(0,0,0)" fill-opacity="1" d=" M3.5329999923706055,176.38600158691406 C-3.066999912261963,176.38600158691406 -8.467000007629395,181.78599548339844 -8.467000007629395,188.38600158691406 C-8.467000007629395,188.38600158691406 -8.467000007629395,196.3070068359375 -8.467000007629395,196.3070068359375 C-8.467000007629395,196.3070068359375 -8.467000007629395,196.3070068359375 -8.467000007629395,196.3070068359375 C-8.467000007629395,196.3070068359375 -8.467000007629395,209.58999633789062 -8.467000007629395,209.58999633789062 C-8.467000007629395,210.7220001220703 -7.539999961853027,211.6479949951172 -6.4079999923706055,211.6479949951172 C-6.4079999923706055,211.6479949951172 13.473999977111816,211.6479949951172 13.473999977111816,211.6479949951172 C14.605999946594238,211.6479949951172 15.532999992370605,210.7220001220703 15.532999992370605,209.58999633789062 C15.532999992370605,209.58999633789062 15.532999992370605,196.86500549316406 15.532999992370605,196.86500549316406 C15.532999992370605,196.86500549316406 15.532999992370605,196.3070068359375 15.532999992370605,196.3070068359375 C15.532999992370605,196.3070068359375 15.532999992370605,188.38600158691406 15.532999992370605,188.38600158691406 C15.532999992370605,181.78599548339844 10.133000373840332,176.38600158691406 3.5329999923706055,176.38600158691406z"></path><g opacity="1" transform="matrix(1,0,0,1,0,0)"></g></g></g></mask><filter id="__lottie_element_35" filterUnits="objectBoundingBox" x="0%" y="0%" width="100%" height="100%"><feComponentTransfer in="SourceGraphic"><feFuncA type="table" tableValues="1.0 0.0"></feFuncA></feComponentTransfer></filter><mask id="__lottie_element_34" mask-type="alpha"><g filter="url(#__lottie_element_35)"><rect width="72" height="72" x="0" y="0" fill="#ffffff" opacity="0"></rect><g transform="matrix(1.1969999074935913,0,0,1.1969999074935913,31.810100555419922,-192.92140197753906)" opacity="1" style="display: block;"><path fill="rgb(0,0,0)" fill-opacity="1" d=" M3.5329999923706055,176.38600158691406 C-3.066999912261963,176.38600158691406 -8.467000007629395,181.78599548339844 -8.467000007629395,188.38600158691406 C-8.467000007629395,188.38600158691406 -8.467000007629395,196.3070068359375 -8.467000007629395,196.3070068359375 C-8.467000007629395,196.3070068359375 -8.467000007629395,196.3070068359375 -8.467000007629395,196.3070068359375 C-8.467000007629395,196.3070068359375 -8.467000007629395,209.58999633789062 -8.467000007629395,209.58999633789062 C-8.467000007629395,210.7220001220703 -7.539999961853027,211.6479949951172 -6.4079999923706055,211.6479949951172 C-6.4079999923706055,211.6479949951172 13.473999977111816,211.6479949951172 13.473999977111816,211.6479949951172 C14.605999946594238,211.6479949951172 15.532999992370605,210.7220001220703 15.532999992370605,209.58999633789062 C15.532999992370605,209.58999633789062 15.532999992370605,196.86500549316406 15.532999992370605,196.86500549316406 C15.532999992370605,196.86500549316406 15.532999992370605,196.3070068359375 15.532999992370605,196.3070068359375 C15.532999992370605,196.3070068359375 15.532999992370605,188.38600158691406 15.532999992370605,188.38600158691406 C15.532999992370605,181.78599548339844 10.133000373840332,176.38600158691406 3.5329999923706055,176.38600158691406z"></path><g opacity="1" transform="matrix(1,0,0,1,0,0)"></g></g></g></mask><mask id="__lottie_element_44" mask-type="alpha"><g transform="matrix(1.1969999074935913,0,0,1.1969999074935913,31.810100555419922,-192.92140197753906)" opacity="1" style="display: block;"><path fill="rgb(0,0,0)" fill-opacity="1" d=" M3.5329999923706055,176.38600158691406 C-3.066999912261963,176.38600158691406 -8.467000007629395,181.78599548339844 -8.467000007629395,188.38600158691406 C-8.467000007629395,188.38600158691406 -8.467000007629395,196.3070068359375 -8.467000007629395,196.3070068359375 C-8.467000007629395,196.3070068359375 -8.467000007629395,196.3070068359375 -8.467000007629395,196.3070068359375 C-8.467000007629395,196.3070068359375 -8.467000007629395,209.58999633789062 -8.467000007629395,209.58999633789062 C-8.467000007629395,210.7220001220703 -7.539999961853027,211.6479949951172 -6.4079999923706055,211.6479949951172 C-6.4079999923706055,211.6479949951172 13.473999977111816,211.6479949951172 13.473999977111816,211.6479949951172 C14.605999946594238,211.6479949951172 15.532999992370605,210.7220001220703 15.532999992370605,209.58999633789062 C15.532999992370605,209.58999633789062 15.532999992370605,196.86500549316406 15.532999992370605,196.86500549316406 C15.532999992370605,196.86500549316406 15.532999992370605,196.3070068359375 15.532999992370605,196.3070068359375 C15.532999992370605,196.3070068359375 15.532999992370605,188.38600158691406 15.532999992370605,188.38600158691406 C15.532999992370605,181.78599548339844 10.133000373840332,176.38600158691406 3.5329999923706055,176.38600158691406z"></path><g opacity="1" transform="matrix(1,0,0,1,0,0)"></g></g></mask><mask id="__lottie_element_50" mask-type="alpha"><g transform="matrix(1.1969999074935913,0,0,1.1969999074935913,31.810100555419922,-192.92140197753906)" opacity="1" style="display: block;"><path fill="rgb(0,0,0)" fill-opacity="1" d=" M3.5329999923706055,176.38600158691406 C-3.066999912261963,176.38600158691406 -8.467000007629395,181.78599548339844 -8.467000007629395,188.38600158691406 C-8.467000007629395,188.38600158691406 -8.467000007629395,196.3070068359375 -8.467000007629395,196.3070068359375 C-8.467000007629395,196.3070068359375 -8.467000007629395,196.3070068359375 -8.467000007629395,196.3070068359375 C-8.467000007629395,196.3070068359375 -8.467000007629395,209.58999633789062 -8.467000007629395,209.58999633789062 C-8.467000007629395,210.7220001220703 -7.539999961853027,211.6479949951172 -6.4079999923706055,211.6479949951172 C-6.4079999923706055,211.6479949951172 13.473999977111816,211.6479949951172 13.473999977111816,211.6479949951172 C14.605999946594238,211.6479949951172 15.532999992370605,210.7220001220703 15.532999992370605,209.58999633789062 C15.532999992370605,209.58999633789062 15.532999992370605,196.86500549316406 15.532999992370605,196.86500549316406 C15.532999992370605,196.86500549316406 15.532999992370605,196.3070068359375 15.532999992370605,196.3070068359375 C15.532999992370605,196.3070068359375 15.532999992370605,188.38600158691406 15.532999992370605,188.38600158691406 C15.532999992370605,181.78599548339844 10.133000373840332,176.38600158691406 3.5329999923706055,176.38600158691406z"></path><g opacity="1" transform="matrix(1,0,0,1,0,0)"></g></g></mask><filter id="__lottie_element_60" filterUnits="objectBoundingBox" x="0%" y="0%" width="100%" height="100%"><feComponentTransfer in="SourceGraphic"><feFuncA type="table" tableValues="1.0 0.0"></feFuncA></feComponentTransfer></filter><mask id="__lottie_element_59" mask-type="alpha"><g filter="url(#__lottie_element_60)"><rect width="72" height="72" x="0" y="0" fill="#ffffff" opacity="0"></rect><g transform="matrix(1.1969999074935913,0,0,1.1969999074935913,31.611000061035156,-192.4721221923828)" opacity="1" style="display: block;"><path fill="rgb(0,0,0)" fill-opacity="1" d=" M3.5329999923706055,176.38600158691406 C-3.066999912261963,176.38600158691406 -8.467000007629395,181.78599548339844 -8.467000007629395,188.38600158691406 C-8.467000007629395,188.38600158691406 -8.467000007629395,196.3070068359375 -8.467000007629395,196.3070068359375 C-8.467000007629395,196.3070068359375 -8.467000007629395,196.3070068359375 -8.467000007629395,196.3070068359375 C-8.467000007629395,196.3070068359375 -8.467000007629395,209.58999633789062 -8.467000007629395,209.58999633789062 C-8.467000007629395,210.7220001220703 -7.539999961853027,211.6479949951172 -6.4079999923706055,211.6479949951172 C-6.4079999923706055,211.6479949951172 13.473999977111816,211.6479949951172 13.473999977111816,211.6479949951172 C14.605999946594238,211.6479949951172 15.532999992370605,210.7220001220703 15.532999992370605,209.58999633789062 C15.532999992370605,209.58999633789062 15.532999992370605,196.86500549316406 15.532999992370605,196.86500549316406 C15.532999992370605,196.86500549316406 15.532999992370605,196.3070068359375 15.532999992370605,196.3070068359375 C15.532999992370605,196.3070068359375 15.532999992370605,188.38600158691406 15.532999992370605,188.38600158691406 C15.532999992370605,181.78599548339844 10.133000373840332,176.38600158691406 3.5329999923706055,176.38600158691406z"></path><g opacity="1" transform="matrix(1,0,0,1,0,0)"><path stroke-linecap="butt" stroke-linejoin="miter" fill-opacity="0" stroke-miterlimit="10" stroke="rgb(226,0,244)" stroke-opacity="1" stroke-width="0" d=" M3.5329999923706055,176.38600158691406 C-3.066999912261963,176.38600158691406 -8.467000007629395,181.78599548339844 -8.467000007629395,188.38600158691406 C-8.467000007629395,188.38600158691406 -8.467000007629395,196.3070068359375 -8.467000007629395,196.3070068359375 C-8.467000007629395,196.3070068359375 -8.467000007629395,196.3070068359375 -8.467000007629395,196.3070068359375 C-8.467000007629395,196.3070068359375 -8.467000007629395,209.58999633789062 -8.467000007629395,209.58999633789062 C-8.467000007629395,210.7220001220703 -7.539999961853027,211.6479949951172 -6.4079999923706055,211.6479949951172 C-6.4079999923706055,211.6479949951172 13.473999977111816,211.6479949951172 13.473999977111816,211.6479949951172 C14.605999946594238,211.6479949951172 15.532999992370605,210.7220001220703 15.532999992370605,209.58999633789062 C15.532999992370605,209.58999633789062 15.532999992370605,196.86500549316406 15.532999992370605,196.86500549316406 C15.532999992370605,196.86500549316406 15.532999992370605,196.3070068359375 15.532999992370605,196.3070068359375 C15.532999992370605,196.3070068359375 15.532999992370605,188.38600158691406 15.532999992370605,188.38600158691406 C15.532999992370605,181.78599548339844 10.133000373840332,176.38600158691406 3.5329999923706055,176.38600158691406z"></path></g></g></g></mask><filter id="__lottie_element_67" filterUnits="objectBoundingBox" x="0%" y="0%" width="100%" height="100%"><feComponentTransfer in="SourceGraphic"><feFuncA type="table" tableValues="1.0 0.0"></feFuncA></feComponentTransfer></filter><mask id="__lottie_element_66" mask-type="alpha"><g filter="url(#__lottie_element_67)"><rect width="72" height="72" x="0" y="0" fill="#ffffff" opacity="0"></rect><g transform="matrix(1.1969999074935913,0,0,1.1969999074935913,31.611000061035156,-192.4721221923828)" opacity="1" style="display: block;"><path fill="rgb(0,0,0)" fill-opacity="1" d=" M3.5329999923706055,176.38600158691406 C-3.066999912261963,176.38600158691406 -8.467000007629395,181.78599548339844 -8.467000007629395,188.38600158691406 C-8.467000007629395,188.38600158691406 -8.467000007629395,196.3070068359375 -8.467000007629395,196.3070068359375 C-8.467000007629395,196.3070068359375 -8.467000007629395,196.3070068359375 -8.467000007629395,196.3070068359375 C-8.467000007629395,196.3070068359375 -8.467000007629395,209.58999633789062 -8.467000007629395,209.58999633789062 C-8.467000007629395,210.7220001220703 -7.539999961853027,211.6479949951172 -6.4079999923706055,211.6479949951172 C-6.4079999923706055,211.6479949951172 13.473999977111816,211.6479949951172 13.473999977111816,211.6479949951172 C14.605999946594238,211.6479949951172 15.532999992370605,210.7220001220703 15.532999992370605,209.58999633789062 C15.532999992370605,209.58999633789062 15.532999992370605,196.86500549316406 15.532999992370605,196.86500549316406 C15.532999992370605,196.86500549316406 15.532999992370605,196.3070068359375 15.532999992370605,196.3070068359375 C15.532999992370605,196.3070068359375 15.532999992370605,188.38600158691406 15.532999992370605,188.38600158691406 C15.532999992370605,181.78599548339844 10.133000373840332,176.38600158691406 3.5329999923706055,176.38600158691406z"></path><g opacity="1" transform="matrix(1,0,0,1,0,0)"><path stroke-linecap="butt" stroke-linejoin="miter" fill-opacity="0" stroke-miterlimit="10" stroke="rgb(226,0,244)" stroke-opacity="1" stroke-width="0" d=" M3.5329999923706055,176.38600158691406 C-3.066999912261963,176.38600158691406 -8.467000007629395,181.78599548339844 -8.467000007629395,188.38600158691406 C-8.467000007629395,188.38600158691406 -8.467000007629395,196.3070068359375 -8.467000007629395,196.3070068359375 C-8.467000007629395,196.3070068359375 -8.467000007629395,196.3070068359375 -8.467000007629395,196.3070068359375 C-8.467000007629395,196.3070068359375 -8.467000007629395,209.58999633789062 -8.467000007629395,209.58999633789062 C-8.467000007629395,210.7220001220703 -7.539999961853027,211.6479949951172 -6.4079999923706055,211.6479949951172 C-6.4079999923706055,211.6479949951172 13.473999977111816,211.6479949951172 13.473999977111816,211.6479949951172 C14.605999946594238,211.6479949951172 15.532999992370605,210.7220001220703 15.532999992370605,209.58999633789062 C15.532999992370605,209.58999633789062 15.532999992370605,196.86500549316406 15.532999992370605,196.86500549316406 C15.532999992370605,196.86500549316406 15.532999992370605,196.3070068359375 15.532999992370605,196.3070068359375 C15.532999992370605,196.3070068359375 15.532999992370605,188.38600158691406 15.532999992370605,188.38600158691406 C15.532999992370605,181.78599548339844 10.133000373840332,176.38600158691406 3.5329999923706055,176.38600158691406z"></path></g></g></g></mask></defs><g clip-path="url(#__lottie_element_23)"><g mask="url(#__lottie_element_66)" style="display: block;"><g transform="matrix(1.1562131643295288,-0.30980637669563293,0.30980637669563293,1.1562131643295288,94.32278442382812,-26.374805450439453)" opacity="1"><g opacity="1" transform="matrix(1,0,0,1,0,0)"><path stroke-linecap="butt" stroke-linejoin="miter" fill-opacity="0" stroke-miterlimit="10" stroke="rgb(0,0,0)" stroke-opacity="1" stroke-width="1.25" d=" M-65.44200134277344,27.700000762939453 C-65.44200134277344,27.700000762939453 -68.37999725341797,27.700000762939453 -68.37999725341797,27.700000762939453 C-68.39700317382812,27.700000762939453 -68.41000366210938,27.687000274658203 -68.41000366210938,27.670000076293945 C-68.41000366210938,27.670000076293945 -68.41000366210938,18.67300033569336 -68.41000366210938,18.67300033569336 C-68.41000366210938,18.6560001373291 -68.39700317382812,18.64299964904785 -68.37999725341797,18.64299964904785 C-68.37999725341797,18.64299964904785 -65.44200134277344,18.64299964904785 -65.44200134277344,18.64299964904785 C-65.42500305175781,18.64299964904785 -65.41200256347656,18.6560001373291 -65.41200256347656,18.67300033569336 C-65.41200256347656,18.67300033569336 -65.41200256347656,27.670000076293945 -65.41200256347656,27.670000076293945 C-65.41200256347656,27.687000274658203 -65.42500305175781,27.700000762939453 -65.44200134277344,27.700000762939453z"></path></g></g></g><g mask="url(#__lottie_element_59)" style="display: block;"><g transform="matrix(1.1562131643295288,0.30980637669563293,-0.30980637669563293,1.1562131643295288,132.21835327148438,15.087825775146484)" opacity="1"><g opacity="1" transform="matrix(1,0,0,1,0,0)"><path stroke-linecap="butt" stroke-linejoin="miter" fill-opacity="0" stroke-miterlimit="10" stroke="rgb(0,0,0)" stroke-opacity="1" stroke-width="1.25" d=" M-65.44200134277344,27.700000762939453 C-65.44200134277344,27.700000762939453 -68.37999725341797,27.700000762939453 -68.37999725341797,27.700000762939453 C-68.39700317382812,27.700000762939453 -68.41000366210938,27.687000274658203 -68.41000366210938,27.670000076293945 C-68.41000366210938,27.670000076293945 -68.41000366210938,18.67300033569336 -68.41000366210938,18.67300033569336 C-68.41000366210938,18.6560001373291 -68.39700317382812,18.64299964904785 -68.37999725341797,18.64299964904785 C-68.37999725341797,18.64299964904785 -65.44200134277344,18.64299964904785 -65.44200134277344,18.64299964904785 C-65.42500305175781,18.64299964904785 -65.41200256347656,18.6560001373291 -65.41200256347656,18.67300033569336 C-65.41200256347656,18.67300033569336 -65.41200256347656,27.670000076293945 -65.41200256347656,27.670000076293945 C-65.41200256347656,27.687000274658203 -65.42500305175781,27.700000762939453 -65.44200134277344,27.700000762939453z"></path></g></g></g><g transform="matrix(1.1969999074935913,0,0,1.1969999074935913,79.59075164794922,-129.3303680419922)" opacity="1" style="display: block;"><g opacity="1" transform="matrix(1,0,0,1,0,0)"><path stroke-linecap="butt" stroke-linejoin="miter" fill-opacity="0" stroke-miterlimit="10" stroke="rgb(0,0,0)" stroke-opacity="1" stroke-width="1.25" d=" M-40.893001556396484,124.12100219726562 C-40.893001556396484,124.11499786376953 -40.89099884033203,124.11000061035156 -40.89099884033203,124.10399627685547 C-45.292999267578125,125.88700103759766 -48.422000885009766,130.20599365234375 -48.422000885009766,135.2270050048828 C-48.422000885009766,135.2270050048828 -48.422000885009766,143.1479949951172 -48.422000885009766,143.1479949951172 C-48.422000885009766,143.1479949951172 -48.422000885009766,143.1479949951172 -48.422000885009766,143.1479949951172 C-48.422000885009766,143.1479949951172 -48.422000885009766,156.43099975585938 -48.422000885009766,156.43099975585938 C-48.422000885009766,157.56300354003906 -47.494998931884766,158.49000549316406 -46.362998962402344,158.49000549316406 C-46.362998962402344,158.49000549316406 -26.481000900268555,158.49000549316406 -26.481000900268555,158.49000549316406 C-25.349000930786133,158.49000549316406 -24.422000885009766,157.56300354003906 -24.422000885009766,156.43099975585938 C-24.422000885009766,156.43099975585938 -24.422000885009766,143.70599365234375 -24.422000885009766,143.70599365234375 C-24.422000885009766,143.70599365234375 -24.422000885009766,143.1479949951172 -24.422000885009766,143.1479949951172 C-24.422000885009766,143.1479949951172 -24.422000885009766,135.2270050048828 -24.422000885009766,135.2270050048828 C-24.422000885009766,130.20599365234375 -27.551000595092773,125.88700103759766 -31.95199966430664,124.10399627685547 C-31.95199966430664,124.11000061035156 -31.951000213623047,124.11499786376953 -31.951000213623047,124.12100219726562"></path></g><g opacity="1" transform="matrix(1,0,0,1,0,0)"><path stroke-linecap="butt" stroke-linejoin="miter" fill-opacity="0" stroke-miterlimit="10" stroke="rgb(0,0,0)" stroke-opacity="1" stroke-width="1.25" d=" M-31.95199966430664,124.10399627685547 C-31.961000442504883,121.64299774169922 -33.95800018310547,119.6500015258789 -36.422000885009766,119.6500015258789 C-38.8849983215332,119.6500015258789 -40.88199996948242,121.64299774169922 -40.89099884033203,124.10399627685547 C-39.50699996948242,123.54399871826172 -38.000999450683594,123.22699737548828 -36.422000885009766,123.22699737548828 C-34.84299850463867,123.22699737548828 -33.33599853515625,123.54299926757812 -31.95199966430664,124.10399627685547z"></path></g></g><g mask="url(#__lottie_element_50)" style="display: block;"><g transform="matrix(1.1969999074935913,0,0,1.1969999074935913,36,38.29949951171875)" opacity="1"><g opacity="1" transform="matrix(1,0,0,1,0,0)"><path fill="rgb(20,20,20)" fill-opacity="1" d=" M7.5,5.761000156402588 C7.5,5.761000156402588 -7.5,5.761000156402588 -7.5,5.761000156402588 C-7.84499979019165,5.761000156402588 -8.125,6.040999889373779 -8.125,6.386000156402588 C-8.125,6.386000156402588 -8.125,15.38599967956543 -8.125,15.38599967956543 C-8.125,15.730999946594238 -7.84499979019165,16.01099967956543 -7.5,16.01099967956543 C-7.5,16.01099967956543 7.5,16.01099967956543 7.5,16.01099967956543 C7.84499979019165,16.01099967956543 8.125,15.730999946594238 8.125,15.38599967956543 C8.125,15.38599967956543 8.125,6.386000156402588 8.125,6.386000156402588 C8.125,6.040999889373779 7.84499979019165,5.761000156402588 7.5,5.761000156402588z M6.875,7.011000156402588 C6.875,7.011000156402588 6.875,8.961999893188477 6.875,8.961999893188477 C6.875,8.961999893188477 -6.875,8.961999893188477 -6.875,8.961999893188477 C-6.875,8.961999893188477 -6.875,7.011000156402588 -6.875,7.011000156402588 C-6.875,7.011000156402588 6.875,7.011000156402588 6.875,7.011000156402588z M-6.875,14.76099967956543 C-6.875,14.76099967956543 -6.875,10.211999893188477 -6.875,10.211999893188477 C-6.875,10.211999893188477 4.243000030517578,10.211999893188477 4.243000030517578,10.211999893188477 C4.171000003814697,10.51099967956543 4.168000221252441,10.850000381469727 4.22599983215332,11.065999984741211 C4.341000080108643,11.496999740600586 4.783999919891357,11.751999855041504 5.215000152587891,11.63700008392334 C5.645999908447266,11.522000312805176 5.901000022888184,11.079000473022461 5.785999774932861,10.64799976348877 C5.751999855041504,10.519000053405762 5.672999858856201,10.36400032043457 5.572999954223633,10.211999893188477 C5.572999954223633,10.211999893188477 6.875,10.211999893188477 6.875,10.211999893188477 C6.875,10.211999893188477 6.875,14.76099967956543 6.875,14.76099967956543 C6.875,14.76099967956543 -6.875,14.76099967956543 -6.875,14.76099967956543z"></path></g><g opacity="1" transform="matrix(1,0,0,1,-0.0000015232471923809499,0.000002521790747778141)"><path fill="rgb(20,20,20)" fill-opacity="1" d=" M-0.44200000166893005,-0.6629999876022339 C-0.32499998807907104,-0.5460000038146973 -0.16599999368190765,-0.4790000021457672 0,-0.4790000021457672 C0.16599999368190765,-0.4790000021457672 0.32499998807907104,-0.5460000038146973 0.44200000166893005,-0.6629999876022339 C0.44200000166893005,-0.6629999876022339 4.684999942779541,-4.90500020980835 4.684999942779541,-4.90500020980835 C4.927999973297119,-5.14900016784668 4.927999973297119,-5.545000076293945 4.684999942779541,-5.789000034332275 C4.684999942779541,-5.789000034332275 0.44200000166893005,-10.031999588012695 0.44200000166893005,-10.031999588012695 C0.20800000429153442,-10.265000343322754 -0.2070000022649765,-10.265999794006348 -0.44200000166893005,-10.031999588012695 C-0.44200000166893005,-10.031999588012695 -4.684999942779541,-5.789000034332275 -4.684999942779541,-5.789000034332275 C-4.928999900817871,-5.545000076293945 -4.928999900817871,-5.14900016784668 -4.684999942779541,-4.90500020980835 C-4.684999942779541,-4.90500020980835 -0.44200000166893005,-0.6629999876022339 -0.44200000166893005,-0.6629999876022339z M0,-8.706000328063965 C0,-8.706000328063965 3.3580000400543213,-5.3470001220703125 3.3580000400543213,-5.3470001220703125 C3.3580000400543213,-5.3470001220703125 0,-1.9880000352859497 0,-1.9880000352859497 C0,-1.9880000352859497 -3.3589999675750732,-5.3470001220703125 -3.3589999675750732,-5.3470001220703125 C-3.3589999675750732,-5.3470001220703125 0,-8.706000328063965 0,-8.706000328063965z"></path></g></g></g><g mask="url(#__lottie_element_44)" style="display: block;"><g transform="matrix(1.1969999074935913,0,0,1.1969999074935913,36,38.29949951171875)" opacity="1"><g opacity="1" transform="matrix(1,0,0,1,0,0)"><path fill="rgb(20,20,20)" fill-opacity="1" d=" M-0.05700000002980232,-14.626999855041504 C-0.4020000100135803,-14.626999855041504 -0.6819999814033508,-14.347000122070312 -0.6819999814033508,-14.001999855041504 C-0.6819999814033508,-13.656999588012695 -0.4020000100135803,-13.376999855041504 -0.05700000002980232,-13.376999855041504 C4.835999965667725,-13.376999855041504 8.817000389099121,-9.395999908447266 8.817000389099121,-4.501999855041504 C8.817000389099121,-4.1570000648498535 9.097000122070312,-3.877000093460083 9.442000389099121,-3.877000093460083 C9.786999702453613,-3.877000093460083 10.067000389099121,-4.1570000648498535 10.067000389099121,-4.501999855041504 C10.067000389099121,-10.085000038146973 5.526000022888184,-14.626999855041504 -0.05700000002980232,-14.626999855041504z"></path></g></g></g><g transform="matrix(1.1969999074935913,0,0,1.1969999074935913,31.810100555419922,-192.92140197753906)" opacity="1" style="display: block;"><g opacity="1" transform="matrix(1,0,0,1,0,0)"><path stroke-linecap="butt" stroke-linejoin="miter" fill-opacity="0" stroke-miterlimit="10" stroke="rgb(0,0,0)" stroke-opacity="1" stroke-width="1.25" d=" M3.5329999923706055,176.38600158691406 C-3.066999912261963,176.38600158691406 -8.467000007629395,181.78599548339844 -8.467000007629395,188.38600158691406 C-8.467000007629395,188.38600158691406 -8.467000007629395,196.3070068359375 -8.467000007629395,196.3070068359375 C-8.467000007629395,196.3070068359375 -8.467000007629395,196.3070068359375 -8.467000007629395,196.3070068359375 C-8.467000007629395,196.3070068359375 -8.467000007629395,209.58999633789062 -8.467000007629395,209.58999633789062 C-8.467000007629395,210.7220001220703 -7.539999961853027,211.6479949951172 -6.4079999923706055,211.6479949951172 C-6.4079999923706055,211.6479949951172 13.473999977111816,211.6479949951172 13.473999977111816,211.6479949951172 C14.605999946594238,211.6479949951172 15.532999992370605,210.7220001220703 15.532999992370605,209.58999633789062 C15.532999992370605,209.58999633789062 15.532999992370605,196.86500549316406 15.532999992370605,196.86500549316406 C15.532999992370605,196.86500549316406 15.532999992370605,196.3070068359375 15.532999992370605,196.3070068359375 C15.532999992370605,196.3070068359375 15.532999992370605,188.38600158691406 15.532999992370605,188.38600158691406 C15.532999992370605,181.78599548339844 10.133000373840332,176.38600158691406 3.5329999923706055,176.38600158691406z"></path></g></g><g mask="url(#__lottie_element_34)" style="display: block;"><g transform="matrix(0.09974999725818634,0,0,0.09974999725818634,47.172000885009766,53.86050033569336)" opacity="1"><g opacity="1" transform="matrix(1,0,0,1,-112.64099884033203,-76.59400177001953)"><path stroke-linecap="butt" stroke-linejoin="miter" fill-opacity="0" stroke-miterlimit="4" stroke="rgb(0,0,0)" stroke-opacity="1" stroke-width="17" d=" M-132.53599548339844,-154.5780029296875 C-113.63200378417969,-201.00100708007812 -68.04000091552734,-233.76199340820312 -14.859000205993652,-233.76199340820312 C-14.8594970703125,-233.7624969482422 14.8594970703125,-233.7624969482422 14.8594970703125,-233.7624969482422 C84.95079803466797,-233.7624969482422 141.8594970703125,-176.85379028320312 141.8594970703125,-106.76249694824219 C141.8594970703125,-106.76249694824219 141.85899353027344,-106.76200103759766 141.85899353027344,-106.76200103759766 C141.85899353027344,-106.76200103759766 141.85899353027344,-43.25299835205078 141.85899353027344,14.493000030517578"></path></g></g></g><g mask="url(#__lottie_element_27)" style="display: block;"><g transform="matrix(-1.1969999074935913,0,0,1.1969999074935913,36,22.339500427246094)" opacity="1"><g opacity="1" transform="matrix(1,0,0,1,0,0)"><path fill="rgb(20,20,20)" fill-opacity="1" d=" M7.5,5.761000156402588 C7.5,5.761000156402588 -7.5,5.761000156402588 -7.5,5.761000156402588 C-7.84499979019165,5.761000156402588 -8.125,6.040999889373779 -8.125,6.386000156402588 C-8.125,6.386000156402588 -8.125,15.38599967956543 -8.125,15.38599967956543 C-8.125,15.730999946594238 -7.84499979019165,16.01099967956543 -7.5,16.01099967956543 C-7.5,16.01099967956543 7.5,16.01099967956543 7.5,16.01099967956543 C7.84499979019165,16.01099967956543 8.125,15.730999946594238 8.125,15.38599967956543 C8.125,15.38599967956543 8.125,6.386000156402588 8.125,6.386000156402588 C8.125,6.040999889373779 7.84499979019165,5.761000156402588 7.5,5.761000156402588z M6.875,7.011000156402588 C6.875,7.011000156402588 6.875,8.961999893188477 6.875,8.961999893188477 C6.875,8.961999893188477 -6.875,8.961999893188477 -6.875,8.961999893188477 C-6.875,8.961999893188477 -6.875,7.011000156402588 -6.875,7.011000156402588 C-6.875,7.011000156402588 6.875,7.011000156402588 6.875,7.011000156402588z M-6.875,14.76099967956543 C-6.875,14.76099967956543 -6.875,10.211999893188477 -6.875,10.211999893188477 C-6.875,10.211999893188477 4.243000030517578,10.211999893188477 4.243000030517578,10.211999893188477 C4.171000003814697,10.51099967956543 4.168000221252441,10.850000381469727 4.22599983215332,11.065999984741211 C4.341000080108643,11.496999740600586 4.783999919891357,11.751999855041504 5.215000152587891,11.63700008392334 C5.645999908447266,11.522000312805176 5.901000022888184,11.079000473022461 5.785999774932861,10.64799976348877 C5.751999855041504,10.519000053405762 5.672999858856201,10.36400032043457 5.572999954223633,10.211999893188477 C5.572999954223633,10.211999893188477 6.875,10.211999893188477 6.875,10.211999893188477 C6.875,10.211999893188477 6.875,14.76099967956543 6.875,14.76099967956543 C6.875,14.76099967956543 -6.875,14.76099967956543 -6.875,14.76099967956543z"></path></g><g opacity="1" transform="matrix(1,0,0,1,-0.0000015232471923809499,0.000002521790747778141)"><path fill="rgb(20,20,20)" fill-opacity="1" d="M0 0"></path></g></g></g></g></svg>