<svg xmlns="http://www.w3.org/2000/svg" viewBox="0 0 72 72" width="72" height="72" preserveAspectRatio="xMidYMid meet" style="width: 100%; height: 100%; transform: translate3d(0px, 0px, 0px);"><defs><clipPath id="__lottie_element_73"><rect width="72" height="72" x="0" y="0"></rect></clipPath><mask id="__lottie_element_82" mask-type="alpha"><g transform="matrix(0.04401668161153793,0,0,0.04306706041097641,29.411245346069336,23.037626266479492)" opacity="1" style="display: block;"><rect width="630" height="630" fill="#000000"></rect></g></mask><mask id="__lottie_element_88" mask-type="alpha"><g transform="matrix(0.04401668161153793,0,0,0.04306706041097641,29.411245346069336,23.037626266479492)" opacity="1" style="display: block;"><rect width="630" height="630" fill="#000000"></rect></g></mask></defs><g clip-path="url(#__lottie_element_73)"><g style="display: none;" transform="matrix(0.09974999725818634,0,0,0.09974999725818634,38.38874816894531,44.1348762512207)" opacity="1"><path fill="rgb(255,255,255)" fill-opacity="1" d=" M36.77,-42.38 C36.77,-42.38 36.77,-42.38 36.77,-42.38 C36.77,-42.01 36.47,-41.72 36.11,-41.72 C36.11,-41.72 34.35,-41.72 34.35,-41.72 C33.99,-41.72 33.69,-42.01 33.69,-42.38 C33.69,-42.38 33.69,-42.38 33.69,-42.38 C33.69,-42.74 33.99,-43.04 34.35,-43.04 C34.35,-43.04 36.11,-43.04 36.11,-43.04 C36.47,-43.04 36.77,-42.74 36.77,-42.38z"></path><g opacity="1" transform="matrix(1,0,0,1,35.22999954223633,-42.37699890136719)"><path stroke-linecap="butt" stroke-linejoin="miter" fill-opacity="0" stroke-miterlimit="4" stroke="rgb(0,0,0)" stroke-opacity="1" stroke-width="15" d=" M1.5397683382034302,0 C1.5397683382034302,0 1.5397683382034302,0 1.5397683382034302,0 C1.5397683382034302,0.363741397857666 1.2444385290145874,0.6590712070465088 0.8806971311569214,0.6590712070465088 C0.8806971311569214,0.6590712070465088 -0.8806971311569214,0.6590712070465088 -0.8806971311569214,0.6590712070465088 C-1.2444385290145874,0.6590712070465088 -1.5397683382034302,0.363741397857666 -1.5397683382034302,0 C-1.5397683382034302,0 -1.5397683382034302,0 -1.5397683382034302,0 C-1.5397683382034302,-0.363741397857666 -1.2444385290145874,-0.6590712070465088 -0.8806971311569214,-0.6590712070465088 C-0.8806971311569214,-0.6590712070465088 0.8806971311569214,-0.6590712070465088 0.8806971311569214,-0.6590712070465088 C1.2444385290145874,-0.6590712070465088 1.5397683382034302,-0.363741397857666 1.5397683382034302,0z"></path></g></g><g style="display: none;" transform="matrix(0.09974999725818634,0,0,0.09974999725818634,38.38874816894531,33.61125183105469)" opacity="1"><path fill="rgb(255,255,255)" fill-opacity="1" d=" M36.77,-42.38 C36.77,-42.38 36.77,-42.38 36.77,-42.38 C36.77,-42.01 36.47,-41.72 36.11,-41.72 C36.11,-41.72 34.35,-41.72 34.35,-41.72 C33.99,-41.72 33.69,-42.01 33.69,-42.38 C33.69,-42.38 33.69,-42.38 33.69,-42.38 C33.69,-42.74 33.99,-43.04 34.35,-43.04 C34.35,-43.04 36.11,-43.04 36.11,-43.04 C36.47,-43.04 36.77,-42.74 36.77,-42.38z"></path><g opacity="1" transform="matrix(1,0,0,1,35.22999954223633,-42.37699890136719)"><path stroke-linecap="butt" stroke-linejoin="miter" fill-opacity="0" stroke-miterlimit="4" stroke="rgb(0,0,0)" stroke-opacity="1" stroke-width="15" d=" M1.5397683382034302,0 C1.5397683382034302,0 1.5397683382034302,0 1.5397683382034302,0 C1.5397683382034302,0.363741397857666 1.2444385290145874,0.6590712070465088 0.8806971311569214,0.6590712070465088 C0.8806971311569214,0.6590712070465088 -0.8806971311569214,0.6590712070465088 -0.8806971311569214,0.6590712070465088 C-1.2444385290145874,0.6590712070465088 -1.5397683382034302,0.363741397857666 -1.5397683382034302,0 C-1.5397683382034302,0 -1.5397683382034302,0 -1.5397683382034302,0 C-1.5397683382034302,-0.363741397857666 -1.2444385290145874,-0.6590712070465088 -0.8806971311569214,-0.6590712070465088 C-0.8806971311569214,-0.6590712070465088 0.8806971311569214,-0.6590712070465088 0.8806971311569214,-0.6590712070465088 C1.2444385290145874,-0.6590712070465088 1.5397683382034302,-0.363741397857666 1.5397683382034302,0z"></path></g></g><g mask="url(#__lottie_element_88)" style="display: block;"><g transform="matrix(0.07470476627349854,0,0,0.07470476627349854,34.05790328979492,39.19176483154297)" opacity="1"><g opacity="1" transform="matrix(1,0,0,1,0,0)"><path fill="rgb(244,244,244)" fill-opacity="1" d=" M97.802001953125,-125.74600219726562 C97.802001953125,-125.74600219726562 72.39900207519531,1.2699999809265137 72.39900207519531,1.2699999809265137 C72.39900207519531,1.2699999809265137 106.69400024414062,-11.430999755859375 106.69400024414062,-11.430999755859375 C106.69400024414062,-11.430999755859375 121.93499755859375,39.375 121.93499755859375,39.375 C121.93499755859375,39.375 158.77000427246094,30.483999252319336 158.77000427246094,30.483999252319336 C158.77000427246094,30.483999252319336 144.79800415039062,-25.402999877929688 144.79800415039062,-25.402999877929688 C144.79800415039062,-25.402999877929688 180.36300659179688,-27.944000244140625 180.36300659179688,-27.944000244140625 C180.36300659179688,-27.944000244140625 97.802001953125,-125.74600219726562 97.802001953125,-125.74600219726562z"></path></g></g></g><g mask="url(#__lottie_element_82)" style="display: block;"><g transform="matrix(1.1969999074935913,0,0,1.1969999074935913,35.994651794433594,38.2413444519043)" opacity="1"><g opacity="1" transform="matrix(1,0,0,1,0,0)"><path fill="rgb(0,0,0)" fill-opacity="1" d=" M4.89300012588501,-7.580999851226807 C4.735000133514404,-7.763000011444092 4.486999988555908,-7.835999965667725 4.25600004196167,-7.7789998054504395 C4.014999866485596,-7.711999893188477 3.8429999351501465,-7.525000095367432 3.799999952316284,-7.284999847412109 C3.799999952316284,-7.284999847412109 2.308000087738037,0.9670000076293945 2.308000087738037,0.9670000076293945 C2.2750000953674316,1.1970000267028809 2.361999988555908,1.437999963760376 2.549999952316284,1.5800000429153442 C2.7279999256134033,1.722000002861023 2.9779999256134033,1.746000051498413 3.188999891281128,1.6480000019073486 C3.188999891281128,1.6480000019073486 4.627999782562256,0.9760000109672546 4.627999782562256,0.9760000109672546 C4.627999782562256,0.9760000109672546 5.343999862670898,3.7249999046325684 5.343999862670898,3.7249999046325684 C5.392000198364258,3.885999917984009 5.489999771118164,4.017000198364258 5.638999938964844,4.098999977111816 C5.728000164031982,4.159999847412109 5.8379998207092285,4.191999912261963 5.947999954223633,4.192999839782715 C5.998000144958496,4.193999767303467 6.058000087738037,4.184000015258789 6.118000030517578,4.164999961853027 C6.118000030517578,4.164999961853027 8.486000061035156,3.5239999294281006 8.486000061035156,3.5239999294281006 C8.647000312805176,3.4860000610351562 8.788000106811523,3.378000020980835 8.869999885559082,3.239000082015991 C8.95199966430664,3.0899999141693115 8.973999977111816,2.9200000762939453 8.925999641418457,2.759000062942505 C8.925999641418457,2.759000062942505 8.15999984741211,-0.009999999776482582 8.15999984741211,-0.009999999776482582 C8.15999984741211,-0.009999999776482582 9.991000175476074,-0.057999998331069946 9.991000175476074,-0.057999998331069946 C10.230999946594238,-0.06499999761581421 10.442000389099121,-0.20200000703334808 10.53499984741211,-0.4309999942779541 C10.637999534606934,-0.6499999761581421 10.60200023651123,-0.8999999761581421 10.444000244140625,-1.0820000171661377 C10.444000244140625,-1.0820000171661377 4.89300012588501,-7.580999851226807 4.89300012588501,-7.580999851226807z M7.335000038146973,-1.2309999465942383 C7.144999980926514,-1.2330000400543213 6.964000225067139,-1.1360000371932983 6.8520002365112305,-0.9769999980926514 C6.730000019073486,-0.8289999961853027 6.697000026702881,-0.6290000081062317 6.744999885559082,-0.4480000138282776 C6.744999885559082,-0.4480000138282776 7.559000015258789,2.4820001125335693 7.559000015258789,2.4820001125335693 C7.559000015258789,2.4820001125335693 6.394999980926514,2.7980000972747803 6.394999980926514,2.7980000972747803 C6.394999980926514,2.7980000972747803 5.651000022888184,-0.07100000232458115 5.651000022888184,-0.07100000232458115 C5.603000164031982,-0.25200000405311584 5.474999904632568,-0.39399999380111694 5.306000232696533,-0.47600001096725464 C5.2270002365112305,-0.5170000195503235 5.136000156402588,-0.5379999876022339 5.046000003814697,-0.5389999747276306 C4.955999851226807,-0.5400000214576721 4.867000102996826,-0.5210000276565552 4.776000022888184,-0.47200000286102295 C4.776000022888184,-0.47200000286102295 3.759999990463257,0.004999999888241291 3.759999990463257,0.004999999888241291 C3.759999990463257,0.004999999888241291 4.790999889373779,-5.763000011444092 4.790999889373779,-5.763000011444092 C4.790999889373779,-5.763000011444092 8.645999908447266,-1.274999976158142 8.645999908447266,-1.274999976158142 C8.645999908447266,-1.274999976158142 7.335000038146973,-1.2309999465942383 7.335000038146973,-1.2309999465942383z"></path></g></g></g><g transform="matrix(0.10269062221050262,0,0,0.07470476627349854,35.89500045776367,38.099998474121094)" opacity="1" style="display: block;"><g opacity="1" transform="matrix(1,0,0,1,18.003999710083008,139.7519989013672)"><path fill="rgb(244,244,244)" fill-opacity="1" d=" M174.4810028076172,-28.274999618530273 C174.4810028076172,-28.274999618530273 174.4810028076172,28.274999618530273 174.4810028076172,28.274999618530273 C174.4810028076172,28.274999618530273 -174.4810028076172,28.274999618530273 -174.4810028076172,28.274999618530273 C-174.4810028076172,28.274999618530273 -174.4810028076172,-28.274999618530273 -174.4810028076172,-28.274999618530273 C-174.4810028076172,-28.274999618530273 174.4810028076172,-28.274999618530273 174.4810028076172,-28.274999618530273z"></path></g></g><g transform="matrix(1.1969999074935913,0,0,1.1969999074935913,35.89500045776367,38.099998474121094)" opacity="1" style="display: block;"><g opacity="1" transform="matrix(1,0,0,1,0,0)"><path fill="rgb(0,0,0)" fill-opacity="1" d=" M31.5,0 C31.5,-0.0010000000474974513 31.5,-0.0010000000474974513 31.5,-0.0020000000949949026 C31.5,-0.0020000000949949026 31.5,0.0020000000949949026 31.5,0.0020000000949949026 C31.5,0.0010000000474974513 31.5,0.0010000000474974513 31.5,0z"></path></g><g opacity="1" transform="matrix(1,0,0,1,0,0)"><path fill="rgb(0,0,0)" fill-opacity="1" d=" M0,-31.5 C-0.17499999701976776,-31.5 -0.34700000286102295,-31.489999771118164 -0.5210000276565552,-31.48699951171875 C-0.5210000276565552,-31.48699951171875 0.5210000276565552,-31.48699951171875 0.5210000276565552,-31.48699951171875 C0.34700000286102295,-31.489999771118164 0.17499999701976776,-31.5 0,-31.5z"></path></g><g opacity="1" transform="matrix(1,0,0,1,0,0)"><path fill="rgb(0,0,0)" fill-opacity="1" d=" M-16.27199935913086,7.557000160217285 C-16.27199935913086,7.557000160217285 16.333999633789062,7.557000160217285 16.333999633789062,7.557000160217285 C16.673999786376953,7.557000160217285 16.95400047302246,7.275000095367432 16.95400047302246,6.934999942779541 C16.95400047302246,6.934999942779541 16.95400047302246,-12.78499984741211 16.95400047302246,-12.78499984741211 C16.95400047302246,-13.125 16.673999786376953,-13.404999732971191 16.333999633789062,-13.404999732971191 C16.333999633789062,-13.404999732971191 -16.27400016784668,-13.404999732971191 -16.27400016784668,-13.404999732971191 C-16.624000549316406,-13.404999732971191 -16.90399932861328,-13.125 -16.90399932861328,-12.78499984741211 C-16.90399932861328,-12.78499984741211 -16.902000427246094,6.936999797821045 -16.902000427246094,6.936999797821045 C-16.902000427246094,7.2769999504089355 -16.621999740600586,7.557000160217285 -16.27199935913086,7.557000160217285z M-15.652999877929688,-12.154999732971191 C-15.652999877929688,-12.154999732971191 15.704000473022461,-12.154999732971191 15.704000473022461,-12.154999732971191 C15.704000473022461,-12.154999732971191 15.704000473022461,6.304999828338623 15.704000473022461,6.304999828338623 C15.704000473022461,6.304999828338623 -15.652999877929688,6.304999828338623 -15.652999877929688,6.304999828338623 C-15.652999877929688,6.304999828338623 -15.652999877929688,-12.154999732971191 -15.652999877929688,-12.154999732971191z"></path></g><g opacity="1" transform="matrix(1,0,0,1,0,0)"><path fill="rgb(0,0,0)" fill-opacity="1" d=" M15.10099983215332,8.12600040435791 C14.770999908447266,8.12600040435791 14.50100040435791,8.38599967956543 14.50100040435791,8.72599983215332 C14.50100040435791,9.055999755859375 14.770999908447266,9.315999984741211 15.10099983215332,9.315999984741211 C15.430999755859375,9.315999984741211 15.701000213623047,9.055999755859375 15.701000213623047,8.72599983215332 C15.701000213623047,8.38599967956543 15.430999755859375,8.12600040435791 15.10099983215332,8.12600040435791z"></path></g><g opacity="1" transform="matrix(1,0,0,1,0,0)"><path fill="rgb(0,0,0)" fill-opacity="1" d=" M12.651000022888184,8.12600040435791 C12.321000099182129,8.12600040435791 12.050999641418457,8.38599967956543 12.050999641418457,8.72599983215332 C12.050999641418457,9.055999755859375 12.321000099182129,9.315999984741211 12.651000022888184,9.315999984741211 C12.980999946594238,9.315999984741211 13.25100040435791,9.055999755859375 13.25100040435791,8.72599983215332 C13.25100040435791,8.38599967956543 12.980999946594238,8.12600040435791 12.651000022888184,8.12600040435791z"></path></g><g opacity="1" transform="matrix(1,0,0,1,0,0)"><path fill="rgb(0,0,0)" fill-opacity="1" d=" M-16.062000274658203,11.13700008392334 C-16.062000274658203,11.13700008392334 -3.319999933242798,11.135000228881836 -3.319999933242798,11.135000228881836 C-3.319999933242798,11.135000228881836 -3.319999933242798,14.585000038146973 -3.319999933242798,14.585000038146973 C-3.319999933242798,14.585000038146973 -8.25,14.585000038146973 -8.25,14.585000038146973 C-8.59000015258789,14.585000038146973 -8.869999885559082,14.864999771118164 -8.869999885559082,15.204999923706055 C-8.869999885559082,15.555000305175781 -8.59000015258789,15.835000038146973 -8.25,15.835000038146973 C-8.25,15.835000038146973 8.270000457763672,15.835000038146973 8.270000457763672,15.835000038146973 C8.619999885559082,15.835000038146973 8.899999618530273,15.555000305175781 8.899999618530273,15.204999923706055 C8.899999618530273,14.864999771118164 8.619999885559082,14.585000038146973 8.270000457763672,14.585000038146973 C8.270000457763672,14.585000038146973 3.5199999809265137,14.585000038146973 3.5199999809265137,14.585000038146973 C3.5199999809265137,14.585000038146973 3.5199999809265137,11.135000228881836 3.5199999809265137,11.135000228881836 C3.5199999809265137,11.135000228881836 16.06399917602539,11.135000228881836 16.06399917602539,11.135000228881836 C17.95400047302246,11.135000228881836 19.493999481201172,9.654999732971191 19.5,7.8520002365112305 C19.5,7.8520002365112305 19.5,-12.517999649047852 19.5,-12.517999649047852 C19.493999481201172,-14.354999542236328 17.95400047302246,-15.835000038146973 16.06399917602539,-15.835000038146973 C16.06399917602539,-15.835000038146973 -16.06399917602539,-15.835000038146973 -16.06399917602539,-15.835000038146973 C-17.95400047302246,-15.835000038146973 -19.493999481201172,-14.354999542236328 -19.499000549316406,-12.53499984741211 C-19.499000549316406,-12.53499984741211 -19.496999740600586,7.836999893188477 -19.496999740600586,7.836999893188477 C-19.492000579833984,9.656999588012695 -17.95199966430664,11.13700008392334 -16.062000274658203,11.13700008392334z M2.2699999809265137,14.585000038146973 C2.2699999809265137,14.585000038146973 -2.069999933242798,14.585000038146973 -2.069999933242798,14.585000038146973 C-2.069999933242798,14.585000038146973 -2.069999933242798,11.135000228881836 -2.069999933242798,11.135000228881836 C-2.069999933242798,11.135000228881836 2.2699999809265137,11.135000228881836 2.2699999809265137,11.135000228881836 C2.2699999809265137,11.135000228881836 2.2699999809265137,14.585000038146973 2.2699999809265137,14.585000038146973z M-16.06399917602539,-14.585000038146973 C-16.06399917602539,-14.585000038146973 16.06399917602539,-14.585000038146973 16.06399917602539,-14.585000038146973 C17.263999938964844,-14.585000038146973 18.243999481201172,-13.664999961853027 18.243999481201172,-12.53499984741211 C18.243999481201172,-12.53499984741211 18.243999481201172,7.835000038146973 18.243999481201172,7.835000038146973 C18.243999481201172,8.96500015258789 17.263999938964844,9.885000228881836 16.06399917602539,9.885000228881836 C16.06399917602539,9.885000228881836 -16.062000274658203,9.88700008392334 -16.062000274658203,9.88700008392334 C-17.261999130249023,9.88700008392334 -18.242000579833984,8.967000007629395 -18.242000579833984,7.836999893188477 C-18.242000579833984,7.836999893188477 -18.243999481201172,-12.53499984741211 -18.243999481201172,-12.53499984741211 C-18.243999481201172,-13.664999961853027 -17.263999938964844,-14.585000038146973 -16.06399917602539,-14.585000038146973z"></path></g><g opacity="1" transform="matrix(1,0,0,1,0,0)"><path fill="rgb(0,0,0)" fill-opacity="1" d=" M-13.774999618530273,-5.267000198364258 C-13.614999771118164,-5.267000198364258 -13.454999923706055,-5.327000141143799 -13.335000038146973,-5.447000026702881 C-13.335000038146973,-5.447000026702881 -8.944999694824219,-9.836999893188477 -8.944999694824219,-9.836999893188477 C-8.694999694824219,-10.086999893188477 -8.694999694824219,-10.47700023651123 -8.944999694824219,-10.717000007629395 C-9.1850004196167,-10.967000007629395 -9.585000038146973,-10.967000007629395 -9.824999809265137,-10.717000007629395 C-9.824999809265137,-10.717000007629395 -14.21500015258789,-6.336999893188477 -14.21500015258789,-6.336999893188477 C-14.46500015258789,-6.086999893188477 -14.46500015258789,-5.697000026702881 -14.21500015258789,-5.447000026702881 C-14.095000267028809,-5.327000141143799 -13.9350004196167,-5.267000198364258 -13.774999618530273,-5.267000198364258z"></path></g><g opacity="1" transform="matrix(1,0,0,1,0,0)"><path fill="rgb(0,0,0)" fill-opacity="1" d=" M-6.275000095367432,-10.723999977111816 C-6.275000095367432,-10.723999977111816 -14.225000381469727,-2.813999891281128 -14.225000381469727,-2.813999891281128 C-14.475000381469727,-2.563999891281128 -14.475000381469727,-2.1740000247955322 -14.225000381469727,-1.9240000247955322 C-14.104999542236328,-1.8040000200271606 -13.944999694824219,-1.74399995803833 -13.78499984741211,-1.74399995803833 C-13.625,-1.74399995803833 -13.46500015258789,-1.8040000200271606 -13.345000267028809,-1.9240000247955322 C-13.345000267028809,-1.9240000247955322 -5.394999980926514,-9.833999633789062 -5.394999980926514,-9.833999633789062 C-5.15500020980835,-10.074000358581543 -5.15500020980835,-10.473999977111816 -5.394999980926514,-10.723999977111816 C-5.635000228881836,-10.96399974822998 -6.034999847412109,-10.96399974822998 -6.275000095367432,-10.723999977111816z"></path></g></g></g></svg>