<svg xmlns="http://www.w3.org/2000/svg" viewBox="0 0 72 72" width="72" height="72" preserveAspectRatio="xMidYMid meet" style="width: 100%; height: 100%; transform: translate3d(0px, 0px, 0px);"><defs><clipPath id="__lottie_element_17"><rect width="72" height="72" x="0" y="0"></rect></clipPath></defs><g clip-path="url(#__lottie_element_17)"><g transform="matrix(1.1969999074935913,0,0,1.1969999074935913,36,35.58000183105469)" opacity="1" style="display: block;"><g opacity="1" transform="matrix(1,0,0,1,0,0)"><path fill="rgb(0,0,0)" fill-opacity="1" d=" M18.875,13.458000183105469 C18.875,13.458000183105469 15.812999725341797,13.458000183105469 15.812999725341797,13.458000183105469 C15.812999725341797,13.458000183105469 15.812999725341797,-6.756999969482422 15.812999725341797,-6.756999969482422 C15.812999725341797,-7.1020002365112305 15.532999992370605,-7.381999969482422 15.187999725341797,-7.381999969482422 C15.187999725341797,-7.381999969482422 7.53000020980835,-7.381999969482422 7.53000020980835,-7.381999969482422 C7.184999942779541,-7.381999969482422 6.90500020980835,-7.1020002365112305 6.90500020980835,-6.756999969482422 C6.90500020980835,-6.756999969482422 6.90500020980835,13.397000312805176 6.90500020980835,13.397000312805176 C6.90500020980835,13.397000312805176 4.439000129699707,13.397000312805176 4.439000129699707,13.397000312805176 C4.439000129699707,13.397000312805176 4.439000129699707,0.5199999809265137 4.439000129699707,0.5199999809265137 C4.439000129699707,0.17499999701976776 4.158999919891357,-0.10499999672174454 3.813999891281128,-0.10499999672174454 C3.813999891281128,-0.10499999672174454 -3.8440001010894775,-0.10499999672174454 -3.8440001010894775,-0.10499999672174454 C-4.189000129699707,-0.10499999672174454 -4.468999862670898,0.17499999701976776 -4.468999862670898,0.5199999809265137 C-4.468999862670898,0.5199999809265137 -4.468999862670898,13.397000312805176 -4.468999862670898,13.397000312805176 C-4.468999862670898,13.397000312805176 -6.935999870300293,13.397000312805176 -6.935999870300293,13.397000312805176 C-6.935999870300293,13.397000312805176 -6.935999870300293,8.017999649047852 -6.935999870300293,8.017999649047852 C-6.935999870300293,7.672999858856201 -7.216000080108643,7.39300012588501 -7.560999870300293,7.39300012588501 C-7.560999870300293,7.39300012588501 -15.218999862670898,7.39300012588501 -15.218999862670898,7.39300012588501 C-15.564000129699707,7.39300012588501 -15.843999862670898,7.672999858856201 -15.843999862670898,8.017999649047852 C-15.843999862670898,8.017999649047852 -15.843999862670898,13.458000183105469 -15.843999862670898,13.458000183105469 C-15.843999862670898,13.458000183105469 -18.25,13.458000183105469 -18.25,13.458000183105469 C-18.25,13.458000183105469 -18.25,-16.347999572753906 -18.25,-16.347999572753906 C-18.25,-16.69300079345703 -18.530000686645508,-16.972999572753906 -18.875,-16.972999572753906 C-19.219999313354492,-16.972999572753906 -19.5,-16.69300079345703 -19.499000549316406,-16.347999572753906 C-19.499000549316406,-16.347999572753906 -19.499000549316406,14.083000183105469 -19.499000549316406,14.083000183105469 C-19.5,14.428000450134277 -19.219999313354492,14.708000183105469 -18.875,14.708000183105469 C-18.875,14.708000183105469 -15.843999862670898,14.708000183105469 -15.843999862670898,14.708000183105469 C-15.843999862670898,14.708000183105469 -15.843999862670898,16.347999572753906 -15.843999862670898,16.347999572753906 C-15.843999862670898,16.69300079345703 -15.564000129699707,16.972999572753906 -15.218999862670898,16.972999572753906 C-15.218999862670898,16.972999572753906 -7.560999870300293,16.972999572753906 -7.560999870300293,16.972999572753906 C-7.216000080108643,16.972999572753906 -6.935999870300293,16.69300079345703 -6.935999870300293,16.347999572753906 C-6.935999870300293,16.347999572753906 -6.935999870300293,14.647000312805176 -6.935999870300293,14.647000312805176 C-6.935999870300293,14.647000312805176 -4.468999862670898,14.647000312805176 -4.468999862670898,14.647000312805176 C-4.468999862670898,14.647000312805176 -4.468999862670898,16.347999572753906 -4.468999862670898,16.347999572753906 C-4.468999862670898,16.69300079345703 -4.189000129699707,16.972999572753906 -3.8440001010894775,16.972999572753906 C-3.8440001010894775,16.972999572753906 3.813999891281128,16.972999572753906 3.813999891281128,16.972999572753906 C4.158999919891357,16.972999572753906 4.439000129699707,16.69300079345703 4.439000129699707,16.347999572753906 C4.439000129699707,16.347999572753906 4.439000129699707,14.647000312805176 4.439000129699707,14.647000312805176 C4.439000129699707,14.647000312805176 6.90500020980835,14.647000312805176 6.90500020980835,14.647000312805176 C6.90500020980835,14.647000312805176 6.90500020980835,16.347999572753906 6.90500020980835,16.347999572753906 C6.90500020980835,16.69300079345703 7.184999942779541,16.972999572753906 7.53000020980835,16.972999572753906 C7.53000020980835,16.972999572753906 15.187999725341797,16.972999572753906 15.187999725341797,16.972999572753906 C15.532999992370605,16.972999572753906 15.812999725341797,16.69300079345703 15.812999725341797,16.347999572753906 C15.812999725341797,16.347999572753906 15.812999725341797,14.708000183105469 15.812999725341797,14.708000183105469 C15.812999725341797,14.708000183105469 18.875,14.708000183105469 18.875,14.708000183105469 C19.219999313354492,14.708000183105469 19.5,14.428000450134277 19.5,14.083000183105469 C19.5,13.73799991607666 19.219999313354492,13.458000183105469 18.875,13.458000183105469z M-8.185999870300293,15.722999572753906 C-8.185999870300293,15.722999572753906 -14.574999809265137,15.722999572753906 -14.574999809265137,15.722999572753906 C-14.574999809265137,15.722999572753906 -14.574999809265137,8.642999649047852 -14.574999809265137,8.642999649047852 C-14.574999809265137,8.642999649047852 -8.185999870300293,8.642999649047852 -8.185999870300293,8.642999649047852 C-8.185999870300293,8.642999649047852 -8.185999870300293,15.722999572753906 -8.185999870300293,15.722999572753906z M3.188999891281128,15.722999572753906 C3.188999891281128,15.722999572753906 -3.2060000896453857,15.722999572753906 -3.2060000896453857,15.722999572753906 C-3.2060000896453857,15.722999572753906 -3.2060000896453857,1.1449999809265137 -3.2060000896453857,1.1449999809265137 C-3.2060000896453857,1.1449999809265137 3.188999891281128,1.1449999809265137 3.188999891281128,1.1449999809265137 C3.188999891281128,1.1449999809265137 3.188999891281128,15.722999572753906 3.188999891281128,15.722999572753906z M14.543999671936035,15.722999572753906 C14.543999671936035,15.722999572753906 8.154999732971191,15.722999572753906 8.154999732971191,15.722999572753906 C8.154999732971191,15.722999572753906 8.154999732971191,-6.131999969482422 8.154999732971191,-6.131999969482422 C8.154999732971191,-6.131999969482422 14.543999671936035,-6.131999969482422 14.543999671936035,-6.131999969482422 C14.543999671936035,-6.131999969482422 14.543999671936035,15.722999572753906 14.543999671936035,15.722999572753906z"></path></g></g></g></svg>