<svg id="Layer_1" xmlns="http://www.w3.org/2000/svg" viewBox="0 0 72 44.1"><style>.st0{fill:#687680}</style><title id="fdic_title">FDIC Logo</title><desc id="fdic_desc">Capital One is a Member FDIC</desc><path class="st0" d="M27 16.1h-9.8v28h8.1c10 0 16.3-4.6 16.3-14-.1-8.6-5.8-14-14.6-14zm-2.1 21.6V22.6c.6 0 1.1-.1 1.4-.1 4.3 0 7.4 2.4 7.4 7.4.1 5.8-3.8 7.8-8.8 7.8zM66 22.1c2.2 0 3.9.8 6 2.1v-7.4c-2-.8-3.8-1.3-6.3-1.3-8.2 0-14.8 6.2-14.8 14.4s6.5 14.2 14.6 14.2c2.9 0 4.9-.6 6.4-1.8v-7.2c-2.3 1.4-3.9 2-6 2-4.1 0-7.3-3-7.3-7.4s3.3-7.6 7.4-7.6zM8 7.5L5.5 0H0v1.4c1.5 0 1.8 0 1.8 1.3V9c0 1.2 0 1.5-1.8 1.5v1.3h5.5v-1.3c-1.6-.1-1.8-.3-1.8-1.3V2.5L7 11.8h1.4l3.5-9.3V9c0 1.4 0 1.4-1.9 1.5v1.3h6.3v-1.3c-1.8 0-1.9-.2-1.9-1.2V2.8c0-1.1.2-1.4 1.9-1.4V0h-5.4L8 7.5zM31.5 10.5c-1.2-.1-1.2-.2-1.2-1.9V7.2c0-1.4.6-2.5 1.9-2.5 1 0 1.3.7 1.3 1.6v3c0 1-.1 1.2-1.3 1.2v1.3h4.5v-1.3c-1.1 0-1.2-.1-1.2-1.1V7.3c0-1.4.7-2.7 2-2.7 1 0 1.2.6 1.2 1.8v3.1c0 .9 0 1-1.2 1v1.3h5v-1.3c-1.5 0-1.6.1-1.6-.8V6.3c0-1.9-.5-3.1-2.4-3.1-1.2 0-1.9.5-2.9 1.5-.5-.9-1.2-1.5-2.4-1.5-1.3 0-2.1.7-2.9 1.6V3.4h-3.8v1.2c1.5 0 1.7.1 1.7 1.3v2.8c0 1.8 0 1.8-1.7 1.8v1.3h5v-1.3zM.2 44.1h7.7L8 33.4h7.5v-6.5H8v-4.3h8.1v-6.5H.2zM44.6 2.7v9.2h1.1l.7-1c.8.8 1.5 1.2 2.6 1.2 2.3 0 3.7-1.8 3.7-4.5 0-2.5-1.4-4.4-3.4-4.4-1 0-1.6.3-2.5 1.1V0h-3.6v1.2c1.3 0 1.4.2 1.4 1.5zm4 2c1 0 1.7 1 1.7 2.9 0 2.1-.8 3.1-1.8 3.1-1.2 0-1.8-1.2-1.8-2.9 0-2.1.6-3.1 1.9-3.1zM69.1 10.5c-1.5 0-1.7.1-1.7-1.2V7.5c0-1.7.6-3.2 2.1-3.2.1 0 .2 0 .5.1-.5.3-.9.6-.9 1.2 0 .7.5 1.1 1.2 1.1.8 0 1.4-.6 1.4-1.5 0-1.1-.8-1.9-1.9-1.9-.9 0-1.6.5-2.4 1.4V3.5h-3.8v1.2c1.3 0 1.7 0 1.7 1.1v3.5c0 1.2 0 1.3-1.7 1.3v1.3h5.5v-1.4zM58.6 12.1c2 0 3.5-1.2 3.7-3.3h-1.5c-.2 1.1-.8 1.8-2 1.8-1.4 0-2.1-1.1-2.1-2.8h5.7c0-2.8-1.5-4.6-3.9-4.6s-4.1 1.9-4.1 4.5c-.1 2.9 1.7 4.4 4.2 4.4zm-.2-7.6c1.1 0 1.6.7 1.6 2h-3.2c-.1-1.3.6-2 1.6-2zM21.5 12.1c2 0 3.4-1.2 3.7-3.3h-1.5c-.2 1.1-.8 1.8-2 1.8-1.4 0-2.2-1.1-2.2-2.8h5.7c0-2.8-1.5-4.6-3.9-4.6s-4.1 1.9-4.1 4.5c0 2.9 1.9 4.4 4.3 4.4zm-.2-7.6c1 0 1.5.6 1.5 2h-3.2c.1-1.3.7-2 1.7-2zM42.3 16.1H50v28h-7.7z"/></svg>