<?xml version="1.0" encoding="UTF-8" standalone="no"?>
<svg xmlns="http://www.w3.org/2000/svg" viewBox="0 0 96.98 191.98">
  <defs>
    <style>
      .cls-1 {
        fill-rule: evenodd;
      }

      .cls-1, .cls-2 {
        fill: #121212;
      }
    </style>
  </defs>
  <g data-name="Layer 2" id="Layer_2">
    <path class="cls-2" d="M26.94,48.4h14.36c1.98,0,3.59,1.62,3.59,3.59s-1.62,3.59-3.59,3.59h-14.36c-1.98,0-3.59-1.62-3.59-3.59s1.62-3.59,3.59-3.59Z"/>
    <path class="cls-1" d="M19.76,12.49h57.45c5.96,0,10.77,4.81,10.77,10.77v35.91c0,5.96-4.81,10.77-10.77,10.77H19.76c-5.96,0-10.77-4.81-10.77-10.77V23.26c0-5.96,4.81-10.77,10.77-10.77ZM77.22,19.67H19.76c-1.97,0-3.59,1.62-3.59,3.59v3.59h64.64v-3.59c0-1.98-1.62-3.59-3.59-3.59ZM19.76,62.76h57.45c1.97,0,3.59-1.62,3.59-3.59v-17.95H16.17v17.95c0,1.97,1.62,3.59,3.59,3.59Z"/>
  </g>
  <g data-name="Layer 2 copy" id="Layer_2_copy">
    <path class="cls-2" d="M26.94,144.4h14.36c1.98,0,3.59,1.62,3.59,3.59s-1.62,3.59-3.59,3.59h-14.36c-1.98,0-3.59-1.62-3.59-3.59s1.62-3.59,3.59-3.59Z"/>
    <path class="cls-1" d="M19.76,108.49h57.45c5.96,0,10.77,4.81,10.77,10.77v35.91c0,5.96-4.81,10.77-10.77,10.77H19.76c-5.96,0-10.77-4.81-10.77-10.77v-35.91c0-5.96,4.81-10.77,10.77-10.77ZM77.22,115.67H19.76c-1.97,0-3.59,1.62-3.59,3.59v3.59h64.64v-3.59c0-1.98-1.62-3.59-3.59-3.59ZM19.76,158.76h57.45c1.97,0,3.59-1.62,3.59-3.59v-17.95H16.17v17.95c0,1.97,1.62,3.59,3.59,3.59Z"/>
  </g>
</svg>
