<?xml version="1.0" encoding="UTF-8" standalone="no"?>
<svg xmlns="http://www.w3.org/2000/svg" fill="none" height="48" viewBox="0 0 40 48" width="40">
<path d="M23.895 23.6761C25.1479 23.6506 26.2388 22.6449 26.2303 21.3239C26.0598 18.0256 21.432 18.358 21.4916 21.6051C21.4916 21.6818 21.449 22.6108 21.432 22.6108H18.5428C18.5428 22.6108 18.4831 21.6818 18.4831 21.6051C18.5428 18.358 13.9149 18.0256 13.7445 21.3239C13.7445 22.6449 14.8269 23.6506 16.0797 23.6761H17.5115L18.1337 32.608H14.6053C14.8013 34.2017 14.7587 35.0028 14.7331 36.5795V37.2699C14.6308 38.6761 15.5854 39.9545 16.932 40.2188C16.9405 40.2614 16.9575 40.3125 16.9746 40.3551C17.1621 40.9347 17.4178 41.5142 17.8524 41.8466C17.9462 41.9233 18.0399 41.9659 18.1422 41.983C18.1593 41.9915 18.1763 41.9915 18.1933 41.9915C18.2104 42 18.2274 42 18.253 42H21.7218C21.7218 42 21.7644 42 21.7814 41.9915C21.7985 41.9915 21.8155 41.9915 21.8325 41.983C21.9348 41.9659 22.0286 41.9233 22.1223 41.8466C22.557 41.5142 22.8127 40.9347 23.0002 40.3551C23.0172 40.3125 23.0343 40.2614 23.0428 40.2188C24.3894 39.9545 25.3439 38.6761 25.2416 37.2699V36.5795C25.2161 35.0028 25.1649 34.2017 25.3695 32.608H21.8411L22.4632 23.6761H23.895ZM22.6166 21.3068C22.6337 20.8551 22.8723 20.4545 23.2388 20.233C23.2899 20.1989 23.3411 20.1733 23.4007 20.1477C25.3013 19.5256 25.8808 22.4744 23.895 22.6108H22.6166V21.3068ZM17.3666 22.6023H16.0882C14.1024 22.4659 14.682 19.517 16.5825 20.1392C16.6422 20.1648 16.6933 20.1903 16.7445 20.2244C17.111 20.446 17.3496 20.8466 17.3666 21.2983V22.6023ZM21.3638 23.6761L20.7502 32.608H19.2246L18.611 23.6761H21.3638ZM24.1678 33.6989C24.1678 34.3722 24.1763 37.5256 24.1678 37.5256C24.1763 38.3267 23.5541 39.0767 22.7615 39.2045C22.5144 39.2386 22.2587 39.2472 22.1223 39.4943C21.9604 39.9716 21.9007 40.5256 21.5513 40.9176H18.3979C18.0485 40.5256 17.9888 39.9716 17.8269 39.4943C17.6905 39.2472 17.4348 39.2386 17.1877 39.2045C16.395 39.0767 15.7729 38.3267 15.7814 37.5256C15.7814 37.5256 15.7814 34.3722 15.7814 33.6989H24.1422H24.1678ZM11.2899 11.983C8.59675 16.2017 9.93482 21.5795 12.8666 25.304C14.128 26.7784 14.9547 28.4403 15.4149 30.2642C15.5002 30.5966 15.253 30.9119 14.9121 30.9119H14.9036C14.6649 30.9119 14.4519 30.75 14.4007 30.5114C14.1621 29.4375 13.7615 28.4062 13.1223 27.4602C12.9093 27.179 12.7132 26.8381 12.4746 26.5653C11.1024 24.9205 8.51152 20.3608 8.75868 17.2926C8.65641 10.9602 14.1195 6.05114 20.0002 6C25.8808 6.05114 31.3439 10.9602 31.2416 17.2926C31.4888 20.3608 28.8979 24.9205 27.5257 26.5653C27.2871 26.8381 27.0911 27.179 26.878 27.4602C26.2303 28.4062 25.8382 29.4375 25.5996 30.5114C25.5485 30.7415 25.3354 30.9119 25.0968 30.9119H25.0882C24.7473 30.9119 24.5002 30.5881 24.5854 30.2642C25.0541 28.4403 25.8723 26.7784 27.1337 25.304C30.0655 21.5795 31.4036 16.2017 28.7104 11.983C26.6905 8.625 23.3325 7.03977 20.0087 7.05682C16.6763 7.03977 13.3269 8.63352 11.307 11.983H11.2899Z" fill="black"/>
</svg>
