<svg width="66" height="30" viewBox="0 0 66 30" fill="none" xmlns="http://www.w3.org/2000/svg">
<path d="M1.22168 7.6658C1.22168 8.33802 1.77168 8.88802 2.4439 8.88802C3.11612 8.88802 3.66612 8.33802 3.66612 7.6658V5.20913C3.66612 4.53691 4.2039 3.99913 4.87612 3.99913H7.33279C8.00501 3.99913 8.55501 3.44913 8.55501 2.77691C8.55501 2.10469 8.00501 1.55469 7.33279 1.55469H4.87612C2.85946 1.55469 1.22168 3.19247 1.22168 5.20913V7.6658Z" fill="#0070A8"/>
<path d="M21.9995 28.4436H24.4561C26.4728 28.4436 28.1106 26.8058 28.1106 24.7891V22.3325C28.1106 21.6602 27.5606 21.1102 26.8883 21.1102C26.2161 21.1102 25.6661 21.6602 25.6661 22.3325V24.7891C25.6661 25.4614 25.1161 25.9991 24.4561 25.9991H21.9995C21.3272 25.9991 20.7772 26.5491 20.7772 27.2214C20.7772 27.8936 21.3272 28.4436 21.9995 28.4436Z" fill="#0070A8"/>
<path d="M26.8883 8.88802C26.2161 8.88802 25.6661 8.33802 25.6661 7.6658V5.20913C25.6661 4.53691 25.1283 3.99913 24.4561 3.99913H21.9995C21.3272 3.99913 20.7772 3.44913 20.7772 2.77691C20.7772 2.10469 21.3272 1.55469 21.9995 1.55469H24.4561C26.4728 1.55469 28.1106 3.19247 28.1106 5.20913V7.6658C28.1106 8.33802 27.5606 8.88802 26.8883 8.88802Z" fill="#0070A8"/>
<path d="M4.87612 28.4436H7.33279C8.00501 28.4436 8.55501 27.8936 8.55501 27.2214C8.55501 26.5491 8.00501 25.9991 7.33279 25.9991H4.87612C4.2039 25.9991 3.66612 25.4614 3.66612 24.7891V22.3325C3.66612 21.6602 3.11612 21.1102 2.4439 21.1102C1.77168 21.1102 1.22168 21.6602 1.22168 22.3325V24.7891C1.22168 26.8058 2.85946 28.4436 4.87612 28.4436Z" fill="#0070A8"/>
<path d="M8.55501 13.7769C7.88279 13.7769 7.33279 13.2269 7.33279 12.5547V10.1102C7.33279 9.43802 7.88279 8.88802 8.55501 8.88802C9.22724 8.88802 9.77724 9.43802 9.77724 10.1102V12.5547C9.77724 13.2269 9.22724 13.7769 8.55501 13.7769Z" fill="#0070A8"/>
<path d="M19.555 12.5547C19.555 13.2269 20.105 13.7769 20.7772 13.7769C21.4495 13.7769 21.9995 13.2269 21.9995 12.5547V10.1102C21.9995 9.43802 21.4495 8.88802 20.7772 8.88802C20.105 8.88802 19.555 9.43802 19.555 10.1102V12.5547Z" fill="#0070A8"/>
<path d="M15.2772 8.88802C14.605 8.88802 14.055 9.43802 14.055 10.1102V13.7891C14.055 14.9991 13.6395 14.9991 13.4439 14.9991C12.7717 14.9991 12.2217 15.5491 12.2217 16.2214C12.2217 16.8936 12.7717 17.4436 13.4439 17.4436C14.9228 17.4436 16.4995 16.4902 16.4995 13.7891V10.1102C16.4995 9.43802 15.9495 8.88802 15.2772 8.88802Z" fill="#0070A8"/>
<path d="M10.0216 21.2326C10.156 21.4037 11.4027 22.9437 14.666 22.9437C17.9293 22.9437 19.176 21.4037 19.2982 21.2326C19.6893 20.7071 19.5916 19.9859 19.0782 19.5704C18.5771 19.1548 17.8193 19.2404 17.3793 19.7293C17.3549 19.7659 16.6705 20.4993 14.666 20.4993C12.7105 20.4993 12.0138 19.8026 11.9527 19.7293C11.5371 19.2159 10.7916 19.1182 10.266 19.5215C9.72823 19.9248 9.61823 20.6948 10.0216 21.2326Z" fill="#0070A8"/>
<path d="M43.9592 5.38072C48.2614 2.76517 53.9936 2.77739 58.2836 5.42961C58.4303 5.52739 58.6014 5.56406 58.7603 5.56406C59.0658 5.56406 59.3714 5.40517 59.5425 5.13628C59.8114 4.7085 59.677 4.14628 59.2492 3.87739C54.3847 0.870722 47.8947 0.846278 43.0181 3.81628C42.5903 4.08517 42.4436 4.64739 42.7125 5.07517C42.9692 5.50295 43.5314 5.63739 43.9592 5.38072Z" fill="#0070A8"/>
<path d="M56.5725 22.9807C53.8958 22.2107 51.8914 19.8274 51.8914 17.4441C51.8914 16.943 51.4758 16.5274 50.9747 16.5274C50.4736 16.5274 50.0581 16.943 50.0581 17.4441C50.0581 20.6219 52.6369 23.7507 56.0714 24.7407C56.1569 24.7652 56.2425 24.7774 56.3281 24.7774C56.7314 24.7774 57.0981 24.5207 57.2081 24.1174C57.3303 23.6285 57.0614 23.1152 56.5725 22.9807Z" fill="#0070A8"/>
<path d="M44.3992 17.4441C44.3992 13.3619 47.0392 10.7219 51.1214 10.7219C54.5192 10.7219 57.3914 13.2641 57.7947 16.6374C57.8558 17.1385 58.3081 17.5052 58.8092 17.4441C59.3103 17.383 59.677 16.9307 59.6159 16.4296C59.1025 12.1274 55.4481 8.88852 51.1214 8.88852C46.0858 8.88852 42.5658 12.4085 42.5658 17.4441C42.5658 22.5896 45.6825 26.6963 45.817 26.8674C46.0003 27.0996 46.2692 27.2219 46.5503 27.2219C46.7458 27.2219 46.9414 27.1607 47.1125 27.0263C47.5158 26.7207 47.5892 26.1463 47.2836 25.743C47.2347 25.7063 44.3992 21.9663 44.3992 17.4441Z" fill="#0070A8"/>
<path d="M51.1214 5.22186C46.3914 5.22186 41.8936 7.9963 40.1947 11.9685C38.9358 14.9019 38.7647 18.4463 39.7303 21.6852C39.8769 22.1741 40.378 22.4552 40.8669 22.3085C41.3558 22.1619 41.6247 21.6607 41.4903 21.1719C41.0992 19.8274 40.3414 16.3196 41.8936 12.7019C43.3114 9.38964 47.1125 7.06741 51.1336 7.06741C56.9881 7.06741 61.5225 11.993 61.5225 16.2341C61.5225 18.1163 60.4714 19.2896 58.7725 19.2896C56.8536 19.2896 56.3647 18.263 55.6681 16.4419C54.9836 14.7063 54.1525 12.5552 51.1214 12.5552C48.2858 12.5552 46.2325 14.6085 46.2325 17.4441C46.2325 25.1319 53.2114 28.2363 53.5047 28.3707C53.627 28.4196 53.7492 28.4441 53.8714 28.4441C54.2258 28.4441 54.5681 28.2363 54.7147 27.8941C54.9225 27.4296 54.7025 26.8919 54.238 26.6841C53.9814 26.5741 48.0658 23.9096 48.0658 17.4441C48.0658 15.6474 49.3247 14.3885 51.1214 14.3885C52.8203 14.3885 53.2603 15.3174 53.9447 17.0896C54.6047 18.7885 55.497 21.1107 58.7603 21.1107C61.4614 21.1107 63.3436 19.0941 63.3436 16.2219C63.3436 11.0274 58.1125 5.22186 51.1214 5.22186Z" fill="#0070A8"/>
</svg>
