<?xml version="1.0" encoding="UTF-8" standalone="no"?>
<svg xmlns="http://www.w3.org/2000/svg" fill="none" height="31" viewBox="0 0 35 31" width="35">
<path clip-rule="evenodd" d="M21.5686 3.08058C21.5703 3.04442 21.572 3.00907 21.5662 2.97291C21.5645 2.96407 21.567 2.95603 21.5653 2.94639L21.1548 1.19862C21.0896 0.922995 20.8054 0.751834 20.5262 0.815317C20.2437 0.877995 20.0669 1.15121 20.1314 1.42603L20.2627 1.98291C19.3929 1.55942 18.4322 1.31996 17.4509 1.31996C16.026 1.31996 14.6308 1.79567 13.5198 2.66032C13.2943 2.8355 13.2571 3.15692 13.4388 3.3771C13.6181 3.59648 13.9493 3.63264 14.1757 3.45666C15.7269 2.24808 17.9019 2.05603 19.6696 2.84433L19.1153 2.96728C18.8328 3.02996 18.6561 3.30317 18.7205 3.5788C18.7767 3.81505 18.9914 3.97496 19.231 3.97496C19.2706 3.97496 19.3095 3.97094 19.3483 3.9621L21.1697 3.55791H21.1713C21.1961 3.55228 21.2151 3.53701 21.2382 3.52817C21.2605 3.52014 21.282 3.5113 21.3035 3.49925C21.3118 3.49523 21.3233 3.49282 21.3316 3.48719C21.3407 3.48237 21.3514 3.48076 21.3605 3.47433C21.3811 3.45987 21.3944 3.43737 21.4134 3.41969C21.4183 3.41487 21.4241 3.40925 21.429 3.40362C21.4398 3.39317 21.4538 3.38835 21.4637 3.3771C21.4687 3.37067 21.4695 3.36344 21.4745 3.35621C21.4984 3.32407 21.5141 3.28871 21.5298 3.25174C21.5406 3.22523 21.5538 3.20112 21.5604 3.1738C21.5629 3.16496 21.5686 3.15853 21.5703 3.14969C21.5744 3.12719 21.5678 3.10308 21.5686 3.08058ZM21.4637 27.6233C21.2812 27.4023 20.9508 27.3685 20.7253 27.5437C19.7885 28.2742 18.6561 28.6599 17.4509 28.6599C16.662 28.6599 15.9103 28.4783 15.2181 28.1584L15.7864 28.0323C16.0689 27.9704 16.2457 27.6964 16.1813 27.4216C16.1177 27.1476 15.8376 26.9748 15.5535 27.0375L13.7313 27.4417H13.7304C13.7015 27.4489 13.6792 27.4658 13.6528 27.4762C13.6272 27.4867 13.6016 27.4947 13.5784 27.5092C13.5669 27.5156 13.552 27.518 13.5413 27.5252C13.5371 27.5276 13.5355 27.5325 13.5322 27.5349C13.5115 27.5501 13.4967 27.5718 13.4785 27.5903C13.4661 27.6032 13.4496 27.6088 13.4388 27.6233C13.4339 27.6289 13.4331 27.6369 13.4281 27.6425C13.4215 27.6522 13.4099 27.6586 13.4041 27.6683C13.4025 27.6707 13.4025 27.6731 13.4008 27.6755C13.3868 27.6988 13.3818 27.7253 13.3711 27.7502C13.3604 27.7751 13.348 27.7992 13.3414 27.8258C13.3397 27.8346 13.3331 27.8418 13.3315 27.8507C13.3273 27.8732 13.3339 27.8973 13.3331 27.9214C13.3315 27.9567 13.3298 27.9913 13.3364 28.0267C13.3372 28.0363 13.3348 28.0443 13.3364 28.0532L13.7478 29.8017C13.8039 30.038 14.0195 30.1979 14.2591 30.1979C14.2971 30.1979 14.3376 30.1939 14.3764 30.1851C14.6589 30.1224 14.8348 29.8484 14.7712 29.5735L14.6399 29.0175C15.5097 29.4401 16.4704 29.6804 17.4509 29.6804C18.8758 29.6804 20.2718 29.2047 21.3811 28.34C21.6075 28.1641 21.6446 27.8426 21.4637 27.6233ZM33.3718 15.4998C33.3718 10.6615 29.3259 6.72478 24.3516 6.72478C19.3772 6.72478 15.3305 10.6615 15.3305 15.4998C15.3305 20.3389 19.3772 24.2756 24.3516 24.2756C29.3259 24.2756 33.3718 20.3389 33.3718 15.4998ZM4.23931 21.6656C5.03148 21.3369 5.84347 21.075 6.67115 20.8733C5.86907 19.3537 5.42632 17.712 5.35033 16.01H1.65548C1.786 18.2086 2.74254 20.1934 4.23931 21.6656ZM1.65548 14.9895H5.35033C5.42632 13.2972 5.86329 11.6627 6.65794 10.1504C5.82777 9.94791 5.01413 9.68433 4.22114 9.35407C2.73511 10.8238 1.78517 12.8006 1.65548 14.9895ZM16.2903 9.6546C15.7418 9.85148 15.1859 10.0178 14.6217 10.1552C14.8414 10.5747 15.0306 11.0038 15.1983 11.4417C15.4973 10.8061 15.8649 10.2091 16.2903 9.6546ZM16.32 21.3835C15.8814 20.8194 15.5039 20.2087 15.1983 19.5586C15.0281 20.0046 14.8357 20.4425 14.6101 20.8692C15.1884 21.0091 15.7583 21.181 16.32 21.3835ZM12.1378 24.1478C13.6148 23.9108 14.9926 23.3234 16.1755 22.425C15.4882 22.167 14.7886 21.9476 14.0732 21.7893C13.5355 22.6275 12.8854 23.415 12.1378 24.1478ZM7.21303 21.7925C6.50347 21.9492 5.80877 22.167 5.12647 22.4234C6.273 23.2912 7.63844 23.8931 9.12943 24.1406C8.38352 23.4101 7.74747 22.6218 7.21303 21.7925ZM8.33478 21.5973C8.83949 22.3237 9.43836 23.0108 10.1248 23.6512V21.435C9.52509 21.4542 8.9287 21.5105 8.33478 21.5973ZM6.39939 16.01C6.47951 17.6373 6.93796 19.2042 7.7483 20.6499C8.5289 20.5141 9.32106 20.4321 10.1248 20.408V16.01H6.39939ZM7.73343 10.3754C6.93218 11.8138 6.47951 13.3719 6.39939 14.9895H10.1248V10.6189C9.31611 10.5948 8.51899 10.5128 7.73343 10.3754ZM9.12943 6.85898C7.62852 7.10808 6.25401 7.71639 5.10252 8.59389C5.78812 8.85264 6.48529 9.07282 7.19899 9.23112C7.73591 8.39299 8.37691 7.59666 9.12943 6.85898ZM8.31661 9.42719C8.91631 9.51558 9.51931 9.57264 10.1248 9.59273V7.34916C9.43093 7.99683 8.82462 8.69112 8.31661 9.42719ZM14.0873 9.23433C14.8059 9.07442 15.5097 8.85344 16.1994 8.59228C15.0116 7.68425 13.6239 7.09041 12.1378 6.85255C12.8928 7.59183 13.547 8.38817 14.0873 9.23433ZM12.9672 9.4288C12.46 8.69273 11.8628 7.99603 11.1739 7.35076V9.59273C11.7752 9.57264 12.3724 9.51639 12.9672 9.4288ZM14.3086 14.9895C14.3442 14.3217 14.4474 13.6733 14.6143 13.0465C14.3863 12.12 14.0328 11.2256 13.5603 10.3762C12.7764 10.5128 11.9809 10.5948 11.1739 10.6189V14.9895H14.3086ZM13.5454 20.6491C14.0245 19.7917 14.3846 18.8892 14.6143 17.9531C14.4474 17.3271 14.3442 16.6778 14.3086 16.01H11.1739V20.408C11.9759 20.4321 12.7664 20.5133 13.5454 20.6491ZM11.1739 23.6488C11.8553 23.0116 12.4459 22.3221 12.9498 21.5957C12.3609 21.5097 11.7686 21.4542 11.1739 21.435V23.6488ZM34.4209 15.4998C34.4209 20.9014 29.9041 25.2961 24.3516 25.2961C21.7058 25.2961 19.302 24.29 17.5029 22.6604C15.6344 24.3575 13.2249 25.2961 10.6493 25.2961C5.09673 25.2961 0.579163 20.9014 0.579163 15.4998C0.579163 10.0982 5.09673 5.70425 10.6493 5.70425C13.2249 5.70425 15.6336 6.64282 17.5029 8.33916C19.302 6.71032 21.7058 5.70425 24.3516 5.70425C29.9041 5.70425 34.4209 10.0982 34.4209 15.4998ZM26.7107 16.9679C26.6454 15.4845 25.3345 15.1382 24.5523 14.9317H24.5506C23.5528 14.6681 23.1992 14.4784 23.1992 13.9352C23.1992 13.3711 23.6841 12.9645 24.4152 12.9774C24.8397 12.9774 25.0388 13.1196 25.3676 13.3534L25.5278 13.4667C25.7657 13.6307 26.092 13.5768 26.2597 13.347C26.4265 13.1172 26.372 12.799 26.1358 12.6359L25.9879 12.5306C25.7112 12.3337 25.4047 12.1184 24.9587 12.0171V11.1123C24.9587 10.8302 24.7233 10.602 24.4342 10.602C24.145 10.602 23.9096 10.8302 23.9096 11.1123V12.005C22.8787 12.1955 22.1502 12.9605 22.1502 13.9352C22.1502 15.3551 23.4809 15.7063 24.2756 15.916H24.2772C25.2313 16.1684 25.6344 16.3765 25.6633 17.0113C25.6724 17.2315 25.7013 17.9025 24.3582 18.0391C23.8287 18.0937 23.4586 17.9732 23.0043 17.7474C22.7441 17.6196 22.4294 17.72 22.298 17.9708C22.1667 18.2215 22.2691 18.5284 22.5268 18.6562C22.9192 18.8507 23.3611 19.0186 23.9096 19.0564V19.8881C23.9096 20.1693 24.145 20.3976 24.4342 20.3976C24.7233 20.3976 24.9587 20.1693 24.9587 19.8881V18.9736C26.1085 18.7149 26.7553 17.9892 26.7107 16.9679ZM31.5273 14.116C31.296 14.116 31.0854 13.9674 31.0218 13.7408C30.3808 11.4538 28.5222 9.64335 26.1721 9.01496C25.8938 8.94023 25.7285 8.65978 25.8054 8.38737C25.883 8.11657 26.1713 7.95826 26.4505 8.03139C29.1566 8.7546 31.2952 10.8391 32.0328 13.4724C32.1088 13.744 31.9444 14.0244 31.6652 14.0984C31.619 14.1112 31.5727 14.116 31.5273 14.116Z" fill="#141414" fill-rule="evenodd"/>
</svg>
