<?xml version="1.0" encoding="UTF-8" standalone="no"?>
<svg xmlns="http://www.w3.org/2000/svg" fill="none" height="48" viewBox="0 0 40 48" width="40">
<path d="M27.9318 20.6639C29.7775 20.6639 31.2725 19.1597 31.2725 17.3233C31.2725 15.4868 29.7683 13.9826 27.9318 13.9826C26.0954 13.9826 24.5911 15.4868 24.5911 17.3233C24.5911 19.1597 26.0954 20.6639 27.9318 20.6639ZM27.9318 15.1269C29.1407 15.1269 30.1282 16.1143 30.1282 17.3233C30.1282 18.5322 29.1407 19.5196 27.9318 19.5196C26.7229 19.5196 25.7355 18.5322 25.7355 17.3233C25.7355 16.1143 26.7229 15.1269 27.9318 15.1269ZM30.9772 29.0802V24.909C30.9772 24.6045 30.7649 24.3276 30.4604 24.2999C30.119 24.263 29.8236 24.5399 29.8236 24.8721V29.0802C29.8236 29.4032 30.082 29.6524 30.3958 29.6524C30.7188 29.6524 30.968 29.394 30.9772 29.0802ZM32.7214 29.6616C33.0444 29.6616 33.2935 29.4032 33.2935 29.0895V24.1984C33.2935 22.7496 32.3061 21.4668 30.848 21.0054L30.4419 20.8762C30.2666 20.8208 30.082 20.8577 29.9344 20.9685C29.353 21.4022 28.6793 21.6237 27.9964 21.6237H27.8211C27.1105 21.6237 26.4276 21.3838 25.8278 20.9223C25.6709 20.8024 25.4678 20.7747 25.2833 20.83C25.1633 20.867 24.9234 20.95 21.7949 23.7462L20.2077 22.1682C19.857 21.8175 19.3863 21.6421 18.888 21.6883C18.3989 21.7252 17.9559 21.9836 17.6606 22.3804C17.19 23.0356 17.2823 23.9769 17.8821 24.5768L20.1984 26.8839C21.0382 27.7237 22.5332 27.6867 23.2992 26.9208L24.4712 25.9426V29.0895C24.4712 29.4125 24.7296 29.6616 25.0433 29.6616C25.3663 29.6616 25.6155 29.4032 25.6155 29.0895V24.7244C25.6155 24.5122 25.514 24.3092 25.3294 24.1984C25.1172 24.0784 24.8495 24.0969 24.665 24.2538L22.5055 26.0625C22.0903 26.4778 21.4166 26.4778 21.0013 26.0625L18.685 23.7554C18.4912 23.5617 18.445 23.2479 18.5835 23.0541C18.7127 22.8787 18.8788 22.8418 18.9618 22.8326C19.1095 22.8142 19.2664 22.8787 19.3679 22.9803L21.3428 24.9367C21.555 25.1489 21.9057 25.1582 22.1364 24.9551C23.4468 23.7831 24.9049 22.5096 25.4402 22.0667C26.1507 22.5188 26.9628 22.7588 27.7842 22.7588H27.9595C28.7993 22.7588 29.6114 22.5096 30.3404 22.0482L30.4604 22.0851C31.4571 22.3989 32.1031 23.2202 32.1031 24.18V29.071C32.1031 29.394 32.3615 29.6432 32.6752 29.6432L32.7214 29.6616ZM34.807 9.38684H5.16538C3.42122 9.38684 1.99082 10.7526 2.00004 12.4322V31.2304C2.00004 32.91 3.43044 34.2758 5.17461 34.2758H16.8947V37.4596H12.382C12.0682 37.4596 11.8098 37.718 11.8098 38.0318C11.8098 38.3455 12.0682 38.6132 12.382 38.6132H27.6273C27.9503 38.6132 28.2087 38.3548 28.2087 38.0318C28.2087 37.7088 27.9503 37.4596 27.6273 37.4596H23.0961V34.2758H34.8254C36.5696 34.2758 38 32.9192 38 31.2397V12.4414C38 10.7619 36.5696 9.38684 34.8254 9.38684H34.807ZM21.9334 37.4596H18.039V34.2758H21.9334V37.4596ZM36.8188 31.2304C36.8188 32.2733 35.9144 33.1223 34.807 33.1223H5.16538C4.05798 33.1223 3.15359 32.2733 3.15359 31.2304V12.4322C3.15359 11.3894 4.05798 10.5404 5.16538 10.5404H34.8162C35.9236 10.5404 36.828 11.3894 36.828 12.4322V31.2304H36.8188ZM35.0561 11.6293H4.97159C4.64859 11.6293 4.3902 11.8877 4.3902 12.2015V31.3966C4.3902 31.7103 4.64859 31.9687 4.97159 31.9687H35.0654C35.3791 31.9687 35.6375 31.7103 35.6375 31.3966V12.2015C35.6375 11.8877 35.3791 11.6293 35.0654 11.6293H35.0561ZM34.4748 30.8152H5.54375V12.7829H34.484V30.8152H34.4748ZM6.6973 22.8511V14.5455C6.6973 14.2225 6.95569 13.9734 7.26946 13.9734H21.112C21.4258 13.9734 21.6842 14.2317 21.6842 14.5455V19.6396C21.6842 19.9626 21.4258 20.2117 21.112 20.2117C20.7983 20.2117 20.5399 19.9534 20.5399 19.6396V15.1177H7.85084V22.2697H14.9659C15.2889 22.2697 15.5381 22.5281 15.5381 22.8418C15.5381 23.1556 15.2797 23.414 14.9659 23.414H7.27868C6.95569 23.414 6.70652 23.1556 6.70652 22.8418L6.6973 22.8511Z" fill="black"/>
</svg>
