<?xml version="1.0" encoding="UTF-8" standalone="no"?>
<svg xmlns="http://www.w3.org/2000/svg" fill="none" height="48" viewBox="0 0 40 48" width="40">
<path d="M36.3643 37.3667H35.2014C35.2475 37.2191 35.2752 37.0622 35.2752 36.896V35.4747C35.2752 34.5886 34.5553 33.8687 33.6692 33.8687H32.9124V32.1705C32.9124 31.8567 32.654 31.6075 32.3494 31.6075H27.2362C26.9224 31.6075 26.6732 31.8567 26.6732 32.1705V33.8687H13.2257V32.1705C13.2257 31.8567 12.9673 31.6075 12.6627 31.6075H7.54951C7.2357 31.6075 6.98651 31.8567 6.98651 32.1705V33.8687H6.29429C5.40825 33.8687 4.68834 34.5886 4.68834 35.4747V36.896C4.68834 37.0622 4.71603 37.2191 4.76218 37.3667H3.59925C2.71321 37.3667 1.9933 38.0867 2.00253 38.9727V40.3941C2.00253 41.2801 2.72244 42 3.59925 42H36.392C37.278 42 37.9979 41.2801 37.9979 40.3941V38.9727C37.9979 38.0867 37.278 37.3667 36.392 37.3667H36.3643ZM27.7992 32.7427H31.7772V33.8687H27.7992V32.7427ZM8.10328 32.7427H12.0812V33.8687H8.10328V32.7427ZM5.80512 35.4655C5.80512 35.207 6.0174 34.9947 6.27583 34.9947H33.6692C33.9277 34.9947 34.1399 35.207 34.1399 35.4655V36.8868C34.1399 37.136 33.9461 37.3391 33.6969 37.3575H6.24814C5.99894 37.3483 5.80512 37.136 5.80512 36.8868V35.4655ZM36.835 40.3941C36.835 40.6525 36.6227 40.8648 36.3643 40.8648H3.57156C3.31313 40.8648 3.10085 40.6525 3.10085 40.3941V38.9727C3.10085 38.7143 3.31313 38.502 3.57156 38.502H36.3643C36.6227 38.502 36.835 38.7143 36.835 38.9727V40.3941ZM35.0998 14.4405L20.2494 6.06922C20.0833 5.97693 19.871 5.97693 19.7049 6.06922L4.8637 14.4405C4.53144 14.625 4.3653 14.9942 4.4576 15.3634C4.54989 15.7326 4.88216 15.9818 5.2698 15.9818H6.97728V17.68C6.97728 17.9938 7.2357 18.243 7.54028 18.243H12.6535C12.9673 18.243 13.2165 17.9938 13.2165 17.68V15.9818H26.664V17.68C26.664 17.9938 26.9224 18.243 27.227 18.243H32.3402C32.654 18.243 32.9032 17.9938 32.9032 17.68V15.9818H34.6845C35.0721 15.9818 35.4044 15.7234 35.4967 15.3634C35.589 14.9942 35.4321 14.625 35.0906 14.4405H35.0998ZM12.0812 17.1078H8.10328V15.9818H12.0812V17.1078ZM31.7772 17.1078H27.7992V15.9818H31.7772V17.1078ZM6.46965 14.8466L19.9725 7.21369L33.8631 14.8466H6.46965ZM11.8966 20.089C12.2105 20.089 12.4597 20.3382 12.4597 20.652V29.1986C12.4597 29.5124 12.2105 29.7616 11.8966 29.7616C11.5828 29.7616 11.3336 29.5124 11.3336 29.1986V20.652C11.3336 20.3382 11.5828 20.089 11.8966 20.089ZM31.5926 20.089C31.9064 20.089 32.1556 20.3382 32.1556 20.652V29.1986C32.1556 29.5124 31.9064 29.7616 31.5926 29.7616C31.2788 29.7616 31.0296 29.5124 31.0296 29.1986V20.652C31.0296 20.3382 31.2788 20.089 31.5926 20.089ZM27.5316 29.1986V20.652C27.5316 20.3382 27.7808 20.089 28.0946 20.089C28.4084 20.089 28.6576 20.3382 28.6576 20.652V29.1986C28.6576 29.5124 28.4084 29.7616 28.0946 29.7616C27.7808 29.7616 27.5316 29.5124 27.5316 29.1986ZM8.97087 20.652V29.1986C8.97087 29.5124 8.72167 29.7616 8.40786 29.7616C8.09406 29.7616 7.84486 29.5124 7.84486 29.1986V20.652C7.84486 20.3382 8.09406 20.089 8.40786 20.089C8.72167 20.089 8.97087 20.3382 8.97087 20.652Z" fill="black"/>
</svg>
