<?xml version="1.0" encoding="UTF-8" standalone="no"?>
<svg xmlns="http://www.w3.org/2000/svg" fill="none" height="48" viewBox="0 0 50 40" width="60">
<g clip-path="url(#clip0_1_56)">
<path d="M37.8241 18.6516L30.8113 10.4203C30.7103 10.3116 30.5824 10.2313 30.4405 10.1877C30.2987 10.144 30.1478 10.1385 30.0031 10.1716C29.8567 10.2107 29.7247 10.2914 29.6231 10.4039C29.5216 10.5165 29.4549 10.6561 29.4312 10.8058L27.5412 21.2254C27.521 21.3699 27.5391 21.5171 27.5936 21.6524C27.6482 21.7877 27.7373 21.9063 27.852 21.9963C27.9646 22.086 28.1004 22.1418 28.2435 22.1573C28.3866 22.1727 28.5312 22.147 28.6603 22.0834L30.4756 21.2379L31.3833 24.7069C31.4112 24.8064 31.4586 24.8993 31.5226 24.9804C31.5866 25.0615 31.666 25.1291 31.7563 25.1794C31.8726 25.2519 32.005 25.2946 32.1418 25.3038H32.3531L35.3497 24.4955C35.5525 24.4438 35.7267 24.3142 35.8346 24.135C35.9387 23.9496 35.9655 23.7307 35.9092 23.5257L34.9394 20.0318L37.3018 19.895C37.4495 19.8913 37.5928 19.8447 37.7143 19.7608C37.8357 19.6768 37.9301 19.5593 37.9857 19.4225C38.0349 19.2919 38.0458 19.1501 38.0171 19.0135C37.9885 18.877 37.9215 18.7514 37.8241 18.6516V18.6516ZM33.8949 18.4651C33.7754 18.4613 33.6569 18.4878 33.5503 18.5421C33.4438 18.5965 33.3528 18.6769 33.2857 18.7759C33.2135 18.8702 33.1637 18.9796 33.14 19.0959C33.1163 19.2122 33.1193 19.3324 33.1489 19.4474L34.1809 23.1775L32.7137 23.5754L31.7687 19.895C31.7348 19.7848 31.6787 19.6828 31.6038 19.5951C31.529 19.5075 31.437 19.436 31.3336 19.3852C31.2331 19.3355 31.1224 19.31 31.0103 19.3106C30.8885 19.3081 30.7684 19.3381 30.6621 19.3976L29.4187 19.9945L30.7243 12.7082L35.586 18.378L33.8949 18.4651ZM45.2596 3.07186H4.07834C3.97442 3.07021 3.87122 3.08925 3.77474 3.12788C3.67827 3.16651 3.59044 3.22395 3.51638 3.29685C3.44231 3.36975 3.3835 3.45667 3.34336 3.55253C3.30322 3.64838 3.28255 3.75127 3.28256 3.8552V28.7231C3.28255 28.827 3.30322 28.9299 3.34336 29.0258C3.3835 29.1216 3.44231 29.2085 3.51638 29.2814C3.59044 29.3543 3.67827 29.4118 3.77474 29.4504C3.87122 29.489 3.97442 29.5081 4.07834 29.5064H45.2596C45.4673 29.5064 45.6666 29.4239 45.8135 29.277C45.9604 29.1301 46.0429 28.9308 46.0429 28.7231V3.8552C46.0429 3.64744 45.9604 3.4482 45.8135 3.30129C45.6666 3.15439 45.4673 3.07186 45.2596 3.07186V3.07186ZM44.4638 27.9397H4.86167V4.65097H44.4638V27.9397ZM44.4638 30.9985C44.4638 31.0975 44.4441 31.1956 44.4058 31.2869C44.3676 31.3782 44.3115 31.461 44.2409 31.5305C44.1703 31.5999 44.0866 31.6546 43.9946 31.6914C43.9027 31.7281 43.8043 31.7462 43.7053 31.7445C43.6063 31.7462 43.508 31.7281 43.416 31.6914C43.3241 31.6546 43.2403 31.5999 43.1697 31.5305C43.0992 31.461 43.0431 31.3782 43.0048 31.2869C42.9665 31.1956 42.9468 31.0975 42.9469 30.9985C42.9469 30.7973 43.0268 30.6044 43.169 30.4622C43.3113 30.3199 43.5042 30.24 43.7053 30.24C43.8127 30.2393 43.919 30.2614 44.0172 30.3049C44.1154 30.3483 44.2032 30.4121 44.2749 30.492C44.3466 30.5719 44.4005 30.6662 44.4331 30.7685C44.4657 30.8708 44.4761 30.9789 44.4638 31.0855V30.9985ZM41.3678 30.9985C41.3678 31.0975 41.3481 31.1956 41.3098 31.2869C41.2715 31.3782 41.2155 31.461 41.1449 31.5305C41.0743 31.5999 40.9905 31.6546 40.8986 31.6914C40.8066 31.7281 40.7083 31.7462 40.6093 31.7445C40.5103 31.7462 40.4119 31.7281 40.32 31.6914C40.228 31.6546 40.1443 31.5999 40.0737 31.5305C40.0031 31.461 39.947 31.3782 39.9088 31.2869C39.8705 31.1956 39.8508 31.0975 39.8508 30.9985C39.8508 30.7973 39.9307 30.6044 40.073 30.4622C40.2152 30.3199 40.4081 30.24 40.6093 30.24C40.7166 30.2393 40.8229 30.2614 40.9211 30.3049C41.0193 30.3483 41.1072 30.4121 41.1789 30.492C41.2506 30.5719 41.3045 30.6662 41.3371 30.7685C41.3696 30.8708 41.3801 30.9789 41.3678 31.0855V30.9985ZM44.9239 0.000673578H4.33945C3.21251 -0.0193452 2.12347 0.407551 1.31034 1.18806C0.497211 1.96858 0.0261106 3.03924 0 4.16605L0 29.9043C0.0261106 31.0311 0.497211 32.1018 1.31034 32.8823C2.12347 33.6628 3.21251 34.0897 4.33945 34.0697H20.5036V38.4216H14.2866C14.0943 38.4458 13.9174 38.5393 13.7891 38.6847C13.6609 38.8301 13.5901 39.0173 13.5901 39.2111C13.5901 39.405 13.6609 39.5922 13.7891 39.7376C13.9174 39.8829 14.0943 39.9765 14.2866 40.0007H35.0762C35.1882 40.0148 35.3019 40.0049 35.4098 39.9716C35.5176 39.9384 35.6172 39.8826 35.7019 39.8079C35.7865 39.7332 35.8543 39.6414 35.9008 39.5385C35.9472 39.4356 35.9712 39.324 35.9712 39.2111C35.9712 39.0982 35.9472 38.9866 35.9008 38.8838C35.8543 38.7809 35.7865 38.689 35.7019 38.6144C35.6172 38.5397 35.5176 38.4839 35.4098 38.4506C35.3019 38.4174 35.1882 38.4075 35.0762 38.4216H29.0706V34.0697H44.9239C46.0478 34.0865 47.1331 33.6602 47.9452 32.8831C48.7572 32.1059 49.2308 31.0403 49.2633 29.9167V4.19091C49.2404 3.06082 48.7712 1.98572 47.958 1.20056C47.1449 0.415397 46.0541 -0.0159872 44.9239 0.000673578V0.000673578ZM27.5163 38.4216H22.0454V34.0697H27.5163V38.4216ZM47.6966 29.9043C47.6739 30.6112 47.3719 31.2803 46.8569 31.7651C46.3419 32.2498 45.6557 32.5107 44.9487 32.4906H4.33945C3.63246 32.5107 2.94632 32.2498 2.43128 31.7651C1.91624 31.2803 1.61429 30.6112 1.59155 29.9043V4.16605C1.61429 3.45914 1.91624 2.79005 2.43128 2.30531C2.94632 1.82057 3.63246 1.55968 4.33945 1.57978H44.9239C45.6309 1.55968 46.317 1.82057 46.832 2.30531C47.3471 2.79005 47.649 3.45914 47.6718 4.16605L47.6966 29.9043ZM13.3541 7.52321L7.78365 13.1185C7.71179 13.1926 7.62579 13.2515 7.53074 13.2917C7.4357 13.3319 7.33355 13.3526 7.23034 13.3526C7.12714 13.3526 7.02499 13.3319 6.92994 13.2917C6.8349 13.2515 6.74889 13.1926 6.67703 13.1185C6.60103 13.0465 6.5405 12.9597 6.49913 12.8635C6.45776 12.7673 6.43643 12.6637 6.43643 12.559C6.43643 12.4542 6.45776 12.3506 6.49913 12.2544C6.5405 12.1582 6.60103 12.0715 6.67703 11.9994L12.2226 6.46633C12.2944 6.39225 12.3804 6.33336 12.4755 6.29315C12.5705 6.25293 12.6727 6.23221 12.7759 6.23221C12.8791 6.23221 12.9812 6.25293 13.0763 6.29315C13.1713 6.33336 13.2573 6.39225 13.3292 6.46633C13.4049 6.53726 13.4652 6.62297 13.5064 6.71814C13.5476 6.81331 13.5689 6.91592 13.5689 7.01964C13.5689 7.12335 13.5476 7.22597 13.5064 7.32114C13.4652 7.4163 13.4049 7.50201 13.3292 7.57295L13.3541 7.52321ZM17.8427 7.52321L7.79609 17.4704C7.72222 17.5428 7.63474 17.5998 7.53871 17.6382C7.44267 17.6766 7.33998 17.6957 7.23656 17.6942C7.08104 17.694 6.92912 17.6474 6.80012 17.5606C6.67113 17.4737 6.57092 17.3504 6.51224 17.2064C6.45357 17.0624 6.43909 16.9041 6.47065 16.7519C6.50221 16.5996 6.57838 16.4601 6.68947 16.3513L16.7237 6.40416C16.8742 6.25977 17.0746 6.17915 17.2832 6.17915C17.4917 6.17915 17.6922 6.25977 17.8427 6.40416C17.9189 6.4832 17.9788 6.57652 18.0188 6.67877C18.0588 6.78102 18.0782 6.89016 18.0759 6.99994C18.0736 7.10971 18.0496 7.21795 18.0053 7.31842C17.961 7.41889 17.8973 7.50962 17.8178 7.58538L17.8427 7.52321Z" fill="#141414"/>
</g>
<defs>
<clipPath id="clip0_1_56">
<rect fill="white" height="40" width="49.2633"/>
</clipPath>
</defs>
</svg>
