<?xml version="1.0" encoding="UTF-8" standalone="no"?>
<svg xmlns="http://www.w3.org/2000/svg" fill="none" height="48" viewBox="0 0 40 48" width="40">
<path d="M37.4897 15.856H21.6132C21.4733 15.0823 20.8066 14.498 20 14.498C19.1934 14.498 18.5185 15.0823 18.3868 15.856H2.51029C2.23045 15.856 2 16.0864 2 16.3663C2 16.6461 2.23045 16.8766 2.51029 16.8766H9.60494V23.3868V27.2305L9.92593 27.3622C13.0782 28.6379 16.4115 29.2798 19.8354 29.2798C19.9012 29.2798 19.9589 29.2798 20.0247 29.2798C23.5062 29.2552 26.8889 28.5638 30.0741 27.2305L30.3868 27.0988V16.8848H37.4897C37.7696 16.8848 38 16.6543 38 16.3745C38 16.0947 37.7696 15.8642 37.4897 15.8642V15.856ZM20 15.321C20.3539 15.321 20.6502 15.5432 20.7654 15.856H19.2346C19.3498 15.5432 19.6461 15.321 20 15.321ZM29.358 26.4157C26.3951 27.6173 23.251 28.2346 20.0165 28.2593C16.749 28.3004 13.6214 27.7078 10.6337 26.5391V24.1276C13.572 25.2222 16.6584 25.7819 19.8354 25.7819C19.9012 25.7819 19.9589 25.7819 20.0247 25.7819C23.251 25.7572 26.3868 25.1564 29.358 24.0124V26.4157ZM29.358 22.9012C26.3868 24.1029 23.251 24.7284 20.0165 24.7449C16.7572 24.7778 13.6214 24.1852 10.6337 23.0247V16.8766H29.358V22.9012ZM8.37037 27.4774C8.37037 26.6955 7.85185 26.037 7.1358 25.8148V19.0412C7.1358 18.7531 6.90535 18.5309 6.62551 18.5309C6.33745 18.5309 6.11523 18.7613 6.11523 19.0412V25.8148C5.39918 26.037 4.88066 26.6955 4.88066 27.4774C4.88066 28.0617 5.17695 28.5803 5.6214 28.9012C5.16049 29.4362 4.88066 30.1276 4.88066 30.8519C4.88066 31.9136 5.44856 32.9012 6.37037 33.4362C6.45267 33.4856 6.54321 33.5021 6.62551 33.5021C6.70782 33.5021 6.80658 33.4774 6.88066 33.4362C7.80247 32.9012 8.37037 31.9136 8.37037 30.8519C8.37037 30.1276 8.09876 29.4362 7.62963 28.9012C8.07407 28.5803 8.37037 28.07 8.37037 27.4774ZM6.62551 32.3663C6.17284 31.9959 5.90123 31.4445 5.90123 30.8519C5.90123 30.2593 6.17284 29.7078 6.62551 29.3375C7.07819 29.7078 7.34156 30.2593 7.34156 30.8519C7.34156 31.4445 7.06996 31.9959 6.61728 32.3663H6.62551ZM6.62551 28.2017C6.23045 28.2017 5.90947 27.8807 5.90947 27.4856C5.90947 27.0905 6.23045 26.7613 6.63375 26.7613C7.03704 26.7613 7.35802 27.0823 7.35802 27.4856C7.35802 27.8889 7.03704 28.2017 6.64198 28.2017H6.62551Z" fill="black"/>
</svg>
