<?xml version="1.0" encoding="UTF-8" standalone="no"?>
<svg xmlns="http://www.w3.org/2000/svg" fill="none" height="24" viewBox="0 0 24 24" width="24">
<path d="M22.9987 8.50822C23.1088 2.88151 15.9547 -0.162126 11.9924 3.82263C10.7416 2.6212 9.09066 1.98043 7.35966 2.00046C1.68636 2.00046 -1.13527 9.19904 2.89707 13.1037L8.59038 18.8005L10.0612 20.2723C11.1919 21.4437 13.2731 21.1633 14.0135 19.7016C15.2743 20.2522 16.8652 19.5414 17.2954 18.2298C18.5662 18.4501 19.9169 17.3888 20.037 16.0973C21.808 15.9271 22.8086 13.7044 21.788 12.2527C22.5485 11.2114 22.9987 9.9099 22.9987 8.50822ZM17.9358 16.1273C17.7357 16.3276 17.4255 16.3276 17.2254 16.1273L15.2542 14.1449C14.3237 13.2238 12.9229 14.6255 13.8434 15.5566L15.3243 17.0384C15.7846 17.509 15.0741 18.1998 14.6139 17.7493C14.2937 17.4289 13.4432 16.5779 13.143 16.2775C12.2125 15.3564 10.8017 16.7681 11.7322 17.6892C12.0224 17.9795 12.6427 18.4301 12.2025 18.8706C11.9423 19.0808 11.7622 19.0708 11.4921 18.8706L10.3514 17.7292H10.3614C10.2213 17.6692 4.43797 11.7821 4.3179 11.702C0.285554 7.43695 6.19898 1.30963 10.5815 5.24433L10.5115 5.31441L7.96001 7.86746C7.17956 8.64839 7.17956 9.91991 7.96001 10.7008C9.45088 12.2527 12.1324 12.2527 13.6233 10.7008L15.5544 8.76853L20.077 13.2939C20.5373 13.7645 19.8269 14.4553 19.3666 14.0048L17.8558 12.493C17.3455 11.9023 16.6851 11.3816 15.9747 12.0324C15.5844 12.4229 15.5844 13.0536 15.9747 13.4441L17.9458 15.4165C18.1259 15.6067 18.1259 15.9271 17.9358 16.1273ZM20.9976 8.50822C20.9976 9.33922 20.7574 10.1001 20.3672 10.7709L16.2448 6.646C15.8546 6.25553 15.2142 6.25553 14.824 6.646C14.2036 7.26674 12.8228 8.64839 12.1925 9.27914C11.432 10.0401 10.1213 10.0401 9.36082 9.27914C10.2213 8.41812 12.4927 6.1454 13.3131 5.32442C16.0347 2.49104 21.0776 4.57353 20.9976 8.50822Z" fill="#1F1F1F"/>
</svg>
