<?xml version="1.0" encoding="UTF-8" standalone="no"?>
<svg xmlns="http://www.w3.org/2000/svg" fill="none" height="2560" viewBox="0 0 136 136" width="2560">
<g clip-path="url(#clip0_2412_494)">
<path d="M40.8064 68.3162L28.6282 129.716C28.545 130.171 28.8426 130.613 29.3036 130.698L35.0932 131.858L41.0475 127.936L42.0993 122.666C39.0537 121.535 39.0537 121.535 39.0537 121.535C42.6252 120.031 42.6252 120.031 42.6252 120.031L43.2632 116.837C40.2789 115.464 40.2789 115.464 40.2789 115.464C44.0493 112.911 44.0493 112.911 44.0493 112.911L44.9095 108.619L42.9568 107.232L43.9761 102.101L46.3139 101.515L46.699 99.5419L44.8258 97.7355L46.2718 90.4044L48.7088 89.3837L49.4227 85.8062C46.4385 84.4326 46.4385 84.4326 46.4385 84.4326C50.2107 81.8624 50.2107 81.8624 50.2107 81.8624L51.5789 74.9329L52.4012 70.8323L52.4391 70.6403L40.8064 68.3162ZM33.9794 126.907C33.9433 127.081 33.716 127.181 33.4498 127.135C33.2014 127.09 33.0212 126.91 33.0574 126.736L43.3377 74.9354C43.3739 74.761 43.6011 74.6608 43.8674 74.7073C44.1158 74.7519 44.2959 74.9318 44.2598 75.1062L33.9794 126.907Z" fill="#E4E5E5"/>
<path d="M40.843 68.3164L40.8049 68.5084L39.9981 72.6122L28.6287 129.736C28.5453 130.191 28.8437 130.633 29.3061 130.718L34.2956 131.718L46.7503 69.3797L40.843 68.3164ZM43.3657 74.9181C43.4019 74.7437 43.6299 74.6434 43.8969 74.6899C44.146 74.7346 44.3267 74.9145 44.2905 75.0889L33.9958 126.925C33.9596 127.099 33.7316 127.2 33.4646 127.153C33.2155 127.109 33.0348 126.929 33.071 126.754L43.3657 74.9181Z" fill="#AFB0AF" opacity="0.5"/>
<path d="M56.8629 27.3675L53.2948 26.665C42.0125 24.4241 31.0655 31.6934 28.8552 42.9079L25.4483 60.2631C24.7524 63.8394 27.0967 67.3316 30.7002 68.038L62.0893 74.2482C65.6929 74.9546 69.1989 72.6408 69.8949 69.0645L73.3018 51.7094C75.5298 40.4968 68.1648 29.5927 56.8629 27.3675ZM52.6889 39.3513C46.5193 38.1386 41.1495 39.0597 41.7946 35.7985C42.4397 32.5373 47.9577 30.8841 54.1273 32.0968C60.297 33.3094 64.7597 36.9572 64.1323 40.2203C63.4871 43.4815 58.8586 40.5639 52.6889 39.3513Z" fill="#00132B"/>
<path d="M96.3671 24.0849L61.4948 28.7041C56.1193 29.4082 52.3288 34.3365 53.0524 39.6941L63.011 114.495C63.7174 119.852 68.6623 123.63 74.0378 122.909L108.91 118.29C114.286 117.586 118.076 112.657 117.352 107.3L107.394 32.4991C106.688 27.1415 101.743 23.3809 96.3671 24.0849ZM64.6306 42.2012C62.0634 42.5446 59.703 40.7416 59.3584 38.183C59.0138 35.6244 60.8229 33.2718 63.3901 32.9284C65.9572 32.585 68.3177 34.388 68.6623 36.9466C69.0068 39.5224 67.215 41.8749 64.6306 42.2012Z" fill="#015884"/>
<path d="M67.7812 84.4058C66.6268 84.3028 65.6447 83.4098 65.4897 82.2078L63.8701 69.9986C63.6806 68.6077 64.6626 67.337 66.0582 67.1481L102.757 62.2885C104.152 62.0996 105.427 63.0784 105.617 64.4693L107.236 76.6785C107.323 77.3482 107.15 78.0179 106.737 78.5502C106.323 79.0825 105.72 79.4431 105.048 79.529L68.3497 84.3886C68.1602 84.4058 67.9707 84.423 67.7812 84.4058ZM103.291 62.4945C103.119 62.4774 102.946 62.4774 102.774 62.5117L66.0755 67.3713C64.8005 67.5431 63.9045 68.7107 64.0768 69.9815L65.6964 82.1906C65.8687 83.4613 67.0403 84.3543 68.3153 84.1826L105.014 79.3229C105.634 79.2371 106.168 78.928 106.547 78.43C106.926 77.932 107.081 77.331 107.012 76.7128L105.393 64.5036C105.238 63.4046 104.359 62.5804 103.291 62.4945Z" fill="#00132B"/>
<path d="M67.8972 83.1679C67.2942 83.1164 66.7946 82.6356 66.7084 82.0346L65.0889 69.8254C65.0372 69.482 65.1405 69.1385 65.3473 68.8638C65.5541 68.589 65.8642 68.4001 66.226 68.3658L102.925 63.5062C103.028 63.489 103.114 63.489 103.217 63.5062C103.821 63.5577 104.32 64.0385 104.406 64.6395L106.026 76.8487C106.078 77.1921 105.974 77.5356 105.767 77.8103C105.561 78.0851 105.251 78.2739 104.906 78.3083L68.2074 83.1679C68.0868 83.1851 67.9834 83.1851 67.8972 83.1679Z" fill="#10253F"/>
<path d="M65.0382 63.8131C64.5557 63.7787 64.1078 63.5899 63.7287 63.2979C63.1946 62.8858 62.8328 62.2848 62.7466 61.6151L61.1271 49.4574C61.0409 48.7877 61.2132 48.118 61.6267 47.5857C62.0402 47.0534 62.6433 46.6928 63.3152 46.6069L100.014 41.7473C101.409 41.5584 102.684 42.5372 102.874 43.9281L104.493 56.0858C104.683 57.4767 103.701 58.7474 102.305 58.9363L65.6067 63.7959C65.4172 63.8303 65.2277 63.8303 65.0382 63.8131ZM100.565 41.9705C100.393 41.9533 100.221 41.9533 100.048 41.9877L63.3497 46.8473C62.7294 46.9332 62.1953 47.2423 61.8163 47.7402C61.4372 48.2382 61.2821 48.8392 61.3511 49.4574L62.9706 61.6151C63.0568 62.2333 63.3669 62.7656 63.8666 63.1434C64.3662 63.5212 64.9692 63.6757 65.5895 63.607L102.288 58.7474C103.563 58.5757 104.459 57.408 104.287 56.1373L102.667 43.9796C102.512 42.8806 101.616 42.0735 100.565 41.9705Z" fill="#00132B"/>
<path d="M65.1389 62.5969C64.5359 62.5454 64.0363 62.0646 63.9501 61.4636L62.3306 49.3059C62.2789 48.9625 62.3822 48.6191 62.589 48.3443C62.7957 48.0696 63.1059 47.8807 63.4505 47.8463L100.149 42.9867C100.252 42.9695 100.339 42.9695 100.442 42.9867C101.045 43.0382 101.545 43.519 101.631 44.12L103.25 56.2777C103.354 56.9989 102.837 57.6514 102.113 57.7545L65.4146 62.6141C65.3457 62.5969 65.2423 62.5969 65.1389 62.5969Z" fill="#10253F"/>
<path d="M70.5167 104.907C70.0343 104.873 69.5863 104.684 69.2072 104.392C68.6731 103.98 68.3113 103.379 68.2252 102.709L66.6056 90.5513C66.5195 89.8816 66.6917 89.2119 67.1052 88.6796C67.5188 88.1472 68.1218 87.7866 68.7937 87.7008L105.492 82.8411C106.164 82.7553 106.836 82.927 107.37 83.3391C107.904 83.7512 108.266 84.3522 108.352 85.022L109.972 97.1796C110.058 97.8493 109.886 98.519 109.472 99.0514C109.059 99.5837 108.456 99.9443 107.784 100.03L71.0852 104.89C70.8785 104.924 70.689 104.924 70.5167 104.907ZM105.51 83.0815L68.811 87.9412C68.1907 88.027 67.6566 88.3361 67.2775 88.8341C66.8985 89.3321 66.7434 89.9331 66.8124 90.5513L68.4319 102.709C68.6042 103.98 69.7758 104.873 71.0508 104.701L107.749 99.8413C108.37 99.7554 108.904 99.4463 109.283 98.9483C109.662 98.4503 109.817 97.8493 109.748 97.2311L108.128 85.0735C108.042 84.4553 107.732 83.923 107.232 83.5452C106.75 83.1502 106.13 82.9957 105.51 83.0815Z" fill="#00132B"/>
<path d="M70.6199 103.688C70.0169 103.636 69.5172 103.155 69.4311 102.554L67.8115 90.3965C67.7598 90.0531 67.8632 89.7096 68.07 89.4349C68.2767 89.1601 68.5868 88.9712 68.9314 88.9369L105.63 84.0773C105.733 84.0601 105.82 84.0601 105.923 84.0773C106.526 84.1288 107.026 84.6096 107.112 85.2106L108.731 97.3683C108.783 97.7117 108.68 98.0552 108.473 98.3299C108.266 98.6047 107.956 98.7935 107.594 98.8279L70.8956 103.688C70.8094 103.688 70.7233 103.688 70.6199 103.688Z" fill="#10253F"/>
<path d="M99.7042 112.637L82.1819 114.955C80.6313 115.161 79.2012 114.08 78.9945 112.517C78.7877 110.972 79.8732 109.546 81.441 109.34L98.9633 107.022C100.514 106.816 101.944 107.898 102.151 109.46C102.34 111.006 101.255 112.431 99.7042 112.637Z" fill="#00132B"/>
<path d="M85.8341 51.1816H85.7652L85.5585 49.6705C85.3345 47.9533 83.7494 46.7513 82.0264 46.9745C80.3035 47.1977 79.0974 48.7775 79.3214 50.4947L79.5282 52.0058H79.4593C78.9252 52.0745 78.5461 52.5725 78.615 53.1048L79.2697 58.0332C79.3387 58.5655 79.8383 58.9433 80.3724 58.8746L86.7301 58.0332C87.2642 57.9645 87.6432 57.4665 87.5743 56.9342L86.9196 52.0058C86.8679 51.4907 86.3683 51.1129 85.8341 51.1816ZM80.3724 50.3573C80.2174 49.224 81.0271 48.1765 82.1643 48.022C83.3014 47.8674 84.3524 48.6745 84.5075 49.8079L84.7142 51.319L80.5792 51.8685L80.3724 50.3573ZM83.5254 55.5432L83.6632 56.5392C83.6805 56.7281 83.5599 56.8998 83.3703 56.917C83.1808 56.9342 83.0085 56.814 82.9913 56.6251L82.8535 55.6291C82.595 55.5432 82.4055 55.3028 82.3538 55.0281C82.3021 54.616 82.595 54.2382 82.9913 54.1867C83.4048 54.1352 83.7838 54.4271 83.8355 54.822C83.87 55.1139 83.7494 55.3887 83.5254 55.5432Z" fill="white"/>
<path d="M82.2161 72.6437H82.285L82.0955 71.1669C81.8715 69.4498 83.0431 67.8528 84.766 67.6124C86.2822 67.3891 87.695 68.2992 88.1775 69.6902C88.2808 69.9992 88.0741 70.3427 87.7467 70.3942C87.4883 70.4285 87.2643 70.274 87.1782 70.0336C86.8508 69.1063 85.9032 68.5053 84.8867 68.6598C83.7495 68.8316 82.9914 69.8962 83.1293 71.0296L83.3188 72.5063L88.5737 71.8195C89.1079 71.7508 89.6075 72.1286 89.6764 72.6609L90.3311 77.5892C90.4001 78.1215 90.021 78.6195 89.4869 78.6882L83.1293 79.5296C82.5951 79.5983 82.0955 79.2205 82.0266 78.6882L81.3719 73.7427C81.3029 73.1932 81.682 72.7124 82.2161 72.6437ZM85.5931 76.2498L85.7309 77.2458C85.7481 77.4347 85.9204 77.572 86.1099 77.5377C86.2995 77.5205 86.4373 77.3488 86.4028 77.1599L86.265 76.1639C86.489 76.0094 86.6268 75.7346 86.5751 75.4427C86.5234 75.0306 86.1444 74.7387 85.7309 74.8074C85.3174 74.8589 85.0245 75.2367 85.0934 75.6488C85.1279 75.9235 85.3346 76.1468 85.5931 76.2498Z" fill="white"/>
<path d="M82.0293 98.8284C81.0472 98.9658 80.134 98.2617 79.9962 97.2829C79.8584 96.3041 80.5648 95.394 81.5468 95.2566C82.5289 95.1193 83.4421 95.8233 83.5799 96.8021C83.7005 97.7809 83.0113 98.691 82.0293 98.8284Z" fill="white"/>
<path d="M97.9992 90.897L95.8972 91.1718L98.2232 87.8404C98.2921 87.7374 98.2921 87.6172 98.206 87.5313C98.1026 87.4283 97.9303 87.4455 97.8614 87.5657L95.4148 91.0859C95.4148 91.0859 95.4148 91.1031 95.3976 91.1031L92.124 89.2314C91.6588 88.9738 91.1247 88.8707 90.5906 88.9394L88.4541 89.2142L86.3177 89.4889C85.7836 89.5576 85.3012 89.798 84.9221 90.1758L82.0793 92.992L78.6678 93.4385C77.6341 93.5758 76.9277 94.5203 77.0655 95.5334L77.1861 96.4264C77.2723 97.0789 77.8753 97.5254 78.53 97.4395L79.6327 97.3021C79.4776 96.1001 80.3219 95.0011 81.5107 94.8465C82.7167 94.692 83.8194 95.5334 83.9745 96.7183L89.3673 95.9971L93.2094 95.4819C93.0544 94.2799 93.8986 93.1809 95.0874 93.0263C96.2935 92.8718 97.3962 93.7132 97.5512 94.8981L98.6712 94.7435C99.3259 94.6577 99.7738 94.0566 99.6877 93.4041L99.4982 91.9617C99.3948 91.3091 98.7228 90.8112 97.9992 90.897Z" fill="white"/>
<path d="M95.6064 97.028C94.6243 97.1653 93.7112 96.4613 93.5734 95.4825C93.4355 94.5037 94.1419 93.5936 95.124 93.4562C96.1061 93.3189 97.0192 94.0229 97.1571 95.0017C97.2777 95.9977 96.5885 96.9078 95.6064 97.028Z" fill="white"/>
<path d="M56.74 2.38428C46.6092 1.64983 37.7814 9.46362 37.0481 19.8063C36.7822 23.6085 36.9068 26.0806 38.6132 29.1805C39.289 28.9413 39.7693 28.4493 40.1416 28.3493C38.6126 25.0005 38.8901 23.513 39.1464 19.9519C39.7895 10.7869 47.6197 3.85575 56.5971 4.51225C65.5746 5.16875 72.3639 13.1626 71.7208 22.3276C71.1986 29.6909 65.97 35.8051 59.3103 37.5005C59.3012 37.7699 59.3103 37.6919 59.3103 38.0005C59.3103 38.5005 59.5203 39.1063 59.7216 39.4993C67.266 37.6034 73.217 30.8156 73.8055 22.4875C74.5249 12.1451 66.8707 3.11872 56.74 2.38428Z" fill="#EEB41B"/>
</g>
<defs>
<clipPath id="clip0_2412_494">
<rect fill="white" height="136" width="136"/>
</clipPath>
</defs>
</svg>
