<svg fill="none" height="32" width="33" xmlns="http://www.w3.org/2000/svg"><path clip-rule="evenodd" d="m3.06 29.4c.321 0 1.168.141 1.168 1.3 0 1.158-.847 1.3-1.169 1.3-.321 0-1.168-.142-1.168-1.3 0-1.159.847-1.3 1.168-1.3zm8.587 0c.32 0 1.168.141 1.168 1.3 0 1.158-.847 1.3-1.168 1.3-.323 0-1.17-.142-1.17-1.3 0-1.159.847-1.3 1.17-1.3zm7.96.066v1.6c0 .345.196.497.433.497.349 0 .49-.173.49-.472v-1.626h.52v1.605c0 .65-.387.93-1 .93-.223 0-.555-.057-.772-.301-.133-.15-.183-.35-.19-.597v-1.637h.518zm9.7 0 .506 1.072.482-1.073h.575l-.813 1.543v.926h-.509v-.932l-.84-1.537h.6zm-1.17 0v.436h-.737v2.032h-.508v-2.032h-.734v-.437h1.977zm-2.72 0v2.468h-.51v-2.469h.51zm-2.881 0 .966 1.718h.006v-1.719h.475v2.47h-.509l-.992-1.762h-.006v1.761h-.475v-2.469h.535zm-13.576 0c.471 0 .755.306.755.79 0 .223-.122.788-.775.788h-.583v.89h-.508v-2.469h1.111zm5.969 0c.647 0 .765.484.765.697 0 .271-.135.506-.376.587.2.09.308.165.308.627 0 .36 0 .45.109.49v.067h-.563a1.683 1.683 0 0 1 -.053-.499c0-.337-.02-.467-.397-.467h-.524v.966h-.5v-2.469h1.231zm3.394 0v.436h-.736v2.032h-.508v-2.032h-.735v-.437h1.979zm-12.1 0c.471 0 .755.306.755.79 0 .223-.121.788-.776.788h-.582v.89h-.508v-2.469h1.11zm5.424.37c-.276 0-.66.172-.66.863s.384.864.66.864c.273 0 .66-.173.66-.864 0-.69-.387-.863-.66-.863zm-8.588 0c-.274 0-.66.172-.66.863s.386.864.66.864c.275 0 .66-.173.66-.864 0-.69-.385-.863-.66-.863zm5.7.055h-.402v.726h.471c.379 0 .379-.275.379-.385 0-.24-.132-.341-.448-.341zm-2.736 0h-.403v.726h.47c.38 0 .38-.275.38-.385 0-.24-.132-.341-.447-.341zm8.807 0h-.632v.66h.595c.264 0 .393-.092.393-.336 0-.13-.058-.325-.356-.325zm-9.44-4.24c.322 0 1.169.14 1.169 1.298 0 .406-.106.688-.255.88l.265.254-.268.279-.288-.28a1.24 1.24 0 0 1 -.623.166c-.322 0-1.169-.14-1.169-1.299 0-1.158.847-1.299 1.169-1.299zm2.117.064v1.601c0 .345.196.496.433.496.35 0 .491-.172.491-.471v-1.626h.52v1.606c0 .648-.387.927-1 .927-.224 0-.556-.054-.773-.298-.132-.15-.183-.352-.19-.599v-1.636zm11.089-.065c.323 0 1.17.14 1.17 1.3 0 1.158-.847 1.299-1.17 1.299-.32 0-1.168-.14-1.168-1.3 0-1.158.848-1.299 1.168-1.299zm2.152.065v1.601c0 .345.197.496.434.496.35 0 .491-.172.491-.471v-1.626h.519v1.606c0 .648-.387.927-1 .927-.224 0-.555-.054-.773-.298-.132-.15-.183-.352-.19-.599v-1.636zm2.86-.065c.745 0 .944.495.948.797h-.488c-.014-.109-.054-.371-.498-.371-.193 0-.423.072-.423.296 0 .193.156.233.256.257l.594.148c.332.083.636.22.636.663 0 .744-.745.808-.958.808-.887 0-1.04-.519-1.04-.824h.486c.005.137.073.398.516.398.24 0 .509-.058.509-.32 0-.192-.183-.244-.44-.305l-.261-.063c-.395-.092-.774-.18-.774-.724 0-.275.147-.76.936-.76zm6.093 0c.747 0 1.041.491 1.067.833h-.508c0-.097-.173-.407-.532-.407-.363 0-.698.254-.698.886 0 .675.363.85.708.85.112 0 .486-.044.59-.544h-.566v-.415h1.016v1.33h-.338l-.051-.308c-.129.15-.315.373-.76.373-.585 0-1.117-.426-1.117-1.292 0-.673.37-1.31 1.189-1.306zm-3.086.065.964 1.72h.009v-1.72h.473v2.469h-.507l-.992-1.761h-.008v1.76h-.474v-2.468zm-1.057 0v2.469h-.507v-2.469zm-10.047 0v.935h.949v-.935h.507v2.469h-.507v-1.108h-.95v1.108h-.507v-2.469zm-4.898 0 .857 2.469h-.552l-.156-.51h-.898l-.17.51h-.534l.867-2.469zm-6.825 0v.437h-1.291v.518h1.185v.438h-1.185v.638h1.348v.438h-1.845v-2.469h1.789zm8.587 0v2.022h1.209v.447h-1.718v-2.469zm-6.985.372c-.275 0-.661.171-.661.862s.386.863.66.863a.582.582 0 0 0 .275-.066l-.244-.233.261-.278.257.244c.068-.128.112-.299.112-.53 0-.69-.386-.862-.66-.862zm13.206 0c-.273 0-.66.171-.66.862s.387.863.66.863c.275 0 .661-.172.661-.863 0-.69-.386-.862-.661-.862zm-8.277.185h-.007l-.313.977h.621zm6.059-26.272 16.622 8.186v3.845h-2.201v11.534h-28.966v-11.534h-1.833v-3.845zm0 3.845-11 5.705v10.541h21.877v-10.541zm5.01 11.038v3.722h-10.143v-3.722zm0-5.333v3.72h-10.143v-3.72z" fill="#696969" fill-rule="evenodd"/></svg>