<?xml version="1.0" encoding="UTF-8" standalone="no"?>
<svg xmlns="http://www.w3.org/2000/svg" viewBox="0 0 96.98 191.98">
  <defs>
    <style>
      .cls-1 {
        fill-rule: evenodd;
      }

      .cls-1, .cls-2 {
        fill: #121212;
      }
    </style>
  </defs>
  <g data-name="Layer 3" id="Layer_3">
    <path class="cls-2" d="M26.99,58.74c0-2.34,1.91-4.25,4.25-4.25h8.5c2.34,0,4.25,1.91,4.25,4.25v8.5c0,2.34-1.91,4.25-4.25,4.25h-8.5c-2.34,0-4.25-1.91-4.25-4.25v-8.5Z"/>
    <path class="cls-1" d="M77.99,18.36v-6.38c4.67,0,8.5,3.83,8.5,8.5v59.5c0,4.67-3.83,8.5-8.5,8.5H18.49c-4.67,0-8.5-3.83-8.5-8.5V20.49c0-4.67,3.83-8.5,8.5-8.5h4.25v-4.25c0-2.34,1.91-4.25,4.25-4.25s4.25,1.91,4.25,4.25v12.75h2.13c1.19,0,2.12-.93,2.12-2.12v-6.38h29.75v-4.25c0-2.34,1.91-4.25,4.25-4.25s4.21,1.87,4.25,4.17v12.83h2.12c1.19,0,2.13-.93,2.13-2.12ZM18.49,33.24v46.75h59.5v-46.75H18.49Z"/>
  </g>
  <g data-name="Layer 3 copy" id="Layer_3_copy">
    <path class="cls-2" d="M26.99,154.74c0-2.34,1.91-4.25,4.25-4.25h8.5c2.34,0,4.25,1.91,4.25,4.25v8.5c0,2.34-1.91,4.25-4.25,4.25h-8.5c-2.34,0-4.25-1.91-4.25-4.25v-8.5Z"/>
    <path class="cls-1" d="M77.99,114.36v-6.38c4.67,0,8.5,3.83,8.5,8.5v59.5c0,4.67-3.83,8.5-8.5,8.5H18.49c-4.67,0-8.5-3.83-8.5-8.5v-59.5c0-4.67,3.83-8.5,8.5-8.5h4.25v-4.25c0-2.34,1.91-4.25,4.25-4.25s4.25,1.91,4.25,4.25v12.75h2.13c1.19,0,2.12-.93,2.12-2.12v-6.38h29.75v-4.25c0-2.34,1.91-4.25,4.25-4.25s4.21,1.87,4.25,4.17v12.83h2.12c1.19,0,2.13-.93,2.13-2.12ZM18.49,129.24v46.75h59.5v-46.75H18.49Z"/>
  </g>
</svg>
