<?xml version="1.0" encoding="UTF-8" standalone="no"?>
<svg xmlns="http://www.w3.org/2000/svg" fill="none" height="48" viewBox="0 0 40 48" width="40">
<path d="M17.5618 14.0704C17.32 13.8286 17.3033 13.4368 17.5451 13.1867C17.7869 12.9449 18.1787 12.9282 18.4289 13.1867C18.679 13.4201 18.679 13.8203 18.4289 14.0621C18.1871 14.3122 17.7952 14.3205 17.5451 14.0787L17.5618 14.0704ZM22.5641 14.0537C22.8059 13.8119 22.8059 13.4118 22.5641 13.1783C22.314 12.9282 21.9221 12.9365 21.6804 13.1783C21.4386 13.4368 21.4552 13.8286 21.6887 14.0704C21.9388 14.3122 22.3307 14.3122 22.5724 14.0537H22.5641ZM18.3788 19.1478C18.4705 19.1478 18.5539 19.1478 18.654 19.1394C19.1959 19.0977 19.7295 18.8393 20.0963 18.4724C20.4715 18.8309 20.9967 19.0977 21.5386 19.1394C22.4724 19.2061 23.2144 18.9226 23.7063 18.2807C23.8814 18.0556 23.8397 17.7221 23.6062 17.547C23.3811 17.3719 23.0477 17.4136 22.8726 17.6471C22.6892 17.8888 22.3723 18.1556 21.6137 18.1056C21.0884 18.0639 20.6716 17.6387 20.6299 17.447L21.2968 16.78C21.4469 16.6299 21.4886 16.4048 21.4052 16.2131C21.3219 16.0213 21.1384 15.8879 20.9217 15.8879H19.2542C19.0458 15.8879 18.854 16.013 18.7707 16.2131C18.6873 16.4048 18.7373 16.6299 18.8874 16.78L19.5544 17.447C19.5127 17.6387 19.0958 18.0639 18.5706 18.1056C17.8119 18.164 17.4951 17.8888 17.3117 17.6471C17.1366 17.422 16.8114 17.3719 16.578 17.547C16.3529 17.7221 16.3029 18.0472 16.4779 18.2807C16.9198 18.856 17.5534 19.1561 18.3705 19.1561L18.3788 19.1478ZM32.3103 29.1857L29.3756 28.5938C29.4173 28.8773 29.4423 29.1524 29.4423 29.4275C29.4423 30.0278 29.3839 30.6114 29.2755 31.1616L35.1282 35.4303C35.8786 36.0306 36.3121 36.8893 36.3788 37.8648C36.4455 38.8152 36.137 39.7656 35.5118 40.541C34.8865 41.3163 34.0277 41.8166 33.0856 41.9583C32.9022 41.9833 32.7271 42 32.5521 42C31.785 42 31.0597 41.7499 30.4678 41.2663L24.7401 36.7309L24.7901 36.6725C23.4312 37.2728 21.8221 37.5896 20.0046 37.5896C18.0037 37.5896 16.2612 37.1894 14.8272 36.4808L9.34131 40.8245C8.74937 41.2997 8.02403 41.5498 7.25701 41.5498C7.08193 41.5498 6.89851 41.5331 6.72343 41.5081C5.78133 41.3664 4.91426 40.8661 4.29731 40.0908C3.67202 39.3238 3.37188 38.3733 3.43024 37.4145C3.49694 36.4391 3.93047 35.5887 4.66414 34.9968L10.6586 30.6281C10.6086 30.2362 10.5752 29.8444 10.5752 29.4275C10.5752 29.1357 10.6086 28.8356 10.6502 28.5354L7.79059 29.1107C7.56549 29.1607 7.34038 29.1774 7.11528 29.1774C6.42329 29.1774 5.73964 28.9523 5.13936 28.5271C4.36401 27.9685 3.82209 27.1348 3.61366 26.1677C3.18846 24.1501 4.37234 22.1908 6.25655 21.799L14.2769 20.3817C12.7345 18.8726 11.7758 16.7717 11.7758 14.4539C11.7758 13.6035 11.9092 12.7865 12.1426 12.0111C10.8587 10.6021 10.8837 8.41779 12.2427 7.05049C13.5349 5.75822 15.5609 5.67485 16.9698 6.75868C17.9286 6.36684 18.9791 6.15007 20.0796 6.15007C21.1801 6.15007 22.2556 6.37517 23.2227 6.77536C23.848 6.28346 24.615 6 25.4238 6C26.3825 6 27.2829 6.37517 27.9666 7.05049C28.6419 7.7258 29.0171 8.63455 29.0171 9.59333C29.0171 10.5521 28.6586 11.3858 28.025 12.0528C28.2584 12.8115 28.3835 13.6202 28.3835 14.4539C28.3835 16.8133 27.3913 18.931 25.8156 20.4484L33.836 21.8657C34.7697 22.0574 35.5534 22.6244 36.0453 23.4664C36.5372 24.2918 36.6956 25.2756 36.4872 26.2427C36.2871 27.2098 35.7452 28.0519 34.9615 28.6021C34.3612 29.0273 33.6776 29.2524 32.9856 29.2524C32.7605 29.2524 32.5354 29.2274 32.3103 29.1857ZM25.307 20.9486V20.8986C25.307 20.8986 25.2987 20.9152 25.282 20.9236C25.282 20.9319 25.2987 20.9403 25.307 20.9486ZM24.2899 7.31728C25.7156 8.16767 26.8661 9.42659 27.5831 10.9356C27.8332 10.5354 27.9666 10.0769 27.9666 9.60167C27.9666 8.91802 27.6998 8.27605 27.2163 7.80083C26.7327 7.31728 26.0907 7.05049 25.4154 7.05049C25.0152 7.05049 24.6401 7.15053 24.2899 7.32561V7.31728ZM12.5845 10.8856C13.3015 9.3849 14.452 8.14266 15.8693 7.3006C14.9189 6.85039 13.7517 7.00046 12.968 7.7925C12.1259 8.63455 12.0092 9.91014 12.5845 10.8856ZM20.0713 21.7239C24.0815 21.7239 27.333 18.4641 27.333 14.4623C27.333 10.4604 24.0731 7.20056 20.0713 7.20056C16.0694 7.20056 12.8096 10.4604 12.8096 14.4623C12.8096 18.4724 16.0694 21.7239 20.0713 21.7239ZM10.8837 27.4266C11.559 25.1339 13.1681 22.8161 14.2936 21.4405L6.4483 22.8245C5.1477 23.0996 4.33066 24.5086 4.63079 25.9592C4.78086 26.6679 5.17271 27.2849 5.73964 27.6934C6.2899 28.0852 6.9402 28.227 7.57382 28.1019L10.892 27.4349L10.8837 27.4266ZM13.8517 35.9139C12.376 34.9134 11.3506 33.4961 10.867 31.7536L5.2811 35.8221C4.79754 36.214 4.4974 36.8059 4.45571 37.4812C4.41403 38.1732 4.63913 38.8652 5.08934 39.4321C5.54789 39.9991 6.17318 40.3659 6.86516 40.4743C7.53214 40.5743 8.18244 40.4076 8.68267 40.0074L13.8434 35.9222L13.8517 35.9139ZM20.0046 36.5391C25.1903 36.5391 28.4085 33.8129 28.4085 29.4275C28.4085 26.7179 25.874 23.1163 24.4233 21.5155C23.156 22.2992 21.6637 22.7578 20.0713 22.7578C18.4789 22.7578 16.9198 22.2742 15.6359 21.4655C14.2019 23.0329 11.609 26.6846 11.609 29.4275C11.609 33.8129 14.8272 36.5391 20.0129 36.5391H20.0046ZM28.9921 32.2371C28.4085 33.9129 27.2913 35.2552 25.7322 36.1806L31.1264 40.4493C31.6266 40.8578 32.2769 41.0245 32.9439 40.9245C33.6276 40.8245 34.2612 40.4493 34.7197 39.8824C35.1783 39.3154 35.4034 38.6234 35.3533 37.9314C35.3117 37.2561 35.0115 36.6642 34.5113 36.2557L28.9921 32.2371ZM29.1421 27.4849L32.5187 28.1686C33.1523 28.302 33.8026 28.1603 34.3529 27.7601C34.9198 27.3599 35.3117 26.7429 35.4617 26.0259C35.6118 25.3173 35.4951 24.5919 35.1449 23.9917C34.7948 23.4081 34.2612 23.0162 33.6276 22.8828L25.7656 21.4905C26.8994 22.8828 28.4752 25.1922 29.1338 27.4683L29.1421 27.4849Z" fill="black"/>
</svg>
