<?xml version="1.0" encoding="UTF-8" standalone="no"?>
<svg xmlns="http://www.w3.org/2000/svg" fill="none" height="24" viewBox="0 0 24 24" width="24">
<path clip-rule="evenodd" d="M20 4H4C2.3 4 1 5.3 1 7V17C1 18.7 2.3 20 4 20H15C15.6 20 16 19.6 16 19C16 18.4 15.6 18 15 18H4C3.4 18 3 17.6 3 17V12H22C22.6 12 23 11.6 23 11V7C23 5.3 21.7 4 20 4ZM3 7C3 6.4 3.4 6 4 6H20C20.6 6 21 6.4 21 7V8H3V7Z" fill="#1F1F1F" fill-rule="evenodd"/>
<path d="M6 14C5.4 14 5 14.4 5 15C5 15.6 5.4 16 6 16H10C10.6 16 11 15.6 11 15C11 14.4 10.6 14 10 14H6Z" fill="#1F1F1F"/>
<path d="M17.3 15.3L19.3 13.3C19.7 12.9 20.3 12.9 20.7 13.3L22.7 15.3C23.1 15.7 23.1 16.3 22.7 16.7C22.5 16.9 22.2 17 22 17C21.8 17 21.5 16.9 21.3 16.7L21 16.3V20C21 20.6 20.6 21 20 21C19.4 21 19 20.6 19 20V16.3L18.7 16.7C18.3 17.1 17.7 17.1 17.3 16.7C16.9 16.3 16.9 15.7 17.3 15.3Z" fill="#1F1F1F"/>
</svg>
