<?xml version="1.0" encoding="UTF-8" standalone="no"?>
<svg xmlns="http://www.w3.org/2000/svg" fill="none" height="2560" viewBox="0 0 56 56" width="2560">
<g clip-path="url(#clip0_5521_26215)">
<path d="M33.8382 21.4166C33.4382 21.4166 33.1296 21.0966 33.1296 20.708V16.0909C33.0725 13.348 30.7753 11.0966 28.021 11.0966C25.2667 11.0966 22.9582 13.348 22.9125 16.1137V20.6966C22.9125 21.0966 22.5925 21.4052 22.2039 21.4052C21.8039 21.4052 21.4953 21.0852 21.4953 20.6966V16.1023C21.5639 12.548 24.4896 9.66802 28.0325 9.66802C31.5753 9.66802 34.501 12.5366 34.5696 16.068V20.6966C34.5696 21.0966 34.2496 21.4052 33.861 21.4052L33.8382 21.4166ZM17.3582 21.4166C17.7582 21.4166 18.0667 21.0966 18.0667 20.708V16.3537C18.1582 10.9823 22.6153 6.60516 27.9982 6.60516C33.381 6.60516 37.8153 10.9709 37.9296 16.308V20.708C37.9296 21.108 38.2496 21.4166 38.6382 21.4166C39.0382 21.4166 39.3468 21.0966 39.3468 20.708V16.2852C39.221 10.148 34.1239 5.16516 27.9867 5.16516C21.8496 5.16516 16.741 10.1709 16.6267 16.3309V20.708C16.6267 21.108 16.9467 21.4166 17.3353 21.4166H17.3582ZM31.2553 34.2852C31.2553 35.1766 30.8896 36.0337 30.2496 36.6395L31.0153 41.4509C31.0496 41.6566 30.9925 41.8623 30.8553 42.0223C30.7182 42.1823 30.5239 42.2737 30.3068 42.2737H25.6896C25.4839 42.2737 25.2782 42.1823 25.141 42.0223C25.0039 41.8623 24.9467 41.6566 24.981 41.4509L25.7468 36.6395C25.1067 36.0337 24.741 35.1766 24.741 34.2852C24.741 32.4909 26.2039 31.028 27.9982 31.028C29.7925 31.028 31.2553 32.4909 31.2553 34.2852ZM28.7753 36.468C28.7296 36.2052 28.8439 35.9309 29.061 35.7709C29.541 35.428 29.8267 34.868 29.8267 34.2852C29.8267 33.2795 29.0039 32.4566 27.9982 32.4566C26.9925 32.4566 26.1696 33.2795 26.1696 34.2852C26.1696 34.868 26.4553 35.428 26.9353 35.7709C27.1525 35.9309 27.2667 36.1937 27.221 36.468L26.5239 40.8566H29.461L28.7639 36.468H28.7753ZM45.7125 26.1137V47.3137C45.7125 48.6509 44.6153 49.7252 43.2782 49.7252H12.6839C11.3467 49.7252 10.2725 48.6395 10.2725 47.3137V26.1137C10.2725 24.7766 11.3696 23.7023 12.7067 23.7023H43.301C44.6382 23.7023 45.7125 24.788 45.7125 26.1137ZM44.2839 47.3137V26.1137C44.2839 25.5652 43.8496 25.1309 43.301 25.1309H12.7067C12.1582 25.1309 11.7125 25.5766 11.7125 26.1137V47.3137C11.7125 47.8623 12.1467 48.2966 12.6953 48.2966H43.2896C43.8382 48.2966 44.2839 47.8509 44.2839 47.3137Z" fill="#141414"/>
</g>
<defs>
<clipPath id="clip0_5521_26215">
<rect fill="white" height="56" width="56"/>
</clipPath>
</defs>
</svg>
