<?xml version="1.0" encoding="UTF-8" standalone="no"?>
<svg xmlns="http://www.w3.org/2000/svg" fill="none" height="48" viewBox="0 0 40 48" width="40">
<path d="M19.1485 21.6832C19.4416 21.9762 19.6158 22.4277 19.6317 22.9584C19.6554 23.5762 19.4653 24.004 18.9822 24.4079C18.6733 24.6693 18.3406 24.8356 17.9287 24.9228V25.8178C17.9287 26.0951 17.7069 26.3089 17.4376 26.3089C17.1683 26.3089 16.9465 26.0871 16.9465 25.8178V24.9782C16.4713 24.9386 15.996 24.796 15.5842 24.5743C15.3465 24.4396 15.2594 24.1386 15.3861 23.901C15.5208 23.6634 15.8139 23.5683 16.0594 23.703C16.4317 23.9089 16.8752 24.0198 17.2951 23.996C17.8574 23.9802 18.1267 23.8455 18.3564 23.6475C18.6099 23.4337 18.6653 23.3069 18.6574 22.9822C18.6495 22.7129 18.5782 22.4911 18.4673 22.3723C18.3327 22.2376 18.0158 22.0396 17.5723 21.9208L16.9465 21.7228C16.4554 21.5881 16.1149 21.4535 15.7663 21.1208C15.4178 20.7723 15.2673 20.4158 15.2515 19.9485C15.2356 19.402 15.3861 18.9822 15.7505 18.5782C16.0198 18.3168 16.3762 18.0317 16.9545 17.9446V17.0574C16.9545 16.7802 17.1762 16.5663 17.4455 16.5663C17.7149 16.5663 17.9366 16.7881 17.9366 17.0574V17.9762C18.3564 18.0713 18.6495 18.2772 19.0059 18.5307L19.0772 18.5861C19.299 18.7446 19.3545 19.0535 19.196 19.2752C19.0376 19.497 18.7287 19.5525 18.5069 19.3941L18.4356 19.3386C17.9446 18.9901 17.802 18.8871 17.2792 18.903C16.8911 18.9188 16.6693 19.0535 16.4554 19.2673C16.2812 19.4574 16.2178 19.6238 16.2337 19.9168C16.2337 20.1386 16.2891 20.2495 16.4554 20.4158C16.6297 20.5822 16.796 20.6614 17.2238 20.7723L17.8495 20.9703C18.3644 21.1129 18.8713 21.3743 19.1644 21.6753L19.1485 21.6832ZM38 20.0911V33.0337C38 33.3109 37.7782 33.5248 37.5089 33.5248H7.6396C7.36238 33.5248 7.14851 33.303 7.14851 33.0337C7.14851 32.7644 7.3703 32.5426 7.6396 32.5426H16.5584L14.9822 30.9663H5.06535C4.78812 30.9663 4.57426 30.7446 4.57426 30.4752C4.57426 30.2059 4.79604 29.9842 5.06535 29.9842H13.9921L12.4079 28.4H2.49109C2.22178 28.4 2 28.1782 2 27.9089V14.9663C2 14.6891 2.22178 14.4753 2.49109 14.4753H32.3525C32.6218 14.4753 32.8436 14.697 32.8436 14.9663V27.9089C32.8436 28.1861 32.6218 28.4 32.3525 28.4H23.3624L24.9465 29.9842H34.4356V17.5406C34.4356 17.2634 34.6574 17.0495 34.9267 17.0495C35.196 17.0495 35.4178 17.2713 35.4178 17.5406V30.4832C35.4178 30.7604 35.196 30.9743 34.9267 30.9743H25.9366L27.5208 32.5505H37.0099V20.1069C37.0099 19.8297 37.2317 19.6158 37.501 19.6158C37.7703 19.6158 37.9921 19.8376 37.9921 20.1069L38 20.0911ZM2.98218 17.5485C4.00396 17.3426 4.80396 16.503 5.00198 15.4416H2.98218V17.5485ZM5.08911 27.3941C4.88317 26.3723 4.04357 25.5723 2.98218 25.3743V27.3941H5.08911ZM12.1624 15.4416H6.00792C5.79406 17.0495 4.5505 18.3248 2.9901 18.5545V24.3762C4.59802 24.5901 5.87327 25.8337 6.10297 27.3941H12.1624V15.4416ZM31.8614 25.3743C30.8 25.5644 29.9604 26.3723 29.7545 27.3941H31.8614V25.3743ZM29.8416 15.4416C30.0317 16.503 30.8396 17.3426 31.8614 17.5485V15.4416H29.8416ZM22.705 27.3941H28.7485C28.9703 25.8257 30.2535 24.5901 31.8614 24.3762V18.5545C30.2931 18.3327 29.0574 17.0495 28.8436 15.4416H22.7129V27.3941H22.705ZM13.1525 27.3941H21.7149V15.4416H13.1525V27.3941ZM17.9604 32.5347H26.1188L21.9604 28.3842H13.802L17.9525 32.5347H17.9604Z" fill="black"/>
</svg>
