<?xml version="1.0" encoding="UTF-8" standalone="no"?>
<svg xmlns="http://www.w3.org/2000/svg" fill="none" height="2560" viewBox="0 0 136 136" width="2560">
<path d="M76.3548 31.027C81.1238 26.6752 81.462 19.2906 77.1102 14.5216C72.7583 9.7526 65.3737 9.41437 60.6047 13.7662C55.8357 18.118 55.4975 25.5026 59.8494 30.2716C64.1899 35.0406 71.5858 35.3788 76.3548 31.027Z" fill="#E8AD11"/>
<path d="M76.3548 31.027C81.1238 26.6752 81.462 19.2906 77.1102 14.5216C72.7583 9.7526 65.3737 9.41437 60.6047 13.7662C55.8357 18.118 55.4975 25.5026 59.8494 30.2716C64.1899 35.0406 71.5858 35.3788 76.3548 31.027Z" fill="#FBD44D"/>
<path d="M70.3909 24.3527C69.8385 24.9051 69.0944 25.2095 68.3277 25.2208L68.2262 25.187C67.7415 25.1757 67.2567 25.0404 66.8395 24.8036C66.4224 24.5556 66.0616 24.2174 65.8023 23.789C65.5994 23.462 65.4641 23.09 65.4077 22.6954C65.34 22.2557 65.3626 21.816 65.4753 21.3876C65.5881 20.9591 65.791 20.5646 66.0729 20.2263C66.3547 19.8881 66.7042 19.6062 67.0988 19.4146C67.4934 19.2229 67.9218 19.1215 68.3503 19.1215H68.463C69.2297 19.1327 69.9512 19.4484 70.4811 20.0121C70.56 20.091 70.6615 20.1587 70.7629 20.2038C70.8644 20.2489 70.9884 20.2714 71.1012 20.2714C71.2139 20.2714 71.3379 20.2489 71.4394 20.2038C71.5521 20.1587 71.6423 20.091 71.7325 20.0121C71.8115 19.9332 71.8791 19.8317 71.9355 19.719C71.9806 19.6062 72.0031 19.4935 72.0144 19.3695C72.0144 19.2455 71.9918 19.1327 71.958 19.02C71.9129 18.9072 71.8565 18.8058 71.7776 18.7269C71.1237 18.0391 70.2669 17.5656 69.3311 17.3852V16.0098C69.3424 15.7956 69.2748 15.5926 69.1507 15.4235C69.0267 15.2544 68.8463 15.1417 68.6434 15.0853C68.5194 15.0627 68.3841 15.0627 68.2601 15.0966C68.1361 15.1304 68.012 15.1868 67.9106 15.277C67.8091 15.3671 67.7189 15.4686 67.6625 15.5926C67.6062 15.7167 67.5723 15.8407 67.5723 15.976L67.5498 17.3965C66.3096 17.6333 65.1935 18.3548 64.4607 19.4146C64.0661 19.967 63.8068 20.5984 63.6827 21.2636C63.5249 22.0302 63.5474 22.8307 63.7617 23.586C63.9759 24.3414 64.3592 25.0179 64.8891 25.5816C65.543 26.2806 66.3998 26.7428 67.3356 26.9232L67.3018 28.3212C67.2905 28.5354 67.3581 28.7383 67.4822 28.9075C67.6062 29.0766 67.7866 29.1893 67.9895 29.2344C68.1135 29.2682 68.2488 29.257 68.3841 29.2344C68.5081 29.2006 68.6321 29.1442 68.7336 29.054C68.8351 28.9751 68.9252 28.8624 68.9816 28.7383C69.038 28.6143 69.0718 28.479 69.0718 28.355L69.1056 26.9345C70.0414 26.7654 70.9208 26.3031 71.5972 25.6041C71.6987 25.5139 71.7664 25.3899 71.8115 25.2659C71.8565 25.1419 71.8791 25.0066 71.8678 24.8713C71.8565 24.736 71.8115 24.6007 71.7438 24.488C71.6762 24.3752 71.586 24.2738 71.4732 24.2061C71.3041 24.1046 71.1124 24.0596 70.9095 24.0934C70.7178 24.1159 70.5375 24.2061 70.3909 24.3527Z" fill="#E8AD11"/>
<path d="M30.2228 36.2819C33.1168 36.2819 35.9812 36.843 38.6537 37.9504C41.3262 39.0578 43.7477 40.6819 45.8001 42.7195C47.8377 44.7719 49.4618 47.1934 50.5692 49.8658C51.6766 52.5383 52.2377 55.4028 52.2377 58.2967C52.2377 58.5477 52.1343 58.784 51.9571 58.9612C51.78 59.1384 51.5437 59.2269 51.2927 59.2269H30.208C29.957 59.2269 29.7208 59.1236 29.5436 58.9612C29.3664 58.784 29.2778 58.5477 29.2778 58.2967V37.2121C29.2778 37.094 29.3074 36.9611 29.3517 36.8578C29.396 36.7396 29.4698 36.6363 29.5584 36.5477C29.647 36.4591 29.7503 36.3853 29.8684 36.341C29.9718 36.3115 30.0899 36.2819 30.2228 36.2819Z" fill="#013D5B"/>
<path d="M53.3007 123.204H43.1866C42.5222 123.19 41.8725 122.953 41.3705 122.51C40.8685 122.067 40.5584 121.462 40.4846 120.798L39.0081 107.229C38.9638 106.859 39.0081 106.461 39.1262 106.121C39.2443 105.752 39.4362 105.427 39.6873 105.147C39.9383 104.866 40.2483 104.63 40.6027 104.482C40.9571 104.32 41.3262 104.246 41.7101 104.246H54.792C55.1759 104.246 55.5598 104.32 55.8994 104.482C56.2538 104.63 56.5639 104.851 56.8149 105.147C57.0659 105.427 57.2726 105.767 57.3759 106.121C57.4941 106.476 57.5384 106.859 57.4941 107.229L56.0175 120.798C55.9437 121.462 55.6189 122.067 55.1316 122.51C54.6296 122.968 53.9799 123.204 53.3007 123.204Z" fill="#013D5B"/>
<path d="M82.5212 123.204H72.6581C72.0084 123.19 71.3735 122.953 70.8863 122.51C70.399 122.067 70.0889 121.462 70.0151 120.798L68.5681 107.229C68.5238 106.859 68.5681 106.461 68.6862 106.121C68.8044 105.752 68.9815 105.427 69.2326 105.147C69.4836 104.866 69.7789 104.63 70.1332 104.482C70.4728 104.32 70.842 104.246 71.2111 104.246H83.983C84.3521 104.246 84.7212 104.32 85.0608 104.482C85.4004 104.63 85.7105 104.851 85.9615 105.147C86.2125 105.427 86.4044 105.767 86.5226 106.121C86.6407 106.476 86.685 106.859 86.6407 107.229L85.1789 120.798C85.1051 121.462 84.795 122.067 84.3078 122.525C83.8058 122.968 83.1709 123.204 82.5212 123.204Z" fill="#013D5B"/>
<path d="M60.816 123.204H50.6871C50.0227 123.204 49.373 122.953 48.871 122.51C48.369 122.067 48.0589 121.462 47.9851 120.798L46.5085 107.229C46.4643 106.859 46.5085 106.461 46.6267 106.121C46.7448 105.752 46.9367 105.427 47.1877 105.147C47.4388 104.866 47.7488 104.63 48.1032 104.482C48.4575 104.32 48.8267 104.246 49.2106 104.246H62.2925C62.6764 104.246 63.0603 104.32 63.3999 104.482C63.7543 104.63 64.0643 104.851 64.3154 105.147C64.5664 105.427 64.7583 105.767 64.8764 106.121C64.9946 106.476 65.0389 106.859 64.9946 107.229L63.518 120.798C63.4442 121.462 63.1341 122.067 62.6321 122.51C62.1301 122.968 61.4804 123.204 60.816 123.204Z" fill="#F8ADA4"/>
<path d="M90.0367 123.204H80.1588C79.5091 123.204 78.8742 122.953 78.387 122.51C77.8997 122.053 77.5897 121.447 77.5158 120.783L76.0689 107.214C76.0246 106.845 76.0689 106.446 76.1722 106.106C76.2903 105.737 76.4823 105.412 76.7185 105.132C76.9695 104.851 77.2796 104.615 77.6192 104.467C77.9588 104.305 78.3279 104.231 78.6971 104.231H91.4689C91.8381 104.231 92.2072 104.305 92.5468 104.467C92.8864 104.615 93.1965 104.836 93.4475 105.132C93.6985 105.412 93.8904 105.752 93.9938 106.106C94.1119 106.461 94.1414 106.845 94.1119 107.214L92.6649 120.783C92.5911 121.447 92.281 122.053 91.7938 122.496C91.3213 122.968 90.6864 123.204 90.0367 123.204Z" fill="#F8ADA4"/>
<path d="M123.701 90.5585C123.126 90.5585 122.565 90.3223 122.166 89.9236C121.752 89.5102 121.531 88.9639 121.531 88.3881C121.531 87.8122 121.767 87.2512 122.166 86.8525C122.579 86.4391 123.126 86.2176 123.701 86.2176C124.676 86.2176 125.621 85.9371 126.433 85.3908C127.245 84.8444 127.88 84.0767 128.249 83.176C128.618 82.2753 128.722 81.286 128.53 80.3263C128.338 79.3813 127.865 78.4954 127.186 77.8162C126.492 77.1223 125.621 76.6498 124.661 76.4726C123.701 76.2807 122.712 76.384 121.811 76.7532C120.911 77.1223 120.143 77.7719 119.597 78.5693C119.05 79.3813 118.77 80.3263 118.77 81.3156C118.785 81.6109 118.74 81.9209 118.652 82.1867C118.548 82.4673 118.401 82.7183 118.194 82.9397C117.987 83.1612 117.751 83.3384 117.471 83.4565C117.19 83.5746 116.909 83.6485 116.599 83.6485C116.304 83.6485 116.009 83.5894 115.728 83.4565C115.448 83.3384 115.211 83.176 115.005 82.9397C114.798 82.733 114.65 82.482 114.547 82.1867C114.444 81.9062 114.399 81.6109 114.429 81.3156C114.429 79.4847 114.975 77.6981 115.994 76.1773C117.013 74.6565 118.46 73.4753 120.158 72.7666C121.856 72.0726 123.716 71.8807 125.503 72.2498C127.289 72.6189 128.943 73.4901 130.242 74.7894C131.542 76.0887 132.413 77.7424 132.782 79.5438C133.136 81.3303 132.959 83.1908 132.25 84.9035C131.542 86.5867 130.361 88.0485 128.84 89.0525C127.334 90.0122 125.532 90.5585 123.701 90.5585Z" fill="#013D5B"/>
<path d="M85.7401 44.2255H49.152C30.6217 44.2255 15.6055 59.2417 15.6055 77.7571C15.6055 96.2726 30.6217 111.289 49.152 111.289H85.7548C104.285 111.289 119.301 96.2726 119.301 77.7571C119.287 59.2417 104.27 44.2255 85.7401 44.2255Z" fill="#F8ADA4"/>
<path d="M80.7938 49.0833H53.6554C53.2715 49.0833 52.9171 49.2162 52.6366 49.4672C52.3708 49.7182 52.2231 50.0578 52.2231 50.3974C52.2231 50.7518 52.3708 51.0914 52.6366 51.3276C52.9023 51.5786 53.2715 51.7115 53.6554 51.7115H80.7938C81.1777 51.7115 81.532 51.5786 81.8126 51.3276C82.0783 51.0766 82.226 50.737 82.226 50.3974C82.226 50.043 82.0783 49.7034 81.8126 49.4672C81.532 49.2162 81.1777 49.0833 80.7938 49.0833Z" fill="#013D5B"/>
<path d="M30.6066 65.3988H11.6333V95.8445H30.6066V65.3988Z" fill="#F8ADA4"/>
<path d="M39.0962 34.1114C45.0318 34.1114 50.7312 36.4296 54.9392 40.549C59.1325 44.6685 61.495 50.2645 61.495 56.0967C61.495 56.3477 61.3916 56.584 61.2144 56.7612C61.0373 56.9383 60.801 57.0417 60.55 57.0417H39.0519C38.8009 57.0417 38.5647 56.9383 38.3875 56.7612C38.2103 56.584 38.1069 56.3477 38.1069 56.0967V35.0121C38.1069 34.7611 38.2103 34.5249 38.3875 34.3477C38.5647 34.1705 38.8009 34.0819 39.0519 34.0819L39.0962 34.1114Z" fill="#F8ADA4"/>
<path d="M34.5635 74.2283C34.2682 74.2283 33.9877 74.1693 33.7219 74.0659C33.4561 73.9626 33.2199 73.8001 33.0132 73.5934C32.8065 73.3867 32.6441 73.1505 32.5407 72.8995C32.4373 72.6337 32.3783 72.3532 32.3783 72.0726V65.9303C32.3635 65.635 32.4078 65.3397 32.4964 65.0592C32.5998 64.7786 32.7622 64.5276 32.9689 64.3209C33.1756 64.1142 33.4266 63.937 33.7072 63.8189C33.9877 63.7008 34.283 63.6417 34.5783 63.6417C34.8736 63.6417 35.1837 63.7008 35.4494 63.8189C35.73 63.937 35.981 64.1142 36.1877 64.3209C36.3944 64.5424 36.5568 64.7934 36.6602 65.0592C36.7635 65.3397 36.8078 65.635 36.7783 65.9303V72.0726C36.7783 72.3532 36.7192 72.6337 36.6159 72.8995C36.5125 73.1652 36.3354 73.4015 36.1286 73.6082C35.9219 73.8149 35.6709 73.9626 35.4051 74.0807C35.1394 74.184 34.8441 74.2283 34.5635 74.2283Z" fill="#013D5B"/>
<path d="M19.2377 88.3733V72.9142C19.2377 68.6471 15.8269 65.1921 11.6188 65.1921C7.41076 65.1921 4 68.6471 4 72.9142V88.3733C4 92.6405 7.41076 96.0955 11.6188 96.0955C15.8269 96.0955 19.2377 92.6405 19.2377 88.3733Z" fill="#E05752"/>
<path d="M13.863 81.3008C13.6858 81.3008 13.5087 81.2565 13.3462 81.1974C13.1838 81.1236 13.0362 81.0055 12.918 80.8726C12.7999 80.7397 12.6966 80.5773 12.6227 80.4001C12.5489 80.2229 12.5194 80.0162 12.5194 79.8243V76.1773C12.5046 75.9706 12.5342 75.7638 12.5932 75.5867C12.6523 75.38 12.7556 75.2175 12.8738 75.0699C13.0066 74.9222 13.1543 74.8041 13.3167 74.7155C13.4939 74.6417 13.6711 74.5826 13.863 74.5826C14.055 74.5826 14.2321 74.6269 14.4093 74.7155C14.5865 74.8041 14.7342 74.9222 14.8523 75.0699C14.9852 75.2175 15.0738 75.3947 15.1328 75.5867C15.1919 75.7786 15.2214 75.9853 15.2066 76.1773V79.8243C15.2066 80.031 15.1771 80.2229 15.1033 80.4001C15.0295 80.5773 14.9409 80.7397 14.808 80.8726C14.6899 81.0055 14.5422 81.1236 14.365 81.1974C14.2174 81.2712 14.0402 81.3008 13.863 81.3008Z" fill="#013D5B"/>
<path d="M7.36687 81.3007C6.95344 81.3007 6.55478 81.1531 6.25948 80.8725C5.96417 80.592 5.80176 80.2081 5.80176 79.8094V76.1034C5.80176 75.69 5.96417 75.3208 6.25948 75.0403C6.55478 74.7598 6.95344 74.5974 7.36687 74.5974C7.78029 74.5974 8.17895 74.7598 8.47425 75.0403C8.76956 75.3208 8.93198 75.7047 8.93198 76.1034V79.8094C8.93198 80.2229 8.76956 80.592 8.47425 80.8725C8.19372 81.1531 7.79506 81.3007 7.36687 81.3007Z" fill="#013D5B"/>
</svg>
