<?xml version="1.0" encoding="UTF-8" standalone="no"?>
<svg xmlns="http://www.w3.org/2000/svg" fill="none" height="48" viewBox="0 0 40 48" width="40">
<path d="M19.9915 7.08434C24.6411 7.08434 34.3047 9.68675 34.3047 9.68675V24C34.3047 33.3427 21.5963 40.9157 19.9915 40.9157C18.3866 40.9157 5.6782 33.3427 5.6782 24C5.6782 19.3243 5.6782 9.68675 5.6782 9.68675C5.6782 9.68675 15.3158 7.08434 19.9915 7.08434ZM19.9915 6C15.229 6 5.79965 8.53301 5.40061 8.63711C4.9235 8.76723 4.60254 9.19229 4.60254 9.68675C4.60254 9.68675 4.60254 19.333 4.60254 24C4.60254 33.8631 17.684 42 20.0001 42C22.3163 42 35.3977 33.8545 35.3977 24V9.69542C35.3977 9.20096 35.0681 8.7759 34.5997 8.64578C34.2006 8.54169 24.7452 6 20.0001 6H19.9915ZM17.7794 30.6708C17.6319 30.6708 17.4931 30.6101 17.3977 30.5147L11.5423 24.6593C11.3341 24.4511 11.3341 24.1041 11.5423 23.8959L13.9972 21.441C14.1968 21.2414 14.5611 21.2414 14.7606 21.441L17.7707 24.4511L25.977 16.2448C26.0811 16.1407 26.2199 16.0887 26.3587 16.0887C26.5062 16.0887 26.6449 16.1494 26.7404 16.2448L29.1953 18.6998C29.4035 18.908 29.4035 19.2549 29.1953 19.4631L18.1524 30.506C18.0483 30.6101 17.9095 30.6622 17.7707 30.6622L17.7794 30.6708ZM12.696 24.2776L17.7794 29.361L28.0503 19.0901L26.3674 17.4072L18.1611 25.6135C17.9529 25.8217 17.6059 25.8217 17.3977 25.6135L14.3876 22.6034L12.7047 24.2863L12.696 24.2776Z" fill="black"/>
</svg>
