<?xml version="1.0" encoding="UTF-8" standalone="no"?>
<svg xmlns="http://www.w3.org/2000/svg" fill="none" height="48" viewBox="0 0 40 48" width="40">
<path d="M16.2005 27.5827C16.2005 27.8863 15.9576 28.1205 15.6627 28.1205H6.89253C6.58892 28.1205 6.3547 27.8776 6.3547 27.5827C6.3547 27.2877 6.59759 27.0448 6.89253 27.0448H15.6627C15.9663 27.0448 16.2005 27.2877 16.2005 27.5827ZM35.7099 16.1754C35.7099 16.4096 35.8487 16.6178 36.0655 16.6872C36.5513 16.8347 36.9157 17.2858 36.9157 17.8236V18.4222H36.2477C35.9528 18.4222 35.7099 18.6651 35.7099 18.96C35.7099 19.2636 35.9528 19.5065 36.2477 19.5065H36.9157V22.1002H36.2477C35.9528 22.1002 35.7099 22.3431 35.7099 22.6381C35.7099 22.9417 35.9528 23.1846 36.2477 23.1846H36.9157V33.8718C36.9157 34.5311 36.3865 35.0602 35.7272 35.0602H8.29783C7.85542 35.0602 7.47373 34.8174 7.26554 34.453C7.17012 34.2882 6.99663 34.1928 6.80578 34.1928C6.3894 34.1928 6.12916 34.6439 6.33735 35.0082C6.72771 35.6848 7.45639 36.1446 8.29783 36.1446H35.7272C36.9851 36.1446 38 35.1296 38 33.8718V17.8149C38 16.8 37.3234 15.9412 36.3952 15.6463C36.0482 15.5335 35.7012 15.8111 35.7012 16.1667L35.7099 16.1754ZM4.27277 32.4578C3.02361 32.4578 2 31.4342 2 30.1851V14.1282C2 12.879 3.02361 11.8554 4.27277 11.8554H31.7022C32.9513 11.8554 33.9749 12.879 33.9749 14.1282V30.1851C33.9749 31.4342 32.9513 32.4578 31.7022 32.4578H4.27277ZM3.08434 14.7354H32.8906V14.1369C32.8906 13.4776 32.3614 12.9484 31.7022 12.9484H4.27277C3.61349 12.9484 3.08434 13.4776 3.08434 14.1369V14.7354ZM3.08434 18.4135H32.8906V15.8198H3.08434V18.4135ZM31.7022 31.3735C32.3614 31.3735 32.8906 30.8443 32.8906 30.1851V19.4978H3.08434V30.1851C3.08434 30.8443 3.61349 31.3735 4.27277 31.3735H31.7022Z" fill="black"/>
</svg>
