<?xml version="1.0" encoding="UTF-8" standalone="no"?>
<svg xmlns="http://www.w3.org/2000/svg" fill="none" height="48" viewBox="0 0 40 48" width="40">
<path d="M30.9706 33.1394C31.1765 33.3452 31.1765 33.6883 30.9706 33.8942L26.8448 38.02C26.7419 38.1229 26.6046 38.1744 26.4674 38.1744C26.3301 38.1744 26.1929 38.1229 26.09 38.02L24.1857 36.1158C23.9799 35.9099 23.9799 35.5668 24.1857 35.361C24.3916 35.1551 24.7347 35.1465 24.9406 35.361L26.4674 36.8878L30.2158 33.1394C30.4216 32.9335 30.7647 32.9335 30.9706 33.1394ZM31.734 27.4353C31.571 27.341 31.4767 27.1608 31.4767 26.9721V9.33667C31.4767 9.0193 31.7511 8.77055 32.0685 8.80486C32.3516 8.83059 32.5489 9.08792 32.5489 9.37098V26.9807C32.5489 27.401 32.0942 27.6583 31.734 27.4439V27.4353ZM29.2208 6H12.9491C12.8033 6 12.6747 6.06004 12.5717 6.1544L5.61533 13.1279C5.5124 13.2309 5.46094 13.3681 5.46094 13.5054V36.6562C5.46094 36.9564 5.70111 37.188 5.99275 37.188H18.516C18.8505 37.188 19.1078 36.8792 19.0392 36.5533C18.9877 36.3045 18.7733 36.1158 18.516 36.1158H6.52455V14.0457H12.9491C13.2494 14.0457 13.481 13.8056 13.481 13.5139V7.06362H28.6804V25.9685C28.6804 26.2259 28.8605 26.4489 29.1178 26.4918C29.4524 26.5518 29.7526 26.3031 29.7526 25.9685V6.53181C29.7526 6.23159 29.5124 6 29.2208 6ZM12.4173 12.9907H7.27938L12.4173 7.86133V12.9907ZM19.9656 39.1866C20.18 39.5468 19.9227 40.0014 19.5024 40.0014H8.75472C8.4545 40.0014 8.22291 39.7613 8.22291 39.4696C8.22291 39.1694 8.46308 38.9378 8.75472 38.9378H19.5024C19.6911 38.9378 19.8627 39.0407 19.9656 39.1951V39.1866ZM27.5739 28.07C23.7311 28.07 20.6089 31.1923 20.6089 35.035C20.6089 38.8778 23.7311 42 27.5739 42C31.4166 42 34.5389 38.8778 34.5389 35.035C34.5389 31.1923 31.4166 28.07 27.5739 28.07ZM27.5739 40.9364C24.323 40.9364 21.6725 38.2945 21.6725 35.035C21.6725 31.7756 24.3144 29.1337 27.5739 29.1337C30.8333 29.1337 33.4752 31.7756 33.4752 35.035C33.4752 38.2945 30.8333 40.9364 27.5739 40.9364ZM10.5903 16.2416H8.88338C8.64321 16.2416 8.4545 16.4389 8.4545 16.6705V18.386C8.4545 18.6176 8.64321 18.8149 8.88338 18.8149H10.5903C10.8305 18.8149 11.0192 18.6176 11.0192 18.386V16.6705C11.0192 16.4389 10.8305 16.2416 10.5903 16.2416ZM10.1614 17.9571H9.31226V17.0994H10.1614V17.9571ZM10.5903 21.268H8.88338C8.64321 21.268 8.4545 21.4653 8.4545 21.6969V23.4124C8.4545 23.644 8.64321 23.8413 8.88338 23.8413H10.5903C10.8305 23.8413 11.0192 23.644 11.0192 23.4124V21.6969C11.0192 21.4653 10.8305 21.268 10.5903 21.268ZM10.1614 22.9836H9.31226V22.1258H10.1614V22.9836ZM10.5903 26.3031H8.88338C8.64321 26.3031 8.4545 26.5004 8.4545 26.732V28.4475C8.4545 28.6791 8.64321 28.8763 8.88338 28.8763H10.5903C10.8305 28.8763 11.0192 28.6791 11.0192 28.4475V26.732C11.0192 26.5004 10.8305 26.3031 10.5903 26.3031ZM10.1614 28.0186H9.31226V27.1608H10.1614V28.0186ZM10.5903 31.3381H8.88338C8.64321 31.3381 8.4545 31.5354 8.4545 31.767V33.4825C8.4545 33.7141 8.64321 33.9114 8.88338 33.9114H10.5903C10.8305 33.9114 11.0192 33.7141 11.0192 33.4825V31.767C11.0192 31.5354 10.8305 31.3381 10.5903 31.3381ZM10.1614 33.0536H9.31226V32.1959H10.1614V33.0536Z" fill="black"/>
</svg>
