<?xml version="1.0" encoding="UTF-8" standalone="no"?>
<svg xmlns="http://www.w3.org/2000/svg" fill="none" height="2560" viewBox="0 0 56 56" width="2560">
<g clip-path="url(#clip0_5522_26254)">
<path d="M28.0018 7.40623C34.1275 7.40623 46.859 10.8348 46.859 10.8348V29.6919C46.859 42.0005 30.1161 51.9777 28.0018 51.9777C25.8875 51.9777 9.14468 42.0005 9.14468 29.6919C9.14468 23.5319 9.14468 10.8348 9.14468 10.8348C9.14468 10.8348 21.8418 7.40623 28.0018 7.40623ZM28.0018 5.97766C21.7275 5.97766 9.30468 9.3148 8.77897 9.45195C8.1504 9.62338 7.72754 10.1834 7.72754 10.8348C7.72754 10.8348 7.72754 23.5434 7.72754 29.6919C7.72754 42.6862 24.9618 53.4062 28.0133 53.4062C31.0647 53.4062 48.299 42.6748 48.299 29.6919V10.8462C48.299 10.1948 47.8647 9.6348 47.2475 9.46338C46.7218 9.32623 34.2647 5.97766 28.0133 5.97766H28.0018ZM25.0875 38.4805C24.8933 38.4805 24.7104 38.4005 24.5847 38.2748L16.8704 30.5605C16.5961 30.2862 16.5961 29.8291 16.8704 29.5548L20.1047 26.3205C20.3675 26.0577 20.8475 26.0577 21.1104 26.3205L25.0761 30.2862L35.8875 19.4748C36.0247 19.3377 36.2075 19.2691 36.3904 19.2691C36.5847 19.2691 36.7675 19.3491 36.8932 19.4748L40.1275 22.7091C40.4018 22.9834 40.4018 23.4405 40.1275 23.7148L25.579 38.2634C25.4418 38.4005 25.259 38.4691 25.0761 38.4691L25.0875 38.4805ZM18.3904 30.0577L25.0875 36.7548L38.619 23.2234L36.4018 21.0062L25.5904 31.8177C25.3161 32.0919 24.859 32.0919 24.5847 31.8177L20.619 27.8519L18.4018 30.0691L18.3904 30.0577Z" fill="#141414"/>
</g>
<defs>
<clipPath id="clip0_5522_26254">
<rect fill="white" height="56" width="56"/>
</clipPath>
</defs>
</svg>
