<?xml version="1.0" encoding="UTF-8" standalone="no"?>
<svg xmlns="http://www.w3.org/2000/svg" fill="none" height="2560" viewBox="0 0 136 136" width="2560">
<path d="M123.67 75.9947L32.0341 89.0499C28.7703 89.4662 26.439 87.6844 26.0227 84.5372L18.6458 32.716C18.2462 29.5687 19.8947 27.1375 23.1585 26.7046L114.795 13.6493C118.059 13.233 120.39 15.0148 120.806 18.1621L128.183 69.9833C128.583 73.1472 126.934 75.5784 123.67 75.9947Z" fill="#0070A8"/>
<path d="M121.873 25.7719L19.729 40.3198L21.4172 52.1729L123.562 37.625L121.873 25.7719Z" fill="#013D5B"/>
<mask height="64" id="mask0_2405_3760" maskUnits="userSpaceOnUse" style="mask-type:luminance" width="104" x="7" y="57">
<path d="M110.248 57.6274H7.07227V120.606H110.248V57.6274Z" fill="white"/>
</mask>
<g mask="url(#mask0_2405_3760)">
<path d="M104.954 120.606H12.3847C9.08757 120.556 7.03936 118.474 7.07267 115.294V62.9396C7.12262 59.759 9.08757 57.5943 12.3847 57.6276H104.937C108.234 57.6775 110.282 59.759 110.249 62.9396V115.294C110.216 118.474 108.234 120.639 104.954 120.606Z" fill="#00132B"/>
<path d="M55.1135 102.438L17.8795 102.388C16.5307 102.388 15.4316 103.471 15.4316 104.819C15.4316 106.168 16.5307 107.267 17.8795 107.267L55.1302 107.317C56.479 107.317 57.578 106.218 57.578 104.886C57.5614 103.537 56.479 102.438 55.1135 102.438Z" fill="#255F82"/>
<path clip-rule="evenodd" d="M39.111 85.0534C38.9611 85.0201 38.7946 84.8203 38.7613 84.6538C38.7446 84.5372 38.7613 84.4706 38.9278 84.1542C39.5939 82.9053 39.8936 81.7563 39.8936 80.3575C39.8936 79.0087 39.6438 77.9596 38.9944 76.6941C38.8612 76.4276 38.7446 76.1778 38.7446 76.1445C38.7446 76.0113 38.8612 75.8115 38.9944 75.7449C39.1776 75.645 39.4607 75.6616 39.5939 75.7948C39.6438 75.8448 39.7937 76.0613 39.9103 76.2778C40.3765 77.1437 40.6763 78.0928 40.8261 79.092C40.9094 79.7081 40.9427 80.8571 40.8594 81.4399C40.7096 82.4723 40.4265 83.4049 39.9769 84.3041C39.6938 84.8536 39.5273 85.0701 39.3941 85.0701C39.3607 85.0701 39.3274 85.0701 39.2941 85.0867C39.2608 85.0867 39.1942 85.0867 39.111 85.0701V85.0534ZM37.2459 84.1042C36.9962 84.0376 36.8296 83.7545 36.8962 83.5381C36.9129 83.4881 37.0295 83.255 37.146 83.0052C37.6622 81.9894 37.8787 80.9237 37.7788 79.8413C37.6955 78.9754 37.529 78.4092 37.1294 77.6099C36.8629 77.0604 36.8463 76.9771 37.0128 76.7773C37.1627 76.5608 37.5457 76.5442 37.7288 76.7107C37.8621 76.8439 38.295 77.6932 38.4615 78.1761C39.0111 79.7913 38.9111 81.5232 38.2118 83.1218C37.8454 83.9544 37.5956 84.2042 37.2459 84.1042ZM35.3309 83.1551C35.1811 83.0885 35.0479 82.9386 35.0146 82.7887C34.9979 82.6888 35.0312 82.5889 35.2144 82.2559C35.8638 81.007 35.8638 79.7747 35.2477 78.5424C34.9646 77.9929 34.9646 77.893 35.1977 77.6765C35.3143 77.5766 35.3643 77.5433 35.5141 77.56C35.7806 77.56 35.9304 77.6932 36.1636 78.1761C36.5465 78.9088 36.6964 79.5749 36.6798 80.3908C36.6798 81.2401 36.5299 81.8229 36.1302 82.6056C35.8971 83.0552 35.7972 83.1717 35.5641 83.205C35.4975 83.1884 35.3809 83.1884 35.3309 83.1551ZM33.5325 82.2559C33.416 82.2059 33.2827 82.056 33.2494 81.9228C33.1995 81.7729 33.2494 81.6564 33.416 81.3733C33.6491 81.007 33.699 80.8238 33.699 80.3575C33.699 79.8913 33.6491 79.6914 33.4326 79.3251C33.366 79.1919 33.2827 79.0587 33.2661 79.0087C33.1828 78.7756 33.3993 78.4758 33.6657 78.4259C33.8989 78.3759 34.0487 78.4925 34.2652 78.8089C34.8813 79.7414 34.8813 80.9903 34.2652 81.9228C34.0321 82.2392 33.7823 82.3558 33.5325 82.2559Z" fill="#F9C606" fill-rule="evenodd"/>
<path d="M17.713 75.7449H28.3537C29.536 75.7449 30.4851 76.694 30.4851 77.8763V83.1883C30.4851 84.3706 29.536 85.3198 28.3537 85.3198H17.713C16.5307 85.3198 15.5815 84.3706 15.5815 83.1883V77.8763C15.5815 76.694 16.5474 75.7449 17.713 75.7449Z" fill="#E4E5E5"/>
<path clip-rule="evenodd" d="M21.5596 80.2409V73.6134H21.0601V80.2409H15.5815V80.7405H21.0601V87.368H21.5596V80.7405H25.0732V87.9342H25.5728V80.7405H30.4851V80.2409H25.5728V73.6134H25.0732V80.2409H21.5596Z" fill="#00132B" fill-rule="evenodd"/>
</g>
<path d="M17.7464 98.7247C18.7955 98.7247 19.6281 97.8755 19.6281 96.8431C19.6281 95.794 18.7789 94.9614 17.7464 94.9614C16.6973 94.9614 15.8647 95.8106 15.8647 96.8431C15.8647 97.8755 16.6973 98.7247 17.7464 98.7247Z" fill="#255F82"/>
<path d="M23.6078 98.7247C24.6568 98.7247 25.4894 97.8755 25.4894 96.8431C25.4894 95.794 24.6402 94.9614 23.6078 94.9614C22.5587 94.9614 21.7261 95.8106 21.7261 96.8431C21.7261 97.8755 22.5587 98.7247 23.6078 98.7247Z" fill="#D4D4D4"/>
<path d="M29.4693 98.7247C30.5184 98.7247 31.351 97.8755 31.351 96.8431C31.351 95.794 30.5018 94.9614 29.4693 94.9614C28.4202 94.9614 27.5876 95.8106 27.5876 96.8431C27.571 97.8755 28.4202 98.7247 29.4693 98.7247Z" fill="#255F82"/>
<path d="M35.3143 98.7247C36.3634 98.7247 37.196 97.8755 37.196 96.8431C37.196 95.794 36.3467 94.9614 35.3143 94.9614C34.2652 94.9614 33.4326 95.8106 33.4326 96.8431C33.4326 97.8755 34.2819 98.7247 35.3143 98.7247Z" fill="#255F82"/>
<path d="M43.6571 98.7247C44.7062 98.7247 45.5388 97.8755 45.5388 96.8431C45.5388 95.794 44.6895 94.9614 43.6571 94.9614C42.608 94.9614 41.7754 95.8106 41.7754 96.8431C41.7754 97.8755 42.6246 98.7247 43.6571 98.7247Z" fill="#255F82"/>
<path d="M49.5184 98.7247C50.5675 98.7247 51.4001 97.8755 51.4001 96.8431C51.4001 95.794 50.5508 94.9614 49.5184 94.9614C48.4693 94.9614 47.6367 95.8106 47.6367 96.8431C47.6367 97.8755 48.4693 98.7247 49.5184 98.7247Z" fill="#255F82"/>
<path d="M55.3631 98.7247C56.4122 98.7247 57.2448 97.8755 57.2448 96.8431C57.2448 95.794 56.3956 94.9614 55.3631 94.9614C54.3141 94.9614 53.4814 95.8106 53.4814 96.8431C53.4814 97.8755 54.3307 98.7247 55.3631 98.7247Z" fill="#D4D4D4"/>
<path d="M61.2249 98.7247C62.274 98.7247 63.1066 97.8755 63.1066 96.8431C63.1066 95.794 62.2574 94.9614 61.2249 94.9614C60.1759 94.9614 59.3433 95.8106 59.3433 96.8431C59.3433 97.8755 60.1925 98.7247 61.2249 98.7247Z" fill="#D4D4D4"/>
<path d="M70.117 98.7247C71.1661 98.7247 71.9987 97.8755 71.9987 96.8431C71.9987 95.794 71.1495 94.9614 70.117 94.9614C69.068 94.9614 68.2354 95.8106 68.2354 96.8431C68.2354 97.8755 69.068 98.7247 70.117 98.7247Z" fill="#D4D4D4"/>
<path d="M75.9786 98.7247C77.0277 98.7247 77.8603 97.8755 77.8603 96.8431C77.8603 95.794 77.011 94.9614 75.9786 94.9614C74.9295 94.9614 74.0969 95.8106 74.0969 96.8431C74.0803 97.8755 74.9295 98.7247 75.9786 98.7247Z" fill="#255F82"/>
<path d="M81.8236 98.7247C82.8727 98.7247 83.7053 97.8755 83.7053 96.8431C83.7053 95.794 82.856 94.9614 81.8236 94.9614C80.7745 94.9614 79.9419 95.8106 79.9419 96.8431C79.9419 97.8755 80.7912 98.7247 81.8236 98.7247Z" fill="#255F82"/>
<path d="M87.6852 98.7247C88.7342 98.7247 89.5668 97.8755 89.5668 96.8431C89.5668 95.794 88.7176 94.9614 87.6852 94.9614C86.6361 94.9614 85.8035 95.8106 85.8035 96.8431C85.7868 97.8755 86.6361 98.7247 87.6852 98.7247Z" fill="#255F82"/>
</svg>
