<?xml version="1.0" encoding="UTF-8" standalone="no"?>
<svg xmlns="http://www.w3.org/2000/svg" fill="none" height="48" viewBox="0 0 40 48" width="40">
<path d="M31.6718 8.08539C31.5999 7.95955 31.4741 7.86067 31.3303 7.82472L28.7235 7.1236C28.4179 7.0427 28.1123 7.22247 28.0314 7.5191L26.9348 11.627C26.2157 11.0697 25.4246 10.5933 24.5887 10.2247C24.3909 7.86067 22.4314 6 20.0224 6C17.6134 6 15.6539 7.86966 15.4561 10.2247C14.6022 10.6022 13.8022 11.0876 13.0741 11.6539L11.9685 7.5191C11.8876 7.22247 11.5819 7.0427 11.2763 7.1236L8.66959 7.82472C8.52577 7.86067 8.39992 7.95955 8.32801 8.08539C8.2561 8.21124 8.23813 8.37303 8.27408 8.51685L10.0808 15.1236C10.0808 15.1236 10.0808 15.1236 10.0808 15.1326C9.18195 16.7596 8.66959 18.6202 8.66959 20.6067L8.72352 29.1191V39.3214C8.72352 40.7955 9.72127 42 10.9437 42H29.1999C30.4224 42 31.4201 40.8045 31.4201 39.3214V28.9573L31.3662 20.6067C31.3662 18.6022 30.8449 16.7236 29.928 15.0966L31.7258 8.51685C31.7617 8.37303 31.7437 8.22023 31.6718 8.08539ZM20.0224 7.1236C21.6494 7.1236 23.0157 8.25618 23.3932 9.76629C22.3325 9.43371 21.1999 9.25393 20.0224 9.25393C18.8449 9.25393 17.7213 9.43371 16.6516 9.76629C17.0291 8.24719 18.3864 7.1236 20.0224 7.1236ZM9.50554 8.75955L11.0246 8.35506L12.1303 12.4629C11.6808 12.8944 11.2763 13.3708 10.9078 13.8652L9.51453 8.75056L9.50554 8.75955ZM30.2426 20.6067L30.2966 28.9573V39.3124C30.2966 40.1573 29.7932 40.8674 29.1999 40.8674H10.9437C10.3505 40.8674 9.84711 40.1573 9.84711 39.3124V29.1101L9.79318 20.6067C9.79318 14.9708 14.3775 10.3775 20.0224 10.3775C25.6673 10.3775 30.2426 14.9618 30.2426 20.6067ZM29.11 13.8382C28.7415 13.3438 28.328 12.8674 27.8876 12.4449L28.9842 8.35506L30.5033 8.75955L29.119 13.8382H29.11ZM26.8089 29.8292H13.3258C13.0112 29.8292 12.7685 30.0809 12.7685 30.3865V38.4764C12.7685 38.782 13.0201 39.0337 13.3258 39.0337H26.8089C27.1145 39.0337 27.3662 38.782 27.3662 38.4764V30.3865C27.3662 30.0809 27.1145 29.8292 26.8089 29.8292ZM26.2516 32.7056H16.2561C15.9415 32.7056 15.6988 32.9573 15.6988 33.2629C15.6988 33.5775 15.9505 33.8202 16.2561 33.8202H23.8876C23.8246 34.0899 23.8157 34.3955 23.8696 34.5843C23.9775 34.9708 24.373 35.2045 24.7595 35.0966C25.146 34.9888 25.3797 34.5933 25.2718 34.2067C25.2449 34.0899 25.173 33.9551 25.0831 33.8112H26.2516V37.9011H13.8921V30.9348H26.2516V32.6876V32.7056Z" fill="black"/>
</svg>
