<?xml version="1.0" encoding="UTF-8" standalone="no"?>
<svg xmlns="http://www.w3.org/2000/svg" fill="none" height="48" viewBox="0 0 40 48" width="40">
<path d="M36.0621 14.5308H3.93792C2.86421 14.5308 2 15.4037 2 16.4687V38.4493C2 39.523 2.87294 40.3873 3.93792 40.3873H36.0621C37.1358 40.3873 38 39.5143 38 38.4493V16.4687C38 15.395 37.1271 14.5308 36.0621 14.5308ZM36.9176 38.4493C36.9176 38.9207 36.5335 39.2961 36.0708 39.2961H3.93792C3.46654 39.2961 3.09117 38.912 3.09117 38.4493V25.1108C3.99903 26.2282 5.387 26.9527 6.94956 26.9527H17.6431V28.5502C17.6431 29.0914 18.0795 29.5279 18.6208 29.5279H21.388C21.9292 29.5279 22.3657 29.0914 22.3657 28.5502V26.9527H33.1028C34.6392 26.9527 36.0184 26.2369 36.9176 25.1196V38.4406V38.4493ZM18.7255 28.4454V26.9615H21.2745V28.4454H18.7255ZM36.9176 22.0468C36.9176 24.1506 35.2066 25.8703 33.1028 25.8703H6.94956C4.81959 25.8703 3.09117 24.1593 3.09117 22.0468V16.4687C3.09117 15.9973 3.47527 15.622 3.93792 15.622H36.0621C36.5335 15.622 36.9088 16.0061 36.9088 16.4687V22.0468H36.9176ZM27.9699 9.38919C27.7866 9.02256 27.4374 8.74322 27.0359 8.62101C22.4966 7.27668 17.6954 7.27668 13.1474 8.62101C12.7371 8.74322 12.3967 9.02256 12.2134 9.38919C12.0388 9.72964 12.0126 10.105 12.1348 10.4454L12.2745 10.8645C12.4229 11.2835 12.7459 11.589 13.1474 11.7287V12.235C13.1474 12.5405 13.3919 12.7762 13.6887 12.7762C13.9855 12.7762 14.2299 12.5318 14.2299 12.235V11.7199C18.0184 10.6288 21.999 10.62 25.7963 11.685V12.2437C25.7963 12.5492 26.0407 12.7849 26.3375 12.7849C26.6343 12.7849 26.8788 12.5405 26.8788 12.2437V11.7723C27.3414 11.6588 27.7342 11.3358 27.9001 10.8645L28.0398 10.4542C28.162 10.105 28.1358 9.72964 27.9612 9.38919H27.9699ZM27.0184 10.0963L26.8788 10.5066C26.8177 10.6811 26.6081 10.7772 26.4161 10.7161C22.2784 9.48522 17.9049 9.48522 13.7759 10.7161C13.5839 10.7772 13.3744 10.6811 13.3133 10.5066L13.1736 10.0875C13.1474 10.009 13.1736 9.93042 13.1911 9.88677C13.2435 9.78202 13.3395 9.70345 13.4704 9.66853C15.644 9.02256 17.87 8.69957 20.1048 8.69957C22.3395 8.69957 24.5655 9.02256 26.7391 9.66853C26.8613 9.70345 26.9573 9.78202 27.0097 9.88677C27.0359 9.93914 27.0621 10.009 27.0272 10.0963H27.0184Z" fill="black"/>
</svg>
