<?xml version="1.0" encoding="UTF-8" standalone="no"?>
<svg xmlns="http://www.w3.org/2000/svg" fill="none" height="40" viewBox="0 0 142 40" width="142">
<line stroke="#141414" stroke-width="0.278281" x1="64.4526" x2="64.4526" y1="-6.26092e-09" y2="27.451"/>
<path d="M26.2427 20.411L35.3228 11.2239H28.3537V8.34958H42.439L33.4247 17.5862H40.4721C40.8744 18.6755 41.6066 19.686 42.6117 20.4111H26.2426L26.2427 20.411ZM44.4367 15.6588H53.5311C53.6034 15.2487 53.6517 14.8386 53.6517 14.3803C53.6517 10.8342 51.1188 8.01181 47.5486 8.01181C43.7613 8.01181 41.1802 10.7859 41.1802 14.3803C41.1802 17.9746 43.7371 20.7487 47.7899 20.7487C50.1057 20.7487 51.9149 19.808 53.0486 18.1676L50.5399 16.7202C50.0092 17.4198 49.0443 17.9264 47.8381 17.9264C46.1977 17.9264 44.8709 17.2509 44.4367 15.6588ZM44.3885 13.2465C44.7504 11.7026 45.8841 10.8101 47.5485 10.8101C48.8511 10.8101 50.1538 11.5096 50.5398 13.2465H44.3885ZM7.01978 8.01181C5.25886 8.01181 3.98025 8.66312 3.1118 9.77273V8.34947H0V24.4434H3.1118V18.9876C3.98025 20.0973 5.25875 20.7485 7.01978 20.7485C10.2522 20.7485 12.9058 17.9744 12.9058 14.3801C12.9058 10.7857 10.2523 8.0116 7.01978 8.0116V8.01181ZM6.44074 17.7816C4.53506 17.7816 3.1118 16.4066 3.1118 14.3803C3.1118 12.354 4.53506 10.979 6.44074 10.979C8.37066 10.979 9.79392 12.354 9.79392 14.3803C9.79392 16.4066 8.37066 17.7816 6.44074 17.7816ZM26.5135 18.4776L24.6026 20.411H23.4016V18.9877C22.5333 20.0733 21.2305 20.7486 19.4696 20.7486C16.2613 20.7486 13.6077 17.9745 13.6077 14.3802C13.6077 10.7858 16.2612 8.0117 19.4696 8.0117C21.2305 8.0117 22.5333 8.68714 23.4016 9.77262V8.34937H26.5135V18.4774V18.4776ZM23.4016 14.3803C23.4016 12.354 21.9783 10.979 20.0485 10.979C18.1428 10.979 16.7196 12.354 16.7196 14.3803C16.7196 16.4066 18.1428 17.7816 20.0485 17.7816C21.9783 17.7816 23.4016 16.4066 23.4016 14.3803Z" fill="#141414"/>
<path d="M55.6495 6.76223C55.815 6.83158 55.9585 6.92767 56.0802 7.05049C56.2017 7.17332 56.2973 7.31745 56.3665 7.48289C56.4359 7.64833 56.4706 7.82589 56.4706 8.01556C56.4706 8.20773 56.4359 8.38591 56.3665 8.5501C56.2972 8.71428 56.2017 8.85716 56.0802 8.97874C55.9586 9.10031 55.815 9.19588 55.6495 9.26523C55.4841 9.33458 55.3054 9.36925 55.1132 9.36925C54.921 9.36925 54.7422 9.33458 54.5769 9.26523C54.4114 9.19588 54.2679 9.10041 54.1464 8.97874C54.0247 8.85716 53.9292 8.71418 53.8599 8.5501C53.7905 8.38591 53.7559 8.20773 53.7559 8.01556C53.7559 7.82589 53.7905 7.64833 53.8599 7.48289C53.9292 7.31745 54.0247 7.17332 54.1464 7.05049C54.2679 6.92767 54.4114 6.83158 54.5769 6.76223C54.7422 6.69288 54.921 6.6582 55.1132 6.6582C55.3054 6.6582 55.4841 6.69288 55.6495 6.76223ZM54.6553 6.94281C54.5155 7.0037 54.3944 7.08642 54.2923 7.19087C54.1901 7.29542 54.1104 7.41835 54.0533 7.55934C53.9962 7.70045 53.9676 7.85252 53.9676 8.01545C53.9676 8.17838 53.9961 8.33056 54.0533 8.47156C54.1104 8.61266 54.1901 8.73549 54.2923 8.84014C54.3945 8.94469 54.5155 9.02741 54.6553 9.08819C54.7952 9.14898 54.9478 9.17937 55.1132 9.17937C55.2761 9.17937 55.4276 9.14898 55.5675 9.08819C55.7074 9.02741 55.8284 8.94469 55.9306 8.84014C56.0327 8.73559 56.1131 8.61266 56.1714 8.47156C56.2298 8.33056 56.259 8.17849 56.259 8.01545C56.259 7.85242 56.2297 7.70045 56.1714 7.55934C56.1131 7.41824 56.0327 7.29542 55.9306 7.19087C55.8283 7.08632 55.7074 7.0036 55.5675 6.94281C55.4276 6.88203 55.2761 6.85153 55.1132 6.85153C54.9478 6.85153 54.7952 6.88203 54.6553 6.94281ZM54.6207 8.80003V7.23108H55.2227C55.4002 7.23108 55.5297 7.26816 55.6112 7.34231C55.6927 7.41657 55.7334 7.52415 55.7334 7.66525C55.7334 7.73335 55.7231 7.79299 55.7024 7.84406C55.6817 7.89513 55.6531 7.93837 55.6166 7.97357C55.5801 8.00887 55.5382 8.03686 55.4907 8.05754C55.4433 8.07822 55.3927 8.09347 55.3392 8.10318L55.8063 8.80014H55.5801L55.1386 8.10318H54.8139V8.80014H54.6204L54.6207 8.80003ZM55.2427 7.93336C55.2998 7.9297 55.3504 7.91947 55.3942 7.90234C55.4379 7.88531 55.4732 7.85805 55.5 7.82025C55.5267 7.78265 55.5401 7.73095 55.5401 7.66525C55.5401 7.60927 55.5297 7.56436 55.5091 7.53031C55.4884 7.49626 55.4604 7.4689 55.4251 7.44822C55.3898 7.42754 55.3503 7.41354 55.3065 7.40623C55.2628 7.39892 55.2165 7.39526 55.1678 7.39526H54.814V7.939H55.0693C55.1277 7.939 55.1855 7.93712 55.2426 7.93346L55.2427 7.93336Z" fill="#141414"/>
<path clip-rule="evenodd" d="M92.6772 15.5371H93.4684V10.7186L92.6983 10.8417V9.96267C93.2448 9.79918 93.6709 9.53371 94.097 9.14709H94.8269V15.5371H95.6181V16.6182H92.6772V15.5371Z" fill="#141414" fill-rule="evenodd"/>
<path clip-rule="evenodd" d="M98.5126 13.537C99.061 14.0467 99.3456 14.4353 99.3456 14.9046C99.3456 15.374 99.061 15.701 98.6749 15.701C98.2698 15.701 98.0655 15.3932 98.0655 14.8238C98.0655 14.3929 98.2278 13.9255 98.5126 13.537ZM98.8585 11.9019C98.4724 11.473 98.2698 11.1268 98.2698 10.7401C98.2698 10.29 98.5126 10.0245 98.7572 10.0245C99.082 10.0245 99.3056 10.3112 99.3056 10.7805C99.3056 11.1671 99.1431 11.5153 98.8603 11.9019M97.945 12.9233C97.215 13.4966 96.8691 14.089 96.8691 14.8642C96.8691 16.0068 97.5991 16.7416 98.6731 16.7416C99.81 16.7416 100.538 16.0068 100.538 14.7392C100.538 13.9044 100.192 13.208 99.5044 12.5155C100.112 11.9443 100.397 11.3922 100.397 10.6785C100.397 9.69947 99.7469 9.02429 98.7342 9.02429C97.7999 9.02429 97.0909 9.78025 97.0909 10.9036C97.0909 11.6576 97.3755 12.3309 97.9432 12.9233" fill="#141414" fill-rule="evenodd"/>
<path clip-rule="evenodd" d="M102.4 12.8406V12.0654C102.4 10.6574 102.421 10.0245 102.826 10.0245C103.231 10.0245 103.272 10.6593 103.272 12.0654V13.637C103.272 15.0258 103.251 15.6798 102.826 15.6798C102.402 15.6798 102.4 15.0258 102.4 13.637V12.8406ZM101.001 12.8618C101.001 15.4547 101.59 16.7416 102.847 16.7416C104.105 16.7416 104.674 15.4355 104.674 12.8618C104.674 10.2881 104.066 9.02429 102.807 9.02429C101.63 9.02429 101.001 10.3112 101.001 12.8618Z" fill="#141414" fill-rule="evenodd"/>
<path clip-rule="evenodd" d="M106.733 12.8406V12.0654C106.733 10.6574 106.773 10.0245 107.18 10.0245C107.587 10.0245 107.625 10.6593 107.625 12.0654V13.637C107.625 15.0258 107.585 15.6798 107.18 15.6798C106.775 15.6798 106.733 15.0258 106.733 13.637V12.8406ZM105.332 12.8618C105.332 15.4547 105.942 16.7416 107.199 16.7416C108.374 16.7416 109.024 15.4355 109.024 12.8618C109.024 10.2881 108.395 9.02429 107.159 9.02429C105.923 9.02429 105.332 10.3112 105.332 12.8618Z" fill="#141414" fill-rule="evenodd"/>
<path clip-rule="evenodd" d="M96.5793 12.9995C96.5793 13.3111 96.3289 13.5612 96.0212 13.5612C95.7136 13.5612 95.4614 13.3092 95.4614 12.9995C95.4614 12.6898 95.7118 12.4359 96.0212 12.4359C96.3309 12.4359 96.5793 12.6879 96.5793 12.9995Z" fill="#141414" fill-rule="evenodd"/>
<path d="M85.9358 19.4722H85.0415V17.9392H85.9358V16.5735C85.9358 14.9904 86.639 14.4672 87.776 14.4672C88.0951 14.4672 88.4028 14.4845 88.7219 14.5172V16.1156C88.6072 16.1003 88.4926 16.1003 88.376 16.1003C87.8773 16.1003 87.6996 16.2945 87.6996 16.8023V17.9392H88.7219V19.4722H87.6996V26.7201H85.9377V19.4722H85.9358Z" fill="#141414"/>
<path d="M91.1607 14.6956H89.397V26.7196H91.1607V14.6956Z" fill="#141414"/>
<path d="M94.8791 17.7078C97.0001 17.6597 97.5888 19.2755 97.5888 22.3263C97.5888 25.377 96.8988 26.9466 94.8791 26.9466C92.758 26.9967 92.1714 25.379 92.1714 22.3263C92.1714 19.2736 92.8612 17.7078 94.8791 17.7078ZM94.8791 25.4137C95.5956 25.4137 95.825 24.5153 95.825 22.3282C95.825 20.1411 95.5956 19.2448 94.8791 19.2448C94.0116 19.2448 93.9351 20.5335 93.9351 22.3282C93.9351 24.1229 94.0116 25.4137 94.8791 25.4137Z" fill="#141414"/>
<path d="M97.7798 17.9379H99.5417L100.346 24.1739H100.373L101.229 17.9379H103.144L104.053 24.1739H104.078L104.907 17.9379H106.595L105.112 26.7207H103.105L102.2 20.4846H102.175L101.317 26.7207H99.2741L97.7798 17.9379Z" fill="#141414"/>
<path d="M108.458 22.6719V23.374C108.458 24.4031 108.676 25.415 109.326 25.415C109.912 25.415 110.155 24.8436 110.258 23.7663H111.842C111.777 25.8073 111.013 26.9499 109.351 26.9499C106.796 26.9499 106.694 24.4358 106.694 22.2487C106.694 19.8981 107.052 17.7111 109.429 17.7111C111.485 17.7111 111.946 19.475 111.946 22.1679V22.6738H108.458V22.6719ZM110.258 21.3331C110.22 19.9943 110.092 19.2441 109.364 19.2441C108.636 19.2441 108.456 20.1751 108.456 20.9907V21.3331H110.256H110.258Z" fill="#141414"/>
<path d="M112.61 17.9375H114.298V19.1128H114.323C114.68 18.2645 115.179 17.7086 115.907 17.7086C116.01 17.7086 116.122 17.7259 116.226 17.7413V19.8957C116.046 19.8803 115.855 19.863 115.675 19.863C115.062 19.863 114.372 20.2708 114.372 21.4461V26.7186H112.608V17.9375H112.61Z" fill="#141414"/>
<path d="M118.155 23.8466V24.141C118.155 24.9084 118.474 25.4145 119.074 25.4145C119.611 25.4145 119.968 25.072 119.968 24.3699C119.968 23.7985 119.674 23.5369 119.33 23.3735L118.09 22.8021C117.119 22.3617 116.62 21.5942 116.62 20.3535C116.62 18.9012 117.335 17.7086 119.151 17.7086C120.748 17.7086 121.501 18.6223 121.501 20.2073V20.567H119.917C119.917 19.686 119.712 19.2455 119.137 19.2455C118.69 19.2455 118.308 19.5706 118.308 20.1939C118.308 20.617 118.487 20.9767 119.074 21.221L120.135 21.6769C121.247 22.1501 121.656 22.8677 121.656 24.1911C121.656 26.0358 120.582 26.9494 119.101 26.9494C117.121 26.9494 116.571 25.8395 116.571 24.1582V23.8487H118.155V23.8466Z" fill="#141414"/>
<path clip-rule="evenodd" d="M122.025 26.1999C122.025 26.0249 122.078 25.8846 122.197 25.7653C122.304 25.6556 122.457 25.592 122.619 25.592C122.793 25.592 122.944 25.6576 123.051 25.7653C123.171 25.8846 123.225 26.0269 123.225 26.1999C123.225 26.3635 123.171 26.5155 123.051 26.6252C122.932 26.7442 122.793 26.8098 122.619 26.8098C122.457 26.8098 122.315 26.7424 122.197 26.6252C122.078 26.5155 122.025 26.3635 122.025 26.1999Z" fill="#141414" fill-rule="evenodd"/>
<path clip-rule="evenodd" d="M125.456 26.7771C124.206 26.7771 123.552 25.7595 123.552 23.7628C123.552 21.6065 124.305 20.4697 125.475 20.4697C126.547 20.4697 127.141 21.2084 127.141 22.626V22.8241H125.912V22.5664C125.912 21.8874 125.773 21.5488 125.517 21.5488C125.159 21.5488 125.119 22.1067 125.119 23.2243C125.119 24.842 125.198 25.5806 125.576 25.5806C125.893 25.5806 126.09 25.1825 126.09 24.3823V24.3015L127.24 24.3418C127.24 25.9172 126.566 26.7771 125.456 26.7771Z" fill="#141414" fill-rule="evenodd"/>
<path clip-rule="evenodd" d="M129.609 21.5882C130.066 21.5882 130.163 22.2249 130.163 23.6215C130.163 25.0178 130.045 25.6374 129.609 25.6374C129.211 25.6374 129.074 24.9793 129.074 23.6215C129.074 22.2634 129.211 21.5882 129.609 21.5882ZM127.606 23.6215C127.606 25.6989 128.319 26.7761 129.609 26.7761C130.899 26.7761 131.631 25.6989 131.631 23.6215C131.631 21.544 130.937 20.4495 129.609 20.4495C128.281 20.4495 127.606 21.5267 127.606 23.6215Z" fill="#141414" fill-rule="evenodd"/>
<path clip-rule="evenodd" d="M132.128 20.6101H133.496V21.1488C133.872 20.7102 134.249 20.4697 134.665 20.4697C135.12 20.4697 135.437 20.7082 135.617 21.1488C136.012 20.7102 136.391 20.4697 136.807 20.4697C137.461 20.4697 137.738 20.8467 137.738 21.6469V26.6386H136.37V22.0451C136.37 21.8066 136.27 21.6681 136.052 21.6681C135.894 21.6681 135.735 21.7681 135.617 21.9682V26.6386H134.249V22.0451C134.249 21.8066 134.128 21.6681 133.931 21.6681C133.752 21.6681 133.614 21.7681 133.494 21.9682V26.6386H132.125V20.6101H132.128Z" fill="#141414" fill-rule="evenodd"/>
<path d="M140.689 20.1039C140.854 20.1733 140.998 20.2693 141.119 20.3922C141.241 20.515 141.336 20.6591 141.406 20.8246C141.475 20.99 141.51 21.1676 141.51 21.3572C141.51 21.5494 141.475 21.7276 141.406 21.8918C141.336 22.056 141.241 22.1988 141.119 22.3204C140.998 22.442 140.854 22.5376 140.689 22.6069C140.523 22.6763 140.344 22.7109 140.152 22.7109C139.96 22.7109 139.781 22.6763 139.616 22.6069C139.451 22.5376 139.307 22.4421 139.185 22.3204C139.064 22.1988 138.968 22.0559 138.899 21.8918C138.83 21.7276 138.795 21.5494 138.795 21.3572C138.795 21.1676 138.83 20.99 138.899 20.8246C138.968 20.6591 139.064 20.515 139.185 20.3922C139.307 20.2693 139.451 20.1733 139.616 20.1039C139.781 20.0346 139.96 19.9999 140.152 19.9999C140.344 19.9999 140.523 20.0346 140.689 20.1039ZM139.694 20.2845C139.555 20.3454 139.433 20.4281 139.331 20.5325C139.229 20.6371 139.15 20.76 139.092 20.901C139.035 21.0421 139.007 21.1942 139.007 21.3571C139.007 21.5201 139.035 21.6722 139.092 21.8132C139.15 21.9543 139.229 22.0772 139.331 22.1818C139.434 22.2864 139.555 22.3691 139.694 22.4299C139.834 22.4907 139.987 22.521 140.152 22.521C140.315 22.521 140.467 22.4907 140.607 22.4299C140.746 22.3691 140.868 22.2864 140.97 22.1818C141.072 22.0773 141.152 21.9543 141.21 21.8132C141.269 21.6722 141.298 21.5202 141.298 21.3571C141.298 21.1941 141.269 21.0421 141.21 20.901C141.152 20.7599 141.072 20.6371 140.97 20.5325C140.867 20.428 140.746 20.3453 140.607 20.2845C140.467 20.2237 140.315 20.1932 140.152 20.1932C139.987 20.1932 139.834 20.2237 139.694 20.2845ZM139.66 22.1417V20.5728H140.262C140.439 20.5728 140.569 20.6098 140.65 20.684C140.732 20.7582 140.772 20.8658 140.772 21.0069C140.772 21.075 140.762 21.1347 140.741 21.1857C140.721 21.2368 140.692 21.28 140.656 21.3152C140.619 21.3505 140.577 21.3785 140.53 21.3992C140.482 21.4199 140.432 21.4351 140.378 21.4449L140.845 22.1418H140.619L140.178 21.4449H139.853V22.1418H139.66L139.66 22.1417ZM140.282 21.275C140.339 21.2714 140.389 21.2611 140.433 21.244C140.477 21.227 140.512 21.1997 140.539 21.1619C140.566 21.1243 140.579 21.0726 140.579 21.0069C140.579 20.9509 140.569 20.906 140.548 20.872C140.527 20.8379 140.499 20.8106 140.464 20.7899C140.429 20.7692 140.389 20.7552 140.346 20.7479C140.302 20.7406 140.256 20.7369 140.207 20.7369H139.853V21.2807H140.108C140.167 21.2807 140.225 21.2788 140.282 21.2751L140.282 21.275Z" fill="#141414"/>
<path d="M83.1434 13.5444C83.0421 13.5155 82.9466 13.5655 82.916 13.6694C82.123 15.3352 81.3988 17.0972 80.9306 18.9073C80.3994 17.0972 79.6732 15.3545 78.8038 13.706C77.0935 10.4609 75.2552 7.25631 72.4921 5.23659C72.4004 5.15387 72.2685 5.16926 72.1997 5.27696C72.129 5.38661 72.1481 5.54435 72.2379 5.62898C74.7145 7.94686 75.9871 11.492 77.6056 14.6023C78.9012 18.1532 80.1299 21.933 79.7286 25.8744C79.7974 26.5996 80.342 27.117 80.9535 27.0342C81.2019 26.9997 81.4179 26.8688 81.586 26.6804C81.7637 26.4803 81.8822 26.2168 81.9204 25.9205C81.6682 24.6009 81.5707 23.2679 81.6242 21.9426C81.672 20.7616 81.8344 19.5882 82.1249 18.4418C82.5147 16.8933 83.0994 15.3852 83.2676 13.7714C83.2963 13.6675 83.2466 13.5713 83.1434 13.5425" fill="#141414"/>
<path d="M85.5643 6.50103C84.1082 8.38998 83.2158 11.0118 83.877 13.3393C83.898 13.4162 83.9725 13.4701 84.0509 13.4682C85.9618 13.4181 87.5554 12.1447 88.2204 10.2231C89.0784 7.74365 88.1191 5.71623 89.9211 3.45607C89.9555 3.41375 89.9135 3.3541 89.8638 3.37335C88.1363 4.08698 86.5732 5.05068 85.5624 6.50103" fill="#141414"/>
<path d="M86.8755 4.04344C86.6061 2.52383 85.6506 1.13695 84.1773 0.413695C84.141 0.396383 84.1009 0.425236 84.1028 0.465631C84.2098 2.45458 82.6868 3.79722 81.4734 5.31683C80.4893 6.54789 79.9867 8.0579 80.2466 9.57558C80.474 10.9009 81.4963 12.484 82.9066 12.9052C82.9543 12.9187 82.9964 12.8745 82.9849 12.8264C82.1632 9.49093 84.4066 6.00546 86.8736 4.04152" fill="#141414"/>
</svg>
