<?xml version="1.0" encoding="UTF-8" standalone="no"?>
<svg xmlns="http://www.w3.org/2000/svg" fill="none" height="48" viewBox="0 0 40 48" width="40">
<path d="M20.6371 28.3568L19.5848 28.0337C18.9571 27.8676 18.6987 27.7384 18.4402 27.4891C18.1817 27.2399 18.0987 27.046 18.0894 26.6953C18.071 26.2522 18.1725 25.9753 18.4402 25.6799C18.7725 25.3476 19.0956 25.1445 19.6956 25.1261C20.4987 25.0891 20.711 25.2738 21.4217 25.7722L21.5233 25.8461C21.7817 26.0307 22.1417 25.9661 22.3263 25.7076C22.511 25.4491 22.4463 25.0891 22.1879 24.9045L22.0863 24.8307C21.5602 24.4614 21.1356 24.1753 20.554 24.0461V22.6984C20.554 22.3753 20.2864 22.1261 19.9725 22.1261C19.6587 22.1261 19.4002 22.3845 19.4002 22.7076V24.0184C18.5325 24.1199 17.9879 24.5168 17.6002 24.8953C17.1018 25.4491 16.8987 26.003 16.9264 26.7507C16.9541 27.3876 17.1571 27.8584 17.6279 28.3291C18.0987 28.7814 18.5787 28.966 19.2525 29.1507L20.3417 29.483C20.8956 29.6307 21.3017 29.7322 21.6156 30.1106C21.8094 30.3506 21.8925 30.6091 21.9017 30.9691C21.8833 31.4491 21.7263 31.7537 21.3202 32.1045C20.9694 32.3999 20.5725 32.5568 20.0094 32.6029C20.0094 32.6029 20.0002 32.6029 19.991 32.6029C19.9817 32.6029 19.9633 32.6029 19.954 32.6029C19.8802 32.6029 19.8064 32.6214 19.7233 32.6214C19.114 32.6399 18.4494 32.4829 17.9048 32.1876C17.6279 32.0399 17.2771 32.1414 17.1202 32.4183C16.9633 32.6953 17.0741 33.046 17.351 33.2029C17.9694 33.5353 18.7079 33.7291 19.4187 33.766V35.0214C19.4187 35.3445 19.6864 35.5937 20.0002 35.5937C20.314 35.5937 20.5725 35.3352 20.5725 35.0122V33.6737C21.1448 33.5537 21.634 33.3322 22.0587 32.9722C22.714 32.4091 23.0186 31.7999 23.0463 30.9599C23.0279 30.323 22.8525 29.8153 22.5017 29.3722C21.9479 28.6984 21.274 28.523 20.6279 28.3568H20.6371ZM25.3725 16.7907C25.834 16.4861 26.1386 15.96 26.1386 15.3692C26.1386 15.0553 26.0556 14.7692 25.9079 14.52C25.6863 14.1415 25.2802 13.9107 24.8463 13.8184L24.6709 13.7815C24.3386 13.7077 24.0063 13.68 23.6648 13.68L16.3818 13.6984C15.9571 13.6984 15.5233 13.7538 15.1079 13.8738C14.6002 14.0123 14.1479 14.3538 13.9818 14.8523C13.9264 15.0276 13.8895 15.2123 13.8895 15.4061C13.8895 15.9784 14.1756 16.4769 14.6095 16.7815C9.60641 20.0399 6.58796 27.166 6.59719 32.3353C6.61565 38.7783 11.1295 42.0275 20.0279 41.9998C28.9171 41.9721 33.4217 38.6952 33.4032 32.2614C33.3848 27.1199 30.3478 20.0399 25.3725 16.7907ZM15.5879 14.8523L24.4309 14.8246H24.4494C24.4863 14.8246 24.514 14.8338 24.5509 14.8338C24.7909 14.8892 24.9756 15.1015 24.9756 15.36C24.9756 15.6553 24.7356 15.9046 24.4309 15.9046L15.5879 15.9323C15.2925 15.9323 15.0433 15.6923 15.0433 15.3876C15.0433 15.083 15.2833 14.843 15.5879 14.843V14.8523ZM20.0279 40.846C11.7849 40.8644 7.77872 38.086 7.76026 32.326C7.7418 27.0553 11.2033 19.6245 16.4002 17.0861L23.5356 17.0676C28.7417 19.5876 32.2401 26.9999 32.2586 32.2614C32.2771 38.0121 28.2802 40.8183 20.0371 40.846H20.0279ZM13.8895 8.73229H15.4033L16.1048 11.4277C16.1694 11.6769 16.391 11.8523 16.6494 11.8523H16.6771C17.0464 11.8523 17.3141 11.5015 17.2218 11.1507L16.2064 7.16307L23.6556 7.14461L22.6586 11.1323C22.5663 11.4923 22.8433 11.8338 23.2033 11.8338H23.231C23.4894 11.8338 23.711 11.6584 23.7756 11.4092L24.4586 8.7046H25.9725C25.7602 9.31383 25.4463 10.1354 25.0956 11.0677C24.9571 11.4369 25.234 11.8338 25.6217 11.8338C25.8617 11.8338 26.074 11.6861 26.1479 11.4646C26.7848 9.70152 27.3202 8.31691 27.3202 8.31691C27.3848 8.14153 27.3571 7.94768 27.2463 7.79076C27.1355 7.64307 26.9602 7.55076 26.7756 7.55076H24.7263L24.9294 6.71077C24.9663 6.53538 24.9294 6.36 24.8186 6.22154C24.7079 6.08308 24.5417 6 24.3663 6L15.4587 6.02769C15.2833 6.02769 15.1171 6.11077 15.0064 6.24923C14.8956 6.38769 14.8587 6.57231 14.9048 6.73846L15.1079 7.58768H13.0587C12.8741 7.58768 12.6987 7.68922 12.5879 7.83691C12.4772 7.99384 12.4495 8.18768 12.5141 8.36307C12.5141 8.36307 13.0587 9.73844 13.7048 11.5015C13.7879 11.723 14.0002 11.8707 14.2402 11.8707C14.6372 11.8707 14.9048 11.4738 14.7664 11.1046C14.4156 10.1723 14.0925 9.35075 13.8802 8.74153L13.8895 8.73229Z" fill="black"/>
</svg>
