<?xml version="1.0" encoding="UTF-8" standalone="no"?>
<svg xmlns="http://www.w3.org/2000/svg" fill="none" height="60" viewBox="0 0 39 47" width="49">
<path clip-rule="evenodd" d="M37.1281 13.5509C37.1281 17.0283 35.1634 20.6991 31.5068 21.2295C32.3765 19.2232 32.8736 17.0947 32.8736 15.0588V11.1068H37.1281V13.5509ZM19.3222 28.9531C12.5382 28.9531 7.27636 21.4845 7.27636 15.0588V5.84499C7.27636 5.66702 7.23958 5.50211 7.22297 5.32889C15.2302 4.67517 23.4178 4.67754 31.4202 5.33601C31.4048 5.50686 31.368 5.6694 31.368 5.84499V15.0588C31.368 21.4845 26.1062 28.9531 19.3222 28.9531V28.9531ZM21.0128 39.4411H17.6232C17.6493 39.3652 17.6719 39.2857 17.6719 39.2003V30.3163C18.2129 30.4017 18.761 30.4598 19.3222 30.4598C19.8834 30.4598 20.4315 30.4017 20.9725 30.3163V39.2406C20.9725 39.3118 20.9939 39.3771 21.0128 39.4411V39.4411ZM26.5191 42.7524H12.1253C12.3507 41.6609 12.9784 40.9479 13.5585 40.9479H25.0859C25.6661 40.9479 26.2925 41.6609 26.5191 42.7524V42.7524ZM7.26689 45.4979H31.3764V44.2604H7.26689V45.4979ZM1.50806 13.5509V11.1068H5.76972V15.0588C5.76972 17.0959 6.26802 19.2244 7.13886 21.2306C3.47635 20.7062 1.50806 17.0307 1.50806 13.5509V13.5509ZM5.63559 2.1292C14.7498 1.28802 24.0182 1.30225 33.0077 2.13513C32.4798 2.6014 32.0633 3.18749 31.7786 3.85189C23.5412 3.16021 15.1057 3.15783 6.86354 3.84478C6.5788 3.18156 6.16236 2.59428 5.63559 2.1292V2.1292ZM37.8816 9.60003H32.8736V5.84498C32.8736 3.9455 34.3235 2.4589 36.1743 2.4589C36.5741 2.4589 36.9039 2.14806 36.9265 1.7506C36.9502 1.35078 36.6572 1.00434 36.2609 0.958068C25.2093 -0.30904 13.6214 -0.326837 2.38473 0.949763C1.98727 0.993661 1.69541 1.34129 1.71677 1.73993C1.73931 2.13975 2.06914 2.45179 2.46896 2.45179C4.32098 2.45179 5.76961 3.94076 5.76961 5.84498V9.60003H0.75457C0.338133 9.60003 0 9.93817 0 10.3546V13.5508C0 18.0593 2.95659 22.7148 7.90756 22.7991C9.75484 26.1235 12.6758 28.8831 16.1651 29.9604V39.2003C16.1651 39.2857 16.1877 39.3652 16.2138 39.4411H13.5585C12.0719 39.4411 10.8665 40.84 10.5877 42.7525H6.51351C6.09826 42.7525 5.76131 43.0906 5.76131 43.5059V46.2513C5.76131 46.6665 6.09826 47.0046 6.51351 46.9999H32.1297C32.5462 47.0046 32.8843 46.6665 32.8843 46.2513V43.5059C32.8843 43.0906 32.5462 42.7525 32.1297 42.7525H28.0567C27.7767 40.84 26.5737 39.4411 25.0859 39.4411H22.439C22.458 39.3771 22.4793 39.3118 22.4793 39.2406V29.9604C25.9686 28.8831 28.8896 26.1235 30.7369 22.7979C35.6819 22.7077 38.6361 18.0569 38.6361 13.5508V10.3546C38.6361 9.93817 38.2968 9.60003 37.8816 9.60003V9.60003ZM18.2201 26.5661C18.1276 26.8994 17.825 27.1177 17.4964 27.1177C17.4288 27.1177 17.3611 27.1094 17.2923 27.0893C14.8851 26.4178 12.5347 24.5396 10.8453 21.9319C10.6175 21.5842 10.7171 21.1168 11.0659 20.8914C11.4159 20.6636 11.8834 20.7632 12.1088 21.1132C13.6013 23.4149 15.6396 25.064 17.6981 25.6383C18.0991 25.7486 18.3328 26.165 18.2201 26.5661V26.5661ZM21.6441 14.4692C21.4673 14.6412 21.3866 14.8892 21.4282 15.1312L21.8434 17.5527L19.6699 16.4102C19.4516 16.2951 19.1917 16.2951 18.9722 16.4102L16.7999 17.5527L17.2151 15.1312C17.2567 14.8892 17.176 14.6412 16.9992 14.4692L15.2421 12.756L17.6719 12.4024C17.9151 12.3668 18.1251 12.2138 18.2343 11.9931L19.3211 9.79107L20.4078 11.9931C20.5182 12.2138 20.7294 12.3668 20.9726 12.4024L23.4024 12.756L21.6441 14.4692ZM25.1191 11.4924L21.5776 10.9775L19.9937 7.7682C19.741 7.25566 18.9034 7.25566 18.6507 7.7682L17.0656 10.9775L13.5241 11.4924C13.2429 11.5327 13.008 11.7309 12.9202 12.0002C12.8312 12.2731 12.906 12.5697 13.1101 12.769L15.6727 15.2653L15.0665 18.7949C15.019 19.0749 15.1341 19.3596 15.3655 19.5269C15.5968 19.6966 15.9005 19.7179 16.1533 19.5839L19.321 17.9193L22.4888 19.5839C22.5991 19.642 22.7178 19.6693 22.8376 19.6693C22.993 19.6693 23.1473 19.6218 23.2778 19.5269C23.5091 19.3596 23.6242 19.0749 23.5756 18.7949L22.9705 15.2653L25.5344 12.769C25.7372 12.5697 25.812 12.2731 25.7242 12.0002C25.6352 11.7309 25.4015 11.5327 25.1191 11.4924V11.4924Z" fill="#141414" fill-rule="evenodd"/>
</svg>
