<?xml version="1.0" encoding="UTF-8" standalone="no"?>
<svg xmlns="http://www.w3.org/2000/svg" fill="none" height="48" viewBox="0 0 40 48" width="40">
<path d="M9.82963 35.4352L8.92478 34.5304L8.01994 35.4352C7.92761 35.5276 7.80757 35.5737 7.69678 35.5737C7.58598 35.5737 7.45672 35.5276 7.37362 35.4352C7.18896 35.2506 7.18896 34.9643 7.37362 34.7797L8.27846 33.8748L7.37362 32.97C7.18896 32.7853 7.18896 32.4991 7.37362 32.3144C7.55828 32.1298 7.84451 32.1298 8.02917 32.3144L8.93402 33.2193L9.83887 32.3144C10.0235 32.1298 10.3098 32.1298 10.4944 32.3144C10.6791 32.4991 10.6791 32.7853 10.4944 32.97L9.58957 33.8748L10.4944 34.7797C10.6791 34.9643 10.6791 35.2506 10.4944 35.4352C10.4021 35.5276 10.2821 35.5737 10.1713 35.5737C10.0605 35.5737 9.9312 35.5276 9.8481 35.4352H9.82963ZM36.2641 16.5442C36.9658 17.2552 36.9566 18.2154 36.2179 18.9449L33.5034 21.6502C33.2818 21.8718 32.9125 21.8718 32.6909 21.6502C32.4693 21.4286 32.4693 21.0592 32.6909 20.8377L35.4054 18.1323C35.8117 17.7261 35.5439 17.4583 35.4516 17.3568L34.8699 16.8028L17.6224 34.0503C17.5578 34.1149 17.4839 34.1611 17.4008 34.1888L13.5321 35.5368C13.3198 35.6107 13.0889 35.5553 12.932 35.3983C12.775 35.2413 12.7196 35.0105 12.7935 34.7982L14.1415 30.9202C14.1692 30.8371 14.2154 30.7633 14.28 30.6986L32.7555 12.2231C33.6788 11.2998 35.1838 11.3091 36.1071 12.2231C36.5503 12.6663 36.7996 13.2572 36.7904 13.8943C36.7904 14.5222 36.5411 15.1131 36.0979 15.5563L35.6824 15.9718L36.2641 16.5258V16.5442ZM16.1636 33.3947L14.9263 32.1575L14.2708 34.0503L16.1636 33.3947ZM35.6362 13.9036C35.6362 13.5804 35.5162 13.2757 35.2854 13.0541C34.8145 12.5832 34.0297 12.5832 33.568 13.0541L15.5172 31.1049L17.2254 32.813L35.2762 14.7622C35.507 14.5314 35.627 14.2267 35.6362 13.9036ZM7.68754 37.9836H26.6524C26.9663 37.9836 27.2249 37.7251 27.2249 37.4111C27.2249 37.0972 26.9663 36.8387 26.6524 36.8387H7.68754C7.37362 36.8387 7.11509 37.0972 7.11509 37.4111C7.11509 37.7251 7.37362 37.9836 7.68754 37.9836ZM29.9671 40.8459H4.35438V7.14491H29.9671V11.0136C29.9671 11.5306 30.5857 11.7892 30.955 11.4199C31.0658 11.3091 31.1212 11.1613 31.1212 11.0136V6.57245C31.1212 6.24929 30.8627 6 30.5488 6H3.78193C3.45877 6 3.20947 6.25853 3.20947 6.57245V41.4275C3.20947 41.7507 3.468 42 3.78193 42H30.5488C30.872 42 31.1212 41.7415 31.1212 41.4275V24.5586C31.1212 24.0416 30.5026 23.783 30.1333 24.1523C30.0225 24.2631 29.9671 24.4109 29.9671 24.5586V40.8459Z" fill="black"/>
</svg>
