<?xml version="1.0" encoding="UTF-8" standalone="no"?>
<svg xmlns="http://www.w3.org/2000/svg" fill="none" height="48" viewBox="0 0 40 48" width="40">
<path d="M31.8313 27.007C31.629 26.8062 31.3132 26.8062 31.1109 27.007L27.9375 30.1545C27.7351 30.3552 27.7351 30.6764 27.9375 30.8691C28.1399 31.0618 28.4556 31.0698 28.658 30.8691L30.957 28.5888V34.1772C30.957 34.4582 31.1837 34.683 31.4671 34.683C31.7504 34.683 31.9771 34.4582 31.9771 34.1772V28.5888L34.2761 30.8771C34.3733 30.9735 34.5028 31.0216 34.6404 31.0216C34.778 31.0216 34.8995 30.9735 35.0047 30.8771C35.2071 30.6764 35.2071 30.3552 35.0047 30.1625L31.8313 27.015V27.007ZM16.3935 26.7581C16.6769 26.7581 16.8954 26.9829 16.8954 27.2559C16.8954 27.5289 16.6688 27.7537 16.3935 27.7537H6.91387C6.63054 27.7537 6.41196 27.5289 6.41196 27.2559C6.41196 26.9829 6.63863 26.7581 6.91387 26.7581H16.3935ZM22.8293 31.3107C23.0803 31.3107 23.2989 31.4954 23.3312 31.7443C23.3717 32.0494 23.1369 32.3144 22.8293 32.3144H4.33956C3.0443 32.3144 2 31.2786 2 29.9939V13.1243C2 11.8396 3.0443 10.8038 4.33956 10.8038H33.2561C34.5514 10.8038 35.5957 11.8396 35.5957 13.1243V22.8558C35.5957 23.2332 35.199 23.4741 34.859 23.3055C34.689 23.2171 34.5838 23.0485 34.5838 22.8558V18.6886H3.01192V29.9859C3.01192 30.7165 3.60288 31.3027 4.33956 31.3027H22.8293V31.3107ZM34.5838 14.8345H3.01192V17.693H34.5838V14.8345ZM3.01192 13.8308H34.5838V13.1323C34.5838 12.4097 33.9847 11.8155 33.2561 11.8155H4.33956C3.61097 11.8155 3.01192 12.4097 3.01192 13.1323V13.8308ZM38 30.6764C38 34.2816 35.0533 37.1962 31.4266 37.1962C27.7999 37.1962 24.8532 34.2735 24.8532 30.6764C24.8532 27.0792 27.7999 24.1566 31.4266 24.1566C35.0533 24.1566 38 27.0792 38 30.6764ZM36.9881 30.6764C36.9881 27.6252 34.4947 25.1522 31.4185 25.1522C28.3423 25.1522 25.8489 27.6252 25.8489 30.6764C25.8489 33.7275 28.3423 36.2006 31.4185 36.2006C34.4947 36.2006 36.9881 33.7275 36.9881 30.6764Z" fill="black"/>
</svg>
